<?xml version="1.0" encoding="utf-8"?>
<!-- Generator: Adobe Illustrator 17.1.0, SVG Export Plug-In . SVG Version: 6.00 Build 0)  -->
<!DOCTYPE svg PUBLIC "-//W3C//DTD SVG 1.1//EN" "http://www.w3.org/Graphics/SVG/1.1/DTD/svg11.dtd">
<svg version="1.1" xmlns="http://www.w3.org/2000/svg" xmlns:xlink="http://www.w3.org/1999/xlink" x="0px" y="0px"
	 viewBox="0 42 792 528" enable-background="new 0 42 792 528" xml:space="preserve">
<g id="svg2" sodipodi:docname="Gadsden_flag.svg" inkscape:version="0.46" sodipodi:version="0.32" inkscape:output_extension="org.inkscape.output.svg.inkscape" xmlns:dc="http://purl.org/dc/elements/1.1/" xmlns:cc="http://creativecommons.org/ns#" xmlns:rdf="http://www.w3.org/1999/02/22-rdf-syntax-ns#" xmlns:svg="http://www.w3.org/2000/svg" xmlns:sodipodi="http://sodipodi.sourceforge.net/DTD/sodipodi-0.dtd" xmlns:inkscape="http://www.inkscape.org/namespaces/inkscape">
	
		<sodipodi:namedview  inkscape:current-layer="layer1" inkscape:window-y="25" inkscape:window-x="0" inkscape:pageopacity="0.0" inkscape:pageshadow="2" inkscape:window-width="1265" inkscape:window-height="912" inkscape:zoom="0.6" showgrid="false" pagecolor="#ffffff" bordercolor="#666666" guidetolerance="10.0" objecttolerance="10.0" gridtolerance="10.0" borderopacity="1.0" id="base" inkscape:cy="300" inkscape:cx="527.25118">
		</sodipodi:namedview>
	<defs>
		
		
			<inkscape:perspective  inkscape:persp3d-origin="450 : 200 : 1" id="perspective25" inkscape:vp_z="900 : 300 : 1" inkscape:vp_y="0 : 1000 : 0" inkscape:vp_x="0 : 300 : 1" sodipodi:type="inkscape:persp3d">
			</inkscape:perspective>
	</defs>
	<g id="layer1" transform="translate(837.14282,-33.076481)">
		<rect id="rect18474" x="-837.1" y="75.1" width="792" height="528"/>
		<path id="path6091" fill="#F5DC00" d="M-439.9,405.4c-0.4,0.2-2.6,3-5,6.5c-3.4,5-5.3,7-6.9,7.1c-1.2,0.2-2.6,0.6-3,1.1
			c-1.5,1.4-2.2,0.9-2.8-2.5c-0.4-1.8-1-4-1.5-5.1c-1.5-2.9-5.3-7.6-5.7-7.1c-0.3,0.3,0,1,0.6,1.7c1.4,1.7,0.9,10.4-0.6,10.9
			c-0.6,0.2-1.1-0.3-1.1-1s-0.6-1.8-1.3-2.4c-1.1-0.9-1.3-0.9-1.3,0.4c0,0.8-0.6,1.4-1.3,1.4c-0.8,0-1.3-0.8-1.3-2
			c0-2.8-1.7-4.4-3.3-3.1c-1,0.8-1.9,0.3-4.7-2.4c-3.7-3.6-4-3.4-2.6,1.1c0.7,2.4,0.5,3-0.8,3.7c-2.2,1.1-2.6,1.1-2.6-0.4
			c0-1-6.1-5.8-7.3-5.8c-0.2,0-0.1,1.1,0.1,2.6c0.5,3.7-1.3,4.2-4.4,1.3l-2.7-2.5l0.5,2.8l0.5,2.8l-2.6-1.3
			c-3.5-1.8-3.7-1.8-3.3,1.6c0.3,2.5,1,3.3,5.5,5.7c9,4.8,24.1,9.3,35.2,10.5l5.1,0.5l1.1,0.1c16.7,1.1,34.5-0.5,49.1-9.1
			c-0.6,0-0.9-0.6-0.5-1.5c0.4-1.2,0.2-1.4-2.2-1c-3.8,0.8-4.3-0.6-1.6-4.8l2.3-3.5l-6.2,3.1c-3.4,1.7-6.5,3-6.9,2.9
			s-1.6,0.2-2.7,0.5s-2.3,0.5-2.5,0.3c-0.6-0.6,2.7-7,5.5-10.4c2.8-3.4,1.5-2.6-6.4,4.2c-4.8,4.2-8.7,6.4-10.9,6.4
			c-1.1,0-1.1-6.7,0-10.6C-439.9,407-439.7,405.5-439.9,405.4L-439.9,405.4z"/>
		<path id="path6089" d="M-430.8,418.7c1,0,1-0.2-0.1,3.3c-0.7,2.6-0.7,2.8,0.7,2.3c5.3-2.2,3.8,1.1-4.4,4.3
			c0.2-0.3,0.2-0.5,0.2-0.9C-434.4,425.2-431.9,418.7-430.8,418.7z"/>
		<path id="path3164" d="M-448.3,420.8c0.3,0,0.6,0,1,0l3.3,0.2l-2.4,4.2c-1.8,3.3-2.4,3.8-2.7,2.5c-0.4-1.6-0.6-1.5-2.8,0.4
			c-0.9,0.8-2.6,1.3-3.6,1.7l-1.7-2c-1.3-1.6-2.4-3.7-2.4-4.8c0-1.6,0.3-1.5,1.6,1l1.6,2.9l3-3.1
			C-451.5,421.5-450.3,420.8-448.3,420.8z"/>
		<path id="path9992" fill="#F5DC00" d="M-327.8,421c-0.4,4.2-1,7.5-1.4,7.2c-0.4-0.3-0.8-1.3-0.8-2.4c0-1.8-0.1-1.8-2.5,0.5
			c-2.5,2.4-2.5,2.4-4,0.6c-1.6-1.7-1.7-1.6-4.8,3.3c-8.6,13.2-27.8,25.6-47.1,30.5c-4.5,1.1-14.5,3.2-22.2,4.5
			c-12.6,2.2-16.1,2.5-34.7,2.5c-16.6,0-22.2-0.3-28-1.5c-2.8-0.6-6.5-2.7-8.7-4l-17.3-7.9l-23.7-13.3c-4.9-4.6-5.8-5.1-5-3.1
			c0.5,1.3,0.8,2.6,0.5,2.9c-0.2,0.3-3-1.4-6.2-3.6l-5.7-4l1.7,4.1c0.9,2.3,1.9,4.9,2.3,5.8c0.6,1.4,0.4,1.6-1.7,1.1
			c-2-0.4-2.4-0.3-2.4,1.4c0,1.8-0.2,1.8-1.2,0.7c-0.7-0.7-2.2-3.3-3.4-5.6l-2.2-4.3l-1.4,4.8c-0.8,2.6-1.4,5.8-1.4,7.2
			c0,3-1.2,2.6-3.5-1.2l-1.6-2.6l-0.6,2.7c-0.7,3.3-0.8,3.3-4.2,0.8l-2.7-1.9l-1.6,1.9c-0.8,1.1-2.1,1.9-3,1.9s-5-2-5.3-1.1
			c-2.6,0.4-10.6,5-15.2,5.4c-11.9,0.3-23.8-1.2-35.4-4.2c-2.9-1.4-5.8-2.6-6.5-2.6c-0.7,0-2.7-1-4.5-2.2c-4-2.7-4.6-2.7-2.7,0.1
			c0.8,1.3,1.3,2.5,1.1,2.7c-0.3,0.2-4.5-0.8-9.4-2.3c-5-1.4-9.2-2.6-9.5-2.6c-1.1,0,3.3,3.9,8,7c5.9,4,4.9,4.4-4.2,1.8
			c-3.3-1-6.2-1.6-6.4-1.4c-0.2,0.2,3.7,2.7,8.7,5.7c5.9,3.5,8.4,5.4,7,5.4c-1.1,0-7.6-1.1-14.4-2.6c-6.9-1.5-12.6-2.6-12.8-2.4
			c-0.5,0.5,9.6,5.5,15.1,7.6c2.9,1.1,8.3,2.5,11.9,3.1l6.6,1.2l-12.8,0.1c-8.5,0-13.8-0.4-16-1.1c-1.8-0.6-3.3-1.1-3.3-0.9
			c0,0.2,1.8,1.4,4.1,2.7c3.2,1.8,5.2,2.4,8.6,2.3c5.9-0.1,19.3,3.3,18.7,4.8c-1,2.6,9.4,0,11.1-2.6c0.9-1.4,19.2-1.1,20.1,0.3
			c0.4,0.7,1.3,0.7,2.9,0.1c1.9-0.8,2.4-0.7,2.4,0.4c0,1.5,1.1,1.6,2.5,0.2c0.9-0.9,1.5-0.9,2.8,0c1.1,0.7,2.4,0.8,4,0.2
			c3.3-1.2,3.9-1.1,3.3,0.9c-0.5,2.1-0.4,2.1,4.3,0.3c2.9-1.1,3.9-1.2,4.1-0.4c0.2,0.8,1.1,0.4,2.9-1.3c2-1.9,2.8-2.2,3.3-1.3
			c0.4,0.7,1.4,0.9,2.6,0.5c1.1-0.4,2.5-0.2,3.1,0.4c0.9,0.7,1.5,0.6,2.3-0.4c1.7-1.9,2.9-1.7,2.2,0.5c-0.6,1.8-0.3,1.7,4.4-1
			c3.5-2,5.2-2.6,5.6-1.8c0.5,0.8,1.8,0.6,4.8-0.7c3.9-1.7,4.1-1.7,4.9-0.2c0.8,1.4,1.5,1.5,5.9,0.8c7.3-1.1,8.2-0.7,4.2,2.1
			c-1.8,1.4-3.2,2.5-2.8,2.5c1.1,0,14.2-2.6,16-3.2c1.7-0.5,1.8-0.4,0.5,1c-1.2,1.4-1.1,1.5,0.4,1.1c1-0.3,3.7-0.8,6.1-1.1
			c3.9-0.5,4.2-0.4,3.7,1c-0.4,1.2-0.2,1.4,1.4,1.1c5.3-1.2,10.4-1.7,10.4-0.8c0,0.6,1.1,0.7,3.2,0.1c2.1-0.5,3.4-0.5,4.2,0.1
			c0.8,0.7,1.6,0.5,2.8-0.4c2.4-1.8,4-1.7,3.3,0.2c-0.5,1.5-0.4,1.5,1.8,0c2.3-1.5,2.4-1.4,3.7,0.4c1.1,1.6,1.4,1.7,1.4,0.5
			c0-2.5,1.8-2.7,4-0.6l2.1,2l0.1-2.1v-2.1l1.5,2.2c0.9,1.2,2.4,3.2,3.5,4.4l2,2.2l-0.6-3.3c-0.8-4.2,1.1-5.1,5.2-2.6
			c1.7,1,3.8,1.8,4.8,1.8c1,0,2.5,0.8,3.3,1.8c1.6,1.8,11.4,5.3,14.8,5.3c1.5,0,1.1-0.8-2.7-4c-4.3-3.8-5.5-5.9-3.9-6.9
			c0.4-0.3,1.8,0.1,3.2,0.8c3.2,1.7,3.2,1.7,3.2-0.4c0-2.5,1-2.2,6.5,1.3c5.6,3.6,5.8,3.6,5.8,1.3c0-1,0.1-1.8,0.2-1.8
			s2.1,0.5,4.4,1.2l4.1,1.2l-1.4-2.1c-1.3-1.9-1.3-2.2,0.2-2.7c0.9-0.4,4.2-0.1,7.6,0.4c7.7,1.3,8.8,1.2,5.8-0.4
			c-1.4-0.7-2.5-1.8-2.5-2.6c0-1.8,4-1.7,12.9,0c3.8,0.8,7.8,1.3,9.1,1.3c2.2,0,2.1-0.1-0.9-2.7c-2.8-2.5-2.9-2.6-0.9-2.2
			c7,1.5,14.2,2.5,15.1,2.1c0.6-0.3-0.4-1.1-2.4-1.9c-8.5-3.7-8.5-3.5-1-3.8l7-0.3l-2.9-1.8c-1.6-1-2.7-1.8-2.6-2
			c0.2-0.2,6.7,1,14.4,2.6c7.7,1.6,16.5,3.1,19.4,3.4l5.3,0.6l-6.2-2c-6.4-2.2-11.8-4.9-11.8-6.1c0-1.1,2.2-0.9,9.9,0.6
			c3.8,0.7,7,1.3,7.2,1.3c0.2,0,0.4-0.9,0.4-1.8c0-1.3,0.4-1.7,1.6-1.3c0.9,0.3,2.7,0.8,4.2,1.1c1.5,0.3,4.6,1.7,7,3
			c4.1,2.3,20.3,7.9,22.7,7.9c0.6,0-0.8-1.2-3.1-2.7c-3.9-2.5-5.3-4.2-3.4-4.2c0.7,0,15,3.9,17.6,4.8c1.1,0.4,1.1,0.3,0.1-0.9
			c-0.6-0.7-1-1.5-0.8-1.7c0.2-0.2,4.5,0.6,9.6,1.8c11.6,2.6,13,2.6,7.5,0c-5.7-2.8-3.4-2.9,9.6-0.5c5.3,1,11,1.7,12.8,1.7l3.2-0.1
			l-3.1-1.4l-3.1-1.4l7.5-0.7c9.2-0.9,15.5-2,18.9-3.4l2.6-1.1l-3.3-0.9l-3.3-0.9l2.5-2.6l2.5-2.6l-3.1,0.5
			c-1.7,0.3-5.4,0.9-8.3,1.4c-6.9,1.2-6.9,1.2-6.2-1c0.6-1.8,0.4-1.9-5.2-1.3c-4.9,0.5-5.8,0.4-5.8-0.8c0-1-0.5-1.2-1.6-1
			c-4.5,1.3-6.3,1.6-6.3,0.7c0-0.5-1.9-1.1-4.2-1.2l-4.2-0.3l4.4-1.1c2.5-0.6,7.9-1.5,12.3-2.1c4.4-0.6,8.5-1.2,9.2-1.5
			c2.6-0.8-5.5-3.7-10.5-3.7c-5.5,0-5.3-0.8,1.2-3.3l4.4-1.8l-2.6-0.7c-3.9-1-4.1-1.1-3.1-3.1c1.1-2.1,1.1-2.1-8.2,0.4
			c-4.3,1.1-7.7,1.8-7.7,1.6s1.1-1.6,2.3-2.9l2.3-2.4l-3.4,0.8c-1.8,0.4-5.4,1.4-7.7,2.1c-2.4,0.7-4.4,1.2-4.6,1.1
			c-0.2-0.1,0.1-2.4,0.6-4.9c1.5-7.6,1.2-7.7-4.3-2.4c-2.9,2.8-5.5,5-5.8,5c-0.3,0-0.4-1.1,0-2.3c0.5-2,0.4-2.1-1.3-1.2
			c-1,0.6-3.3,2.5-5.3,4.1c-4,3.6-4.4,2.8-2.2-4.4c0.7-2.3,1.1-4.1,1-4.1c-0.2,0-2,1.4-4.1,3.2l-3.8,3.2l-0.4-3.9l-0.4-3.9l-3.5,4.8
			l-3.5,4.8l-0.7-4.7l-0.7-4.7l-1.7,2.7c-0.9,1.5-2.7,4.8-4,7.3c-1.7,3.3-2.5,4.2-3,3.3c-0.4-0.7-1.4-6.1-2.3-12.1
			c-0.9-5.9-1.5-8.9-2-8.9S-327.4,415.7-327.8,421z"/>
		<path id="path9990" d="M-391.4,457.7c-2.5,2.3-5.7,6.1-8.1,8.4c-3.3,3.2-6.2,5.5-6.6,5.1c-0.4-0.4,1.6-2.6,4.2-4.9
			c1.8-1.6,4.1-4.8,5.4-6.7L-391.4,457.7z"/>
		<path id="path4143" d="M-399.7,460.7c-2.4,2.2-5.2,5.3-7,7.2c-2,2.2-4,3.6-4.4,3.3c-0.4-0.4,0.8-2.2,2.7-3.9
			c1.3-1.2,3-2.9,3.6-4.1L-399.7,460.7z"/>
		<path id="path3162" d="M-305.5,454.3l0.5,2.8v2.3l2.6-1.6c0.9-0.5,3.1,0.1,3.5-0.3c5.1,0.1,18-1.8,20.7-1.8l3.5,0.2l-3.7,1.8
			c-2,1.1-3.7,2.2-3.7,2.6c0,0.4,3.8,0.7,8.4,0.7c4.6,0,8.4,0.4,8.4,0.7s-1.8,1.3-4,1.9c-2.2,0.6-4,1.4-4,1.8s1.8,1.1,4.2,1.6
			c3.9,0.8,3.5,0.9-4.6,1l-8.8,0.1l2.2-1.8l2.2-1.8l-2.2,0.4c-1.2,0.3-4.3,0.8-7,1.1l-4.8,0.6l1.5-2.1c1.6-2.2,1.9-3.9,0.7-3.1
			c-0.4,0.3-2.7,1.2-5.1,2.2l-4.4,1.8l0.4-2.2l0.4-2.2l-3.8,1.9c-2.7,1.4-4,1.6-4.4,0.9s-1.1-0.4-2,0.9l-1.3,1.9l-0.6-1.9
			c-0.5-1.8-0.7-1.8-1.5-0.4c-0.8,1.4-0.9,1.4-2-0.1c-1.1-1.6-1.2-1.5-1.2,0.1c0,1.6-0.1,1.6-1.8,0.1c-1.8-1.6-1.8-1.6-1.8,0.7v2.4
			l-7.5-3.7c-4.1-2-7.3-3.8-7.2-4c0.1-0.1,2.4,0.4,5,1.1c6.4,1.7,6.4,1.8,5.8-1.4c-0.6-2.9-0.2-3,4-1.2c1.1,0.5,1.6,0.2,1.6-1.2
			c0-2.5,1.4-2.4,2.7,0.1c1.1,1.9,1.1,1.9,1.8,0.2c0.2-0.4,0.3-1.7,0.4-1.9c1.7-0.2,1.7,1.2,2.3,2.6c1,1.8,1,1.8,3.1-0.5
			L-305.5,454.3z"/>
		<path id="path3160" d="M-485.2,418.3l3.1,2.9l3.1,3l0.3-2.6c0.3-2.4,0.4-2.2,1.8,1.7c1.1,3,1.1,4.1,0.4,4.1
			c-1.8-0.1-5.9-3.6-7.3-6.4L-485.2,418.3z"/>
		<path id="path3158" d="M-439.5,421.3c0.2,0,0.3,0.3,0.3,0.6c0,1.1-2.1,4.5-4.2,6.8c-2.3,2.5-4.4,3.3-3.1,1.3
			C-443,424.4-440.4,421.1-439.5,421.3z"/>
		<path id="path3156" d="M-470.8,421.4C-470.8,421.4-470.7,421.4-470.8,421.4c0.4,0.3,1,1.9,1.4,3.8c0.9,3.1,0.8,4.2-0.1,2.6
			C-470,426.8-471,421.6-470.8,421.4z"/>
		<path id="path3154" d="M-474.3,421.5c0.1,0,0.4,0.2,0.7,0.4c0.6,0.5,0.9,2.1,0.7,3.5c-0.3,1.8-0.4,1.9-0.5,0.6
			c-0.1-1.1-0.4-2.6-0.7-3.5C-474.4,421.8-474.5,421.5-474.3,421.5z"/>
		<path id="path3152" d="M-559.9,437.5c0.6,0,1.8,0.6,4.8,2c4.7,2.4,5.2,2.5,5.5,1.1c0.7-2.6,5.9-1.8,12,1.9c3,1.8,5.5,3.7,5.5,4.1
			c0,1.2-2.7,1-5.3-0.5c-2.8-1.6-3.5-1.6-3.5,0c0,0.8-0.5,1.1-1.4,0.7c-0.8-0.3-1.7,0-2.1,0.6c-0.5,0.9-1.8,0.7-5.6-0.8
			c-5.6-2.1-6.1-2.2-5.4-1c0.8,1.2,0.2,1.1-6.9-1c-6.8-2-8.2-1.8-5,0.9l2.1,1.7l-3.5-0.8c-5-1.1-5.3-1.1-3.6,0.9
			c1.5,1.7,1.4,1.7-7.1,1.1c-7.9-0.4-8.5-0.4-7.5,0.9c1.1,1.2,0.7,1.6-2.9,2.5c-3.3,0.8-3.9,1.2-3.1,2.3c0.8,1,0.4,1.2-1.9,1.2
			c-1.7,0-5.6,0.3-8.9,0.5c-3.3,0.4-6,0.4-6,0.1c0-0.3,2.2-1.2,4.8-2c2.6-0.8,4.8-1.8,4.8-2.1s-0.9-1.1-1.9-1.6
			c-1.8-0.9-1.5-1,1.9-1.1l3.9-0.1l-4.5-4.8c-2.5-2.6-4.6-5.2-4.6-5.7s2.6,0.5,5.7,2.3c7.3,4,13.1,5.7,16.9,5.1
			c4-0.8,3.6-1.9-0.8-2.7c-3.3-0.5-3.5-0.7-1.6-1.2c1.2-0.4,3.5-0.7,5.1-0.7c2.4-0.1,2.8-0.4,2.5-1.5c-0.5-1.2,0.2-1.4,6.3-0.8
			c3.8,0.4,7.7,0.9,8.8,1.1c1.6,0.4,1.9,0.1,1.9-1.4C-560.3,438-560.3,437.6-559.9,437.5z"/>
		<path id="path3150" d="M-370.4,450c0.2,0,0.1,0.2-0.2,0.5c-1.1,1.3-0.9,1.5,2.4,1.5c2.5,0,3.7,0.4,4,1.4c0.4,1.1,1.3,1.3,3.6,1
			c1.8-0.3,2.9-0.2,2.6,0.3c-0.3,0.4,0,0.9,0.6,0.9c0.6,0,2.7,0.7,4.7,1.6l3.5,1.6l-5.8-0.4c-4-0.3-7.3,0.1-10.6,1.1
			c-2.6,0.9-5.3,1.8-5.9,1.9c-1,0.4-1,0.1-0.2-1.5c1-1.8,0.8-1.8-2.3-1.9c-2.6,0-3-0.3-2-1c1.3-0.9,0.5-0.8-7,0.7
			c-2.2,0.4-1.3-0.1,9.7-6.5C-371.7,450.4-370.6,449.9-370.4,450z"/>
		<path id="path2212" fill="#194119" d="M-290.5,455.6c-1.3,0-2.7,0.1-3.7,0.2c-2,0.2-0.4,0.4,3.7,0.4s5.8-0.2,3.7-0.4
			C-287.8,455.6-289.2,455.6-290.5,455.6z"/>
		<path id="path2182" fill="#FEFFFF" d="M-365.8,134.9c-8.7,3.8-18.3,6.6-22.2,6.6c-2,0-3.2,0.5-4.2,2.1c-0.8,1.1-2.3,2.4-3.3,2.7
			c-1,0.3-3.7,2.1-6,4c-3.4,2.8-4.8,3.4-8.1,3.4c-6.6,0-17.2,1.8-24.7,4.1c-37.8,11.8-66,50-68.8,93.5l-0.5,8.4l-7.8,7.4
			c-12.1,11.4-18.9,22.2-21.9,34.4c-1.3,5.2-1.4,19.6-0.2,24.6c0.7,2.9,0.4,3.7-4.7,11.1c-9.5,14.1-14,29-14,47.1
			c0,8.7,0.4,11.9,1.7,15.3l1.7,4.4l-6.3,6c-7.7,7.1-20.7,17-27.5,20.9c-4.4,2.5-5.7,2.7-13.6,3c-16.9,0.5-23.5-2-34.5-13.3
			c-4-4.1-7.2-7.8-7.2-8.3s-1.8-1.6-4-2.6c-3.3-1.4-4.5-1.6-6.2-0.8c-2.1,1-2.2,1.3-1.8,7.4c0.5,8,1.8,10.2,11,20.7
			c10.6,12.9,26.7,18.6,43,19.5c7.5,0,16.1-1.4,16.1-2.6c0-0.4,1.4-0.9,3.1-1.2c7.7-1.5,27.6-13.4,38.2-23l3.5-3.2l4.2,5.3
			c2.3,2.9,5.1,6.4,6.2,7.9c2.9,3.9,16.2,13.6,24.4,17.9c9.5,5,14.1,6.7,25.5,9.2c12.2,2.7,38.5,3.5,53.6,1.6
			c36.3-4.7,53.2-10.4,70.3-24c6-4.8,14.6-15.2,14.6-17.8c0-0.7,0.9-3.5,1.9-6.2c2.7-6.9,2.7-20.3-0.1-27.5
			c-4.6-11.7-14-23.1-28.2-34.2l-2.9-2.3l2.7-4.3c7.9-12.5,8.1-28.9,0.5-40.8c-3.3-5.4-10-11.6-16.4-15.6l-5.3-3.3l2-2.3
			c8-8.9,9.6-23.3,4.2-34.8c-3.1-6.5-5.4-7.4-10.9-12.1c-7.2-3.8-9.9-5.9-22.3-9.2c-5.5-1.1-10-1.3-21.6-1
			c-13.8,0.4-18.6,1.1-35.4,5.5c-2.3,0.5-2.5,0.4-2.5-1.9c0.8-6.6,2.6-13,4-19.4c0.2,0,0.4-0.3,0.7-0.8c0.6-1.8,3.5-6.8,2.8-6.9
			c1.4-2.1,2.6-4.4,4-6.6c0.1-0.1,0.1-0.1,0.1-0.1c1.8-1.9,5.9-6.5,8.8-9.2c8.4-8,18.9-13.6,30.8-16.4c10.3-2.5,41.1-3.3,45.9-1.3
			c1.8,0.7,5.7,1.3,8.9,1.3c5.2,0,5.8-0.3,7.2-2.4c1.4-2.2,1.4-2.4-0.6-3.7c-2-1.3-1.8-1.4,6.6-3c12.5-2.3,26.2-2.8,31-1.2
			c4,1.3,4.7,0.8,2.2-1.7c-1.4-1.4-1.4-1.5,0.9-1.1c3,0.6,3.1-0.5,0.2-2.5c-3-2-13.4-1.3-26.4,1.7c-13.3,3.1-20.2,3.3-24.2,0.8
			c-1.8-1.1-3.7-1.9-4.5-1.9s-2.1-0.4-2.9-1.1c-1.3-1-0.7-1.8,5.9-8.4c9.6-9.6,10.8-9.6,13.5-0.2c0.3,1.1,0.4,1.1,1.1,0
			c0.4-0.7,0.9-2.3,0.9-3.5c0.1-2,0.2-2,0.8-0.4c0.7,1.6,0.8,1.5,1.4-0.7c1.1-4-0.4-12.3-2.5-14.5c-1.1-1.1-1.9-1.8-3.3-1.8
			C-358.8,131.8-361.4,132.7-365.8,134.9z M-354.8,135.9c1.3,1.5,1.2,1.8-1.2,4.1c-1.5,1.4-3.6,2.9-4.8,3.4c-1.1,0.5-6.7,5-12.2,10
			c-10.3,9.3-11.5,11.6-6.5,11.6c3,0,8.2,1.9,9.1,3.4c0.4,0.7-0.1,0.8-1.8,0.4l-2.5-0.6l2.5,2.4c1.7,1.6,4,2.6,6.8,2.9
			c2.4,0.3,4,0.9,3.8,1.3c-0.7,1.1-4.8,0.9-9.1-0.6c-2.6-0.9-6.5-1.3-12.5-1.1c-4.8,0.1-9,0-9.2-0.4c-0.3-0.4,0-1.1,0.6-1.9
			c2.1-2.6,0.2-2.5-2.1,0.1l-2.3,2.6l-1.7-2.1c-1.6-2-1.8-2-2-0.5c-0.3,1.3-1.1,1.7-4.5,1.8c-2.3,0.1-4.4,0.4-4.7,0.7
			c-0.3,0.3-1.1,0.4-1.7,0.1c-0.6-0.2-1.4,0-1.8,0.5s-2.4,1-4.5,1s-3.9,0.4-3.9,0.8c0,0.4-1.8,1-3.9,1.3c-2.2,0.4-4,1.1-4.3,1.7
			c-0.2,0.6-1.9,1.6-3.8,2.3c-3.9,1.4-11.8,6.2-11.8,7c0,0.4-1.4,1.4-3.1,2.3c-1.7,0.9-4,3.2-5.4,5c-2.5,2.8-2.6,1.8-4.3,5.3
			c0,0.1-2.1,3.5-1.9,3.3l-1.9,2.7c-3.2,4.1-4.8,8.7-6.3,13.8c-0.9,1.7-1.1,1.8-2,0.6c-0.9-1.1-1.1-1-2,1.4c-1.1,2.6-1,2.7,0.7,2.3
			c1.3-0.4,1.6-0.1,1.2,0.9c-0.4,0.7-0.5,1.9-0.5,2.6c0,0.8-0.5,1.1-1.1,0.9c-0.7-0.3-1.7,0.4-2.3,1.3c-0.9,1.5-0.8,2,0.4,3.4
			c1.4,1.5,1.4,1.8,0.2,2.2c-1.7,0.7-3.2,4.5-3,7.5c0.1,1.3-0.3,2.1-1,1.9c-1.8-0.4-2.4,2.6-0.8,3.7c1.1,0.9,1.2,1.4,0.4,3.8
			c-0.9,2.2-0.8,3.1,0,3.9c0.8,0.9,1.1,0.7,1.1-0.4c0-1.7,1.3-2,2.2-0.7c0.4,0.4-0.3,1.2-1.2,1.8c-2.4,1.2-2.3,2.7,0.3,5.2
			c1.4,1.3,2.1,2.9,2,4.8c-0.2,4.3,2,8,4.8,8.4c3.2,0.4,3.2,1.9,0.1,1.9h-2.4l2.1,2.2c2.1,2.2,2.1,2.2,2.8,0.4
			c0.8-2.3,2.9-1.8,2.9,0.5c0,2-4.3,2.9-6.2,1.2c-1-0.9-1.2-0.8-1.2,0.4c0,0.9-0.7,1.4-2,1.4c-1.1,0-2.5,0.4-3,1
			c-1.1,1.1-3.7,0.4-3.7-1c0-0.4,0.6-0.9,1.3-0.9c0.7,0,1.3-0.6,1.3-1.3c0-0.7-0.6-1.3-1.4-1.3c-1.1,0-1.2-0.3-0.5-1.1
			c0.6-0.8,0.6-1.7,0.1-2.5c-1.3-2.2-0.9-3.5,1.4-4.4c1.2-0.4,2.2-1,2.2-1.1s-0.8-1.8-1.8-3.7c-1-1.9-1.8-4-1.8-4.7
			s-0.7-1.1-1.6-0.9c-1.1,0.2-1.7-0.4-1.8-2.1c-0.2-1.4-0.8-2.5-1.5-2.5s-1.3-1.1-1.5-2.5c-0.4-3.1-3.1-3.9-3.5-1
			c-0.4,2-0.8,2.2-3.5,1.1c-1.1-0.4-1.9,0.2-3,2.3l-1.5,2.9l-1.6-2c-2-2.5-2.1-3.6-0.4-3.6c0.7,0,1.3-0.6,1.3-1.3
			c0-1.6,3.6-1.8,5.1-0.3c0.6,0.6,1.3,0.8,1.6,0.5c1-1-0.5-2.5-2.3-2.5c-2.2,0-2.2-2.9,0-16c1.6-9.5,4.1-18.7,3.1-11.3
			c-1.1,7.1-2.2,19.2-2.2,22.7c0,4.4,1,4.2,3.5-0.8c1.1-2.2,2.4-3.4,3.4-3.4c2.6,0,6.2-1.8,6.2-3.3c0-0.7,0.9-2.2,1.9-3.3
			c1.5-1.6,1.6-2,0.5-2c-2.1,0-3.9-2.5-2.6-3.7c0.8-0.8,0.7-1.3-0.2-2.4c-0.7-0.7-1.7-2.8-2.3-4.7c-0.9-2.9-1.3-3.3-3.2-2.8
			c-1.4,0.4-2.1,0.2-2.1-0.5c0-0.9-0.3-0.9-1.3,0c-0.7,0.6-1.9,0.8-2.7,0.5c-1.3-0.5-1.3-0.7,0-2.2c0.8-0.9,1.5-2,1.5-2.6
			s0.6-1.1,1.2-1.1c0.6,0,1.8-1,2.6-2.2s2.2-2.2,3.1-2.2c1.1,0,1.8-0.7,1.9-1.9c0.4-2.6,3.3-3.2,4-0.7c0.5,2.2,1.9,2.4,2,0.3
			c0-2,4.8-7.6,6-6.9c0.5,0.3,0.7,1.1,0.4,1.8c-0.3,0.8,0.1,1.3,0.9,1.3c0.9,0,1.5-1,1.7-2.8c0.3-2.5,0.7-3,3.5-3.6
			c1.8-0.4,3.9-1.5,4.7-2.4c1.3-1.5,1.3-1.6-0.8-1.1c-2.2,0.4-3.1-0.9-1.3-1.9c0.4-0.3,0.9-2.1,0.9-4c0-1.8,0.4-3.7,0.9-4
			c0.5-0.3,1.7-2,2.6-3.8c1.4-2.8,1.5-3.4,0.4-5.1c-1.2-1.8-1.1-2,1.9-3.4c2.6-1.3,3.3-1.3,4-0.4c0.6,1.1,1.1,1,2.5-0.3
			c0.9-0.8,2.8-1.4,4.2-1.3c6.6,0.4,8.1-0.1,13.7-5.1c6.7-6,8.9-7.1,10.7-5.6c1.1,1,1.8,0.8,3.7-0.7c1.7-1.3,3.6-1.8,6.6-1.8
			c3.8,0,4.8-0.4,9.2-4.3c5.5-4.8,14.3-9.8,17.2-9.8c1.1,0,5.2-1.4,9.3-3.1c8.2-3.3,10.6-3.8,9.8-1.8c-0.3,0.8,0,1.3,0.8,1.3
			c0.7,0,1.6-1,1.8-2.2c0.4-1.5,1-2.2,1.8-2.1C-356.5,134.4-355.7,134.9-354.8,135.9z M-351.8,144.3v2.8l-1.1-2.6
			c-0.6-1.5-1-3-0.8-3.3c0.3-0.4,0.4-0.5,0.7-0.5C-352.4,140.7-351.7,142.2-351.8,144.3z M-355.1,143.9c0.4,0.7,0.8,2.3,0.8,3.5v2.2
			l-1.4-2c-0.7-1.1-1.1-2.6-0.8-3.4c0.3-0.6,0.4-1,0.6-1C-355.7,143.1-355.5,143.4-355.1,143.9z M-384.1,146c-0.5,0.7-1.8,1.5-3,1.8
			c-1.3,0.4-2.4,1.6-3,3.6c-0.5,1.7-0.9,3.1-0.8,3.1c0.1,0,2.2-1.2,4.8-2.8c3.3-2.1,4.6-3.3,4.6-4.8c0-1.3-0.4-1.9-0.9-1.9
			C-382.9,144.9-383.4,145.2-384.1,146z M-399.3,157.6c0.2,1.5,1.5,1.5,2.7,0c0.6-0.7,0.9-1.6,0.5-1.9c-0.1-0.1-0.2-0.2-0.4-0.2
			C-397.3,155.3-399.3,156.6-399.3,157.6z M-413.6,159.8c-0.4,1-1.1,1.8-1.7,1.8c-1.5,0-5.2,5-4.1,5.6c0.4,0.3,2-1,3.5-2.7
			c1.4-1.8,3-3,3.3-2.6c0.4,0.4,0.2,1-0.4,1.1c-0.5,0.2-1.1,1.1-1.1,2.1c0,2.4,3,1.8,3.3-0.8c0.1-1.1,1-2.2,1.9-2.5
			c2.3-0.8,2.1-2.2-0.4-2.2c-1.1,0-2.5-0.4-3-1c-0.3-0.3-0.5-0.4-0.7-0.4C-413.1,158.4-413.4,158.9-413.6,159.8z M-432.7,162.7
			c-2.6,0.4-5.1,1.1-5.5,1.5c-1,1-2.3,0.4-2.3-1c0-1.4,5.7-3.4,9.7-3.4c0.4,0,0.7,0,1,0C-425.7,160-427.2,161.9-432.7,162.7z
			 M-423,163.5c0,2,2.2,2.2,3,0.3c0.3-0.8,0.4-1.8,0.1-2.2c-0.2-0.4-0.4-0.5-0.8-0.5C-421.6,161-423,162.1-423,163.5z M-407.6,167.8
			c-0.3,3.3,1.1,4.5,3.9,3.6c0.7-0.3,0.8-0.7,0.3-1.4c-0.4-0.5-1-1.9-1.1-3.2c-0.3-1.6-0.8-2.3-1.4-2.3
			C-406.7,164.6-407.6,165.7-407.6,167.8z M-424.7,169c0.4,0.4,1.1,0.2,1.3-0.4c0.7-1.1-0.1-2.6-1.3-2.6
			C-425.8,166-425.8,168.4-424.7,169z M-428.1,167.2c-0.5,0.4-0.9,1.2-0.9,2.1c0,1.9-0.9,2.8-2,2.1c-1.8-1.1-5.9-1-5.9,0.3
			c0,0.7,0.6,1.2,1.4,1.2c0.9,0,1.2,0.5,0.9,1.3c-0.3,0.7-0.2,1.3,0.3,1.3s1.1-0.6,1.3-1.3c0.4-1.1,0.8-1.1,2.3-0.2s1.9,0.9,2.6-0.2
			c1.1-1.7,1.1-6.7,0.2-6.7C-428.1,167.2-428.1,167.2-428.1,167.2z M-412.7,168.6c-0.4,0.5,0.2,0.9,1.2,0.9s1.8-0.4,1.8-0.9
			c0-0.5-0.6-0.9-1.3-0.9C-411.7,167.8-412.5,168-412.7,168.6z M-418.6,170c0,1.8,1.5,2.3,2.6,0.9c0.6-0.7,0.8-1.7,0.5-2.2
			c-0.2-0.4-0.4-0.4-0.8-0.5C-417.2,168-418.6,168.8-418.6,170z M-423,170.2c-1.2,2.4-0.3,4,1.7,2.8c1-0.6,1.1-1.2,0.4-2.8l-0.9-2
			L-423,170.2z M-440,172.2c-0.4,0.5-0.2,0.9,0.4,0.9s1-0.4,1-0.9c0-0.6-0.2-0.9-0.4-0.9C-439.4,171.3-439.8,171.5-440,172.2z
			 M-446.7,174.4c0,1.7,1.4,1.6,2.1-0.2c0.4-0.8,0.4-1.6,0.2-1.8c-0.1-0.1-0.2-0.2-0.3-0.2C-445.5,172-446.7,173.2-446.7,174.4z
			 M-451.6,176.7c0.5,4,1.1,5.2,2.5,5.2c0.5,0,0.7-0.3,0.4-0.6c-0.4-0.4-0.1-1.1,0.4-1.8c0.8-0.9,0.8-1.4,0-2.2
			c-0.6-0.6-1.1-1.8-1.1-2.6c0-0.9-0.6-1.6-1.4-1.6C-451.8,173-452,173.7-451.6,176.7z M-438.7,174.3c-1,0.6-0.4,2.2,0.9,2.2
			c0.4,0,1-0.4,1.2-0.8c0.5-0.8-0.3-1.6-1.2-1.6C-438.2,174.1-438.5,174.2-438.7,174.3z M-469.2,189.8c-5.4,5.5-10.6,11.5-11.8,13.4
			c-2.6,4.2-3.2,4.2-1.4,0c2.5-6,7.7-12.6,16.2-20.5c4.6-4.3,8.5-7.7,8.7-7.5C-456.6,176-460.1,180.4-469.2,189.8z M-443.2,178.2
			c0,0.5,0.4,1,0.9,1c0.4,0,0.9-0.3,0.9-0.4s-0.4-0.6-0.9-0.9c-0.1-0.1-0.3-0.2-0.4-0.2C-442.9,177.7-443.2,177.9-443.2,178.2z
			 M-442.3,181.8c0,1.1,0.6,1.1,1.3,0c0.4-0.5,0.2-0.9-0.4-0.9S-442.3,181.3-442.3,181.8z M-450.8,183.5c-0.2,0.1-0.4,0.4-0.7,0.8
			c-0.4,0.4-0.2,1.1,0.4,1.4c0.4,0.4,0.9,0,0.9-0.8C-450.2,184-450.4,183.6-450.8,183.5C-450.7,183.6-450.7,183.6-450.8,183.5z
			 M-452.9,188.7c0,0.4,0.4,0.8,1,1c0.6,0.2,0.9-0.2,0.7-0.7c-0.2-0.5-0.6-0.9-1-1C-452.5,187.9-452.9,188.1-452.9,188.7z
			 M-462.6,200.3c0,1.1,1.3,1.8,2,1.1c1.1-1,0.6-2-0.7-2C-461.9,199.4-462.6,199.8-462.6,200.3z M-466,206.5c0,0.5,0.7,0.9,1.4,0.9
			s1.1-0.4,0.8-0.9c-0.4-0.6-1-0.9-1.4-0.9C-465.7,205.6-466.1,205.9-466,206.5z M-470.3,207.2c-0.2,0.6,0.3,1.1,1.1,1.1
			s1.4-0.6,1.4-1.4c0-0.6-0.3-1-0.6-1.1c-0.1,0-0.2,0-0.3,0C-469.2,205.8-469.9,206.3-470.3,207.2z M-479.4,210.7
			c-0.8,0.8-0.8,1.2,0,2c0.7,0.8,1.1,0.7,1.6-0.4c0.4-1.3,0.2-2.2-0.5-2.2C-478.7,210.1-479,210.3-479.4,210.7z M-473.2,212.8
			c-1,1.7-0.7,2.8,0.4,1.8c0.4-0.3,0.6-1.1,0.6-1.9c0-0.5,0-0.8-0.2-0.8C-472.6,211.9-472.9,212.2-473.2,212.8z M-470.4,215.7
			c0.3,1.2,0.5,1.1,1.4-0.8c0.6-1.4,0.7-2.5,0.2-2.8c-0.1-0.1-0.3-0.1-0.4-0.1C-470,212-470.7,214-470.4,215.7z M-483.3,216.9
			c0.3,0.2,0.9-0.5,1.4-1.5c0.5-1.1,0.6-1.8,0.2-1.8C-482.7,213.5-483.9,216.2-483.3,216.9z M-480.4,215.7c-0.5,1.2,1.2,1.8,2.4,0.7
			c0.6-0.6-0.1-2-1.1-2C-479.6,214.4-480.2,215-480.4,215.7z M-478.2,217.8c-0.6,0.4-1,1.8-0.8,3.3l0.4,2.6l1.1-2.6
			c1-2.3,1.1-3.5,0.4-3.6C-477.5,217.4-477.8,217.6-478.2,217.8z M-476.5,224.7c0.3,1.3,0.5,1.3,1.5-0.5c0.8-1.5,0.8-2.4,0.2-3
			c-0.2-0.2-0.4-0.3-0.6-0.3C-476.2,220.9-476.8,222.7-476.5,224.7z M-442.1,240.8c-1.5,0.4-1.1,1.1,2.7,4.7
			c2.4,2.3,5.1,5.6,6.1,7.5c1,1.8,2.3,3.3,3,3.3c1.8,0,12-3.6,14.3-5.1c1.5-0.9,2.3-1,3.2-0.3c1.4,1.1,2.4,0.4,2.4-1.6
			c0-0.8,1.5-2.6,3.3-4.2c3.1-2.6,3.2-2.9,1.8-4c-2.3-1.8-1.9-2.3,1.6-2.3c2.5,0,3.3,0.4,3.6,1.8c0.4,1.5,1,1.8,2.6,1.3
			c1.8-0.4,2.1-0.2,1.8,1.1c-0.2,1.1-1.2,1.7-3.2,1.8c-2.6,0.3-2.8,0.6-2.8,3c0,3.3-1.8,9.7-3.1,10.6c-1.9,1.3-4.3,0.5-6.8-2.1
			c-2.7-2.9-4.1-2.9-2.6,0.1c0.9,1.7,0.8,1.8-1.1,1.8c-1.6,0-2.3-0.5-2.5-1.9c-0.3-2-2.1-2.4-1.9-0.4c0.1,0.9-3.7,1.5-14.5,2.3
			c-8,0.6-16.4,1.4-18.6,1.8c-5.7,1-7,1-7,0.1c0-1.3,7-11.5,8.4-12.1c0.6-0.3,2.2-1.8,3.4-3.4l2.3-2.9l-4.7,1.4
			c-4.2,1.2-12.9,4.4-16.7,6c-1,0.4-1.6,0.3-1.6-0.4c0-1.9,21.6-10.6,26.5-10.6C-440,238.2-440,240.5-442.1,240.8z M-424.5,240.3
			c12.5,0.7,14.8,1.1,14.8,2.4c0,0.8-10.9,0.5-21.8-0.6c-2.5-0.3-4.6-0.9-4.6-1.4c0-0.4,1.5-0.6,4.5-0.6
			C-429.8,240-427.4,240.1-424.5,240.3z M-446.2,245.2c-0.4,0.5-0.2,0.9,0.4,0.9s1-0.4,1-0.9c0-0.6-0.2-0.9-0.4-0.9
			C-445.6,244.3-445.9,244.6-446.2,245.2z M-406.2,246.5c0,0.7,0.6,1.3,1.3,1.3c0.7,0,1.3-0.6,1.3-1.3c0-0.7-0.6-1.3-1.3-1.3
			C-405.6,245.2-406.2,245.8-406.2,246.5z M-483,248.3c0.7,1.3,0.9,1.3,1.9,0c0.9-1.1,1-1.7,0.2-2.5c-0.4-0.4-0.8-0.5-1.1-0.5
			C-483.1,245.3-483.9,246.8-483,248.3z M-486.3,250c0.4,0.3,0.9-0.4,0.9-1.3c0-1-0.4-1.8-0.9-1.8C-487.5,247-487.5,249.3-486.3,250
			z M-443.2,248.6c0,1.1,1,1.1,2.6,0.1c0.7-0.4,1.1-1.1,0.7-1.4c-0.3-0.2-0.5-0.3-0.9-0.3C-441.8,247-443.2,247.8-443.2,248.6z
			 M-390.4,255.8c2.3,4,1.2,4.8-1.1,0.8c-0.9-1.5-3-4.1-4.7-5.8c-1.7-1.7-2.8-3.3-2.6-3.6c0-0.1,0.1-0.1,0.2-0.1
			C-397.3,247-392.5,252.1-390.4,255.8z M-407.9,250.9c0,1.3,1.1,1.7,2,0.7c0.7-0.7-0.1-2-1.2-2C-407.6,249.6-408,250.2-407.9,250.9
			z M-481,253.5c0.4,0.4,1.1,0.2,1.3-0.4c0.7-1.1-0.1-2.6-1.3-2.6C-482.1,250.5-482.1,252.9-481,253.5z M-442.4,252.3
			c0,1.1,1.2,1,3.2-0.5c1-0.7,1.2-1.3,0.7-1.3C-440.1,250.5-442.3,251.4-442.4,252.3z M-454.1,253.1c-0.4,0.5,0,0.9,0.8,0.9
			c0.8,0,1.4-0.4,1.4-0.9c0-0.6-0.4-0.9-0.9-0.9C-453.3,252.2-453.8,252.5-454.1,253.1z M-447.6,253.6c-1.3,1.6-1,1.9,1.1,1.5
			c1.6-0.4,2-1.6,0.7-2.4c-0.1,0-0.1-0.1-0.2-0.1C-446.4,252.5-447.1,252.9-447.6,253.6z M-380.9,254.4c1.1,1,1.1,1.2-0.1,2.1
			c-1.6,1.1-1.1,2.3,0.7,1.6c1.5-0.6,3.1,5.6,3.3,12.8c0.2,5-0.2,6.2-2.7,10.7c-1.6,2.8-3.1,5.1-3.3,5.1c-0.2,0-0.3-1.1-0.3-2.5
			c0.1-3.2-1.3-11.9-2.2-13.2c-1-1.6-9-1.4-11.5,0.3c-2.8,1.8-4,1-4-3.3c0-3-0.4-3.6-2.4-4.4c-1.7-0.6-2.1-1.1-1.4-1.8
			c0.7-0.7,2.4-0.4,5.9,0.9c9.3,3.5,12.9,2.3,15-4.8c1-3.1,1.4-4.2,2-4.1C-381.5,253.7-381.2,253.8-380.9,254.4z M-437.9,254.9
			c0,0.5,0.4,0.9,0.9,0.9c0.4,0,0.9-0.4,0.9-0.9c0-0.5-0.4-0.9-0.9-0.9C-437.5,254-437.9,254.4-437.9,254.9z M-408,257.1
			c0.4,0.3,0.9-0.2,0.9-0.9s-0.4-1.3-0.9-1.3C-409.1,254.9-409.1,256.4-408,257.1z M-444.1,256.6c0,1.1,1.5,1.1,2.2-0.1
			c0.3-0.5,0.4-1.1,0.1-1.4c-0.1-0.1-0.2-0.2-0.3-0.2c-0.1,0-0.2,0-0.3,0C-443,255-444.1,255.8-444.1,256.6z M-452.8,257.5
			c0,1,1.1,1.1,2,0.3c0.4-0.4,0.4-0.9,0.1-1.3c-0.2-0.2-0.4-0.4-0.6-0.4C-452,256-452.9,256.6-452.8,257.5z M-491.1,259
			c1.7,8,4.2,14.7,7,18.2c3.9,5.1,4,5.9,0.4,4c-1-0.5-2.6-2.8-3.9-5.2c-2-4-5.7-15.8-5.7-18.3c0-0.8,0.3-1.1,0.6-1.1
			C-492.2,256.6-491.4,257.5-491.1,259z M-497.4,266.2c0.8,2.7,2.3,7,3.3,9.6c1.8,4.4,1.6,6.8-0.4,6.2c-0.5-0.2-2.3-4.4-4-9.3
			c-2.8-8.5-3.1-11.6-1.1-11.6C-499.2,261-498.2,263.5-497.4,266.2z M-407.6,264.2c9.4,4.5,0.2,15.8-15.8,19.4
			c-7.9,1.8-24,1.1-31.2-1.4c-6.8-2.4-12.8-7.7-12.3-10.7c0.3-1.6,1.4-2.5,5.7-4c10.6-3.8,25.3-5.9,37-5.8
			C-417.1,261.7-411.1,262.4-407.6,264.2z M-383.4,263.7c0,1,0.6,1.8,1.3,1.8c0.7,0,1.3-0.8,1.3-1.8c0-1-0.6-1.8-1.3-1.8
			C-382.7,261.9-383.4,262.7-383.4,263.7z M-398.7,265.4c-1.7,0-1.7,0.1-0.1,3.2c1.1,2,1.4,2.2,1.8,1c0.7-1.9,0-3.9-1.5-4.1
			C-398.5,265.4-398.6,265.4-398.7,265.4z M-386.6,266.6c-0.6,0.7,1.3,3.3,2.5,3.3c0.4,0,0.8-0.6,0.8-1.3c0-1.1-1.3-2.1-2.4-2.2
			C-386,266.3-386.3,266.4-386.6,266.6z M-392.2,267.2c0,0.5,0.4,0.9,0.9,0.9s0.9-0.4,0.9-0.9s-0.4-0.9-0.9-0.9
			S-392.2,266.7-392.2,267.2z M-380.7,268.4c0,0.8,0.4,1.4,0.9,1.4s0.9-0.4,0.9-0.9s-0.4-1.1-0.9-1.3c-0.1-0.1-0.3-0.1-0.4-0.1
			C-380.5,267.6-380.7,267.9-380.7,268.4z M-380.7,274.2c0,3.1,0.5,3.3,1.8,1s1.1-3.6-0.4-3.6C-380.3,271.6-380.7,272.5-380.7,274.2
			z M-402.1,288.1c-2.8,2-5.2,3.8-5.4,3.8c-0.2,0,3.6-4,8.3-8.8c4.7-4.8,8.8-8.8,9.2-8.8c0,0,0.1,0,0.2,0
			C-388,274.8-395.2,283-402.1,288.1z M-474.3,276.6c-0.9,0.8-0.7,2.9,0.2,2.9c0.4,0,1.1-0.6,1.3-1.3c0.4-1.1-0.1-1.9-0.8-1.9
			C-473.8,276.3-474.1,276.4-474.3,276.6z M-515.7,285.8c0,3.9,0.3,7.2,0.6,7.6c0.4,0.3,2.3-0.7,4.4-2.2c3.8-2.7,3.8-2.8,5-1
			c1.6,2.5,2.7,2.3,2.7-0.4c0-1.6,0.4-2.2,1.6-2.2c0.9,0,3.1-1,4.8-2.2c3.7-2.6,4.5-1.1,1.1,1.9c-3,2.6-8.3,13.4-9.4,19.2
			c-0.5,2.6-1.1,4.8-1.3,4.8c-0.3,0-1-1.3-1.7-3s-2.3-3.5-3.7-4.2c-1.4-0.7-2.6-2-2.7-3.1c-0.7-5.1-6.2-4.1-11.5,1.9l-3,3.4l0.5-4.8
			c0.3-2.6,1.1-5.4,1.8-6.2c0.7-0.8,1.4-2,1.7-2.8c0.5-1.3,8.5-14,8.9-14C-515.9,278.6-515.7,281.9-515.7,285.8z M-474,282.6
			c0.4,0.3,0.9,0.1,0.9-0.4c0-0.5-0.4-0.9-0.9-0.9C-475.1,281.3-475.1,281.9-474,282.6z M-484.8,283.3l4.1,1.1l1.6,6.6
			c0.8,3.7,1.6,6.8,1.6,6.9c0.2,0.6-1.7,0.1-2.1-0.7c-0.3-0.4-1.2-0.9-2.2-0.9c-1,0-2.3-1.1-3-2.5c-0.7-1.3-2.5-3.6-4-5
			c-3.1-2.8-3.3-4.1-1.5-5.7c0.4-0.4,1.1-0.6,1.8-0.6S-486.5,282.7-484.8,283.3z M-409.7,283.9c0.4,0.4,0.1,2.4-1.7,8.3
			c-0.4,1.3,0.7,2,5.3,3.5c1.7,0.5,3.4,0.6,4,0.2c0.4-0.4,2-1,3.3-1.3c1.8-0.4,2.5-0.2,2.5,0.8c0,0.7,0.6,1.3,1.4,1.3
			c1,0,1.2-0.5,1-1.7c-0.4-1.6,0.8-2.7,2.9-2.7c1.3,0,1,2.2-0.7,3.7c-3.2,2.8-15,8.9-20.9,10.6c-1,0.3-3.1,1.5-4.7,2.6
			c-2.8,2.1-2.9,2.1-1,3.2c1.4,0.8,1.7,1.3,1,2c-1.5,1.5-1.1,2.4,0.9,2.4c1.2,0,1.7-0.4,1.3-1.3c-0.8-1.9,0.9-5.7,2.5-5.7
			c0.7,0,1.3,0.4,1.3,0.9s0.4,0.9,1,0.9c0.5,0,0.8-0.6,0.5-1.3c-0.5-1.2,2.4-2.2,7.3-2.6c0.8-0.1,1.8-0.4,2.5-0.8
			c1.2-0.8,1.3-0.2,0.2,2c-0.6,1.2-0.5,1.8,0.4,2.1c1.8,0.7,1.7,2.4-0.1,2.4s-1.1,1.8,1.1,3c0.9,0.4,1.8,1.1,2,1.1
			c0.2,0.1-0.3,0.7-1.1,1.3c-0.9,0.6-1.5,1.5-1.4,1.9c0.4,2.6-0.4,2.7-3.3,0.4c-1.6-1.1-3-1.5-4.5-1.1c-1.7,0.4-2.6,0-3.9-1.6
			c-1.6-2-1.8-2-2.9-0.5c-1.1,1.4-2.2,1.5-8.4,1.1c-4-0.3-7.7-0.9-8.2-1.4c-0.5-0.5-1.5-1-2.1-1c-2.1,0-1.2-1.7,1.1-2.3
			c1.5-0.4,3.3,0,4.9,1c1.9,1.1,2.9,1.2,3.6,0.5c1.2-1.2,0-2.5-2.9-3c-1.5-0.3-1.1-0.4,1.2-0.5c2.9-0.2,3.3-0.4,2.3-1.5
			c-0.9-1.1-0.3-2.3,4-6.9c2.8-3.1,5.7-6,6.3-6.5c1-0.9,1-1.2-0.3-2.5c-1.7-1.7-6.7-4-10.5-4.8c-1.4-0.4-2.7-1.1-2.9-1.6
			c-0.3-1,12.8-5.5,15.1-5.3C-410,283.3-409.9,283.4-409.7,283.9z M-489,285.1c0,0.7,0.6,1.6,1.4,1.8c1.9,0.7,2.1,0.7,2.1-0.8
			c0-0.7-0.2-1.3-0.4-1.3c-0.2,0-1-0.3-1.8-0.5c-0.3-0.1-0.4-0.2-0.6-0.2C-488.6,284.1-489,284.4-489,285.1z M-449.2,287.8
			c4.8,2.2,5.8,2.4,9,1.5c1.9-0.5,3.7-0.8,3.9-0.6c0.7,0.7-1.8,2.6-4.9,3.8c-4,1.4-8.2,5.1-8.2,7.3c0,1.1,1.7,2.6,4.2,4.2
			c6.9,4.3,7.6,4.9,7,6.5c-0.7,1.8-3.3,1.9-12.5,0.2c-3.9-0.7-9.2-1.7-11.7-2.1c-5.5-1-6.3-1.4-6.3-3.3c0-1,0.5-1.1,1.6-0.7
			c3.3,1.5,6.3,1.5,7.7,0.1c0.8-0.8,2-1.4,2.9-1.4c0.9,0,2.3-0.6,3.2-1.3c1.7-1.2,1.7-1.4,0.2-6.2c-0.8-2.6-1.3-5.4-1.1-6.1
			c0.3-0.7,0-1.7-0.5-2.2c-1.1-1.1-1-1.6,0.1-1.5C-453.7,286-451.7,286.7-449.2,287.8z M-415.8,287.9c0,1.3,1.1,1.7,2,0.7
			c0.7-0.7-0.1-2-1.2-2C-415.5,286.6-415.9,287.1-415.8,287.9z M-482.8,287.3c0,0.5-0.6,1.1-1.4,1.1c-0.8,0-1.2,0.4-1.1,1.1
			c0.5,1.7,2.1,1.8,3.3,0.3c0.9-1.1,1-1.6,0.2-2.4c-0.4-0.4-0.6-0.6-0.8-0.6C-482.7,286.6-482.8,286.8-482.8,287.3z M-419.4,289.6
			c0.4,0.3,0.9-0.2,0.9-0.9s-0.4-1.3-0.9-1.3C-420.6,287.4-420.6,288.9-419.4,289.6z M-469.5,291.8c3,1.9,7.4,4.1,9.8,4.9
			c2.4,0.8,4.3,1.7,4.3,1.8c0,1.3-5.3-0.2-11.3-3.2c-6.8-3.3-9.8-5.7-8.8-6.7c0,0,0.1,0,0.2,0C-474.6,288.8-472.2,290-469.5,291.8z
			 M-520.6,290.1c0,0.4,0.4,0.9,0.9,0.9s0.9-0.4,0.9-0.9s-0.4-0.9-0.9-0.9S-520.6,289.6-520.6,290.1z M-489.9,293.2
			c1.1,2.1,2.6,4,3.1,4c0.9,0.1-10.7,5.9-12.1,6.1c-0.4,0-0.4-1.1-0.1-2.4c0.7-3.1,4.9-11,6.1-11.4
			C-492.4,289.3-491.1,291-489.9,293.2z M-447.6,291.8c0,0.4,0.4,0.9,0.9,0.9s0.9-0.4,0.9-0.9c0-0.4-0.4-0.9-0.9-0.9
			S-447.6,291.4-447.6,291.8z M-453.8,291.8c0,0.4,0.4,0.9,0.9,0.9c0.4,0,0.9-0.4,0.9-0.9c0-0.4-0.4-0.9-0.9-0.9
			C-453.3,291-453.8,291.4-453.8,291.8z M-482.8,293.6c0,0.4,0.6,0.9,1.3,0.9c0.7,0,1.3-0.4,1.3-0.9s-0.6-0.9-1.3-0.9
			C-482.2,292.7-482.8,293.2-482.8,293.6z M-451.1,294.3c0,0.4,0.4,0.8,1,1c0.6,0.2,0.9-0.2,0.7-0.7c-0.2-0.5-0.6-0.9-1-1
			C-450.8,293.5-451.1,293.7-451.1,294.3z M-525,297.6c0,1.6,2.3,1.6,2.9-0.1c0.6-1.5-0.1-4-1.1-4C-524.1,293.6-525,295.8-525,297.6
			z M-507.8,295.6c0.6,1.7,3,1.8,3,0.2c0-0.6-0.7-1.5-1.5-1.8c-0.4-0.2-0.8-0.3-1.1-0.3C-508.1,293.7-508.3,294.3-507.8,295.6z
			 M-520.6,294.8c0,0.8,0.4,1.4,0.9,1.4s0.9-0.4,0.9-0.9s-0.4-1.1-0.9-1.3c-0.1-0.1-0.3-0.1-0.4-0.1
			C-520.4,294-520.6,294.3-520.6,294.8z M-513.2,295.3c-0.2,0.1-0.4,0.4-0.7,0.8c-0.4,0.4-0.2,1.1,0.4,1.4c0.4,0.4,0.9,0,0.9-0.8
			C-512.7,295.8-512.9,295.4-513.2,295.3C-513.2,295.4-513.2,295.4-513.2,295.3z M-385.6,298.8c0.6,1.9,0.4,2.1-1.6,1.6
			c-1.2-0.4-2.5-0.2-2.8,0.4c-0.4,0.6-0.9,0.6-1.6-0.1c-0.7-0.8-0.4-1.6,1.6-3.3c1.2-1,2-1.5,2.6-1.5
			C-386.6,295.9-386.1,296.9-385.6,298.8z M-510.7,298.1c0.4,0.9,0.5,0.9,1.1,0c0.4-0.6,0.4-1.4,0.2-1.7c-0.3-0.2-0.4-0.3-0.6-0.3
			C-510.7,296.2-511,297.1-510.7,298.1z M-417.8,297.6c-0.7,0.6-3.6,1.8-6.5,2.5c-5.7,1.4-20.7,1.9-20.7,0.7c0-0.4,4.7-1,10.4-1.2
			c5.6-0.3,12.1-1.1,14.2-1.8c1.6-0.6,2.6-0.9,2.9-0.9C-417.1,296.8-417.2,297-417.8,297.6z M-407.9,300.2c0,2.4,2.4,3.1,3.2,0.9
			c0.6-1.6-0.3-3.1-1.9-3.1C-407.5,298-408,298.9-407.9,300.2z M-380.7,300.2c0,0.8-0.4,1.1-0.9,0.9c-0.5-0.4-0.9-1-0.9-1.4
			s0.4-0.8,0.9-0.8C-381.1,298.9-380.7,299.4-380.7,300.2z M-506.6,299.9c-1.4,0.4-1.4,3.5,0,4c0.6,0.3,1.1-0.4,1.1-1.9
			c0-1.3-0.4-2-0.9-2C-506.6,299.9-506.6,299.9-506.6,299.9z M-512.3,300c-0.4,0.3-0.4,1.1-0.1,1.7c0.3,0.7,0.5,0.5,0.5-0.5
			c0-0.7-0.1-1.1-0.3-1.2C-512.2,299.8-512.3,299.8-512.3,300z M-412.5,300.2c-1.1,0.7-1.1,3.1,0,3.1c0.5,0,1.1-0.4,1.4-0.9
			c0.6-1-0.1-2.4-1-2.3C-412.1,300.1-412.3,300.1-412.5,300.2z M-381.8,308.9c3.9,3.5,9,10.6,9,12.5c0,2.7-2.4,0.8-5.5-4.3
			c-2.6-4.2-4.7-6.2-9.1-9c-8.3-5.2-8.6-5.4-7.7-6c0.2-0.1,0.4-0.1,0.8-0.1C-391.7,302.3-385.1,305.8-381.8,308.9z M-519,313.3
			c0.1,6.8,0.4,14.5,0.6,17.2l0.5,4.8l-1.9-2.2c-1.9-2.1-1.9-2.6-1.4-14.5c0.5-9.9,1.1-15.3,1.6-15.3
			C-519.2,303.3-519,306.5-519,313.3z M-483.7,308.8c-4.7,1.6-10.1,4-12.3,5.2c-4.8,2.7-5.3,2.8-5.3,1.1c0-2.6,14-9,23.2-10.6
			c1.1-0.2,2-0.3,2.6-0.3C-473.1,304.3-476.5,306.4-483.7,308.8z M-455.3,306.1c-0.2,1.1,0.4,1.6,1.9,1.6c1.2,0,2.4-0.4,2.6-0.7
			c0.3-0.4,0.1-1.2-0.3-1.8c-0.4-0.6-1-0.9-1.7-0.9C-453.8,304.2-455.1,305-455.3,306.1z M-448.7,304.7v2.4c0,1.3,0.4,2.4,0.7,2.4
			c0.4,0,1.5,0.2,2.5,0.4c1,0.3,2.4,0,3.1-0.4c1.1-0.7,1.1-0.9-0.4-0.9c-0.9,0-2.6-0.9-3.7-1.9l-2-1.9H-448.7z M-459,305.8
			c0,0.5,0.4,1,0.9,1s0.9-0.3,0.9-0.4c0-0.2-0.4-0.6-0.9-0.9c-0.1-0.1-0.3-0.2-0.4-0.2C-458.8,305.3-459,305.5-459,305.8z
			 M-471.9,308.8c-0.5,2.2,0.7,3.1,1.8,1.3c0.3-0.4,1.1-0.9,1.8-0.9c1,0,1.1,0.4,0.3,1.8c-1.2,2.4-0.5,3,1.9,1.7
			c1.5-0.8,2.1-0.8,2.4-0.1c0.2,0.7,2.1,0.8,6.3,0.4c5.9-0.6,6.2-0.5,7.1,1.7c1.3,3,0.4,5-2.3,5c-2.5,0-2.8-1.1-0.9-2.6
			c0.7-0.6,1.3-1.4,1.3-1.8c0-1.6-1.8-0.6-5.1,2.8c-2.6,2.7-4.3,3.8-7.1,4.1c-2,0.3-6.2,1.8-9.2,3.4c-4.8,2.6-5.5,2.7-5.7,1.4
			c-0.2-0.8-0.6-2.6-1.1-3.9c-0.7-2-0.4-2.8,1.9-5.5c1.5-1.7,3.3-3.1,4-3.1c1.1,0,1.1-0.4-0.2-1.7c-1.2-1.4-1.3-2-0.4-4
			c0.7-1.6,1.7-2.4,2.3-2.4C-471.8,306.7-471.4,307.5-471.9,308.8z M-364.7,311.5c2.5,3.2,3.3,5,3,6.2c-0.3,1.1,0.1,2.4,1.1,3.4
			c2.4,2.6,2,17.3-0.4,22.8c-1,2.2-1.8,4.8-1.8,5.8c0,3.1-2.8,4.2-3.9,1.6c-0.9-2.4-0.6-3.9,0.8-3.9c0.9,0,1.3-0.9,1.3-2.6
			c0-1.4,0.9-3.6,1.8-4.8c1.8-2.3,1.8-2.3,0.1-2.3c-1.2,0-1.8,0.7-2.3,3c-0.4,1.7-0.9,3.3-1.4,3.6c-0.5,0.3-2.3-1.5-4-4l-3.2-4.5
			l-2.6,2.3c-3.6,3-12.8,7.6-14.6,7.2c-0.9-0.2-1.5-0.9-1.5-1.6c0-1.4,0.6-1.4,3.4-0.4c1.6,0.6,1.6,0.4-0.4-2.6c-1.8-2.9-2-4-1.6-9
			c0.4-5,0.4-5.6-1.1-5.6c-1.8,0-3.7-1.7-3.7-3.3c0-1.4,1.8-1.5,5.6-0.4c2.8,0.9,19.9,4.5,21,4.5c0.4,0,0.4-2.3,0.1-5.1
			c-0.4-2.8-0.6-6.2-0.7-7.7c-0.1-1.5-0.9-3.3-1.8-4.2c-1.5-1.3-1.6-1.6-0.4-2.4c0.7-0.4,1.3-0.8,1.9-0.8
			C-368.7,306.9-367.3,308.1-364.7,311.5z M-404.5,309.9c0.4,0.3,0.9,0.1,0.9-0.4c0-0.5-0.4-0.9-0.9-0.9
			C-405.5,308.6-405.5,309.2-404.5,309.9z M-404.5,313.2c1,0.3,2,0.1,2.3-0.4s-0.5-0.8-1.8-0.8
			C-406.7,312.1-406.9,312.5-404.5,313.2z M-412.4,313.4c0.5,0.7,1.8,1.3,2.8,1.3c1.5,0,1.6-0.3,0.7-1.3c-0.5-0.7-1.8-1.3-2.8-1.3
			C-413.2,312.1-413.3,312.3-412.4,313.4z M-364.9,315.5c0,0.5,0.4,1,0.9,1s0.9-0.3,0.9-0.4c0-0.2-0.4-0.6-0.9-0.9
			c-0.1-0.1-0.3-0.2-0.4-0.2C-364.6,315-364.9,315.2-364.9,315.5z M-471,318.1c0.9,1.5,3.1,1.2,3.7-0.4c0.4-0.8,0.2-1.8-0.3-2.2
			c-0.2-0.2-0.4-0.3-0.8-0.3C-469.7,315.2-471.6,317-471,318.1z M-404.5,317.3c0,0.5,0.9,0.9,1.9,0.9c1.7,0,1.8-0.2,0.7-0.9
			c-0.8-0.5-1.5-0.8-1.9-0.8S-404.5,316.7-404.5,317.3z M-504.5,318.4c0.3,0.8,0.5,2.7,0.5,4.2c0,1.8,1.2,4.7,3.5,8
			c1.9,2.8,3.5,5.6,3.5,6.2s1,2.5,2.1,4.2l2.1,3.2l-2.3,0.6c-1.6,0.4-3,0-4.7-1.2c-1.8-1.3-3.8-1.8-7.1-1.8c-2.8,0-5.5-0.6-6.6-1.4
			c-2.2-1.6-2.2-1.4-1.9,6.9c0.1,2.4-0.3,4.2-0.7,4.2c-0.5,0-1.9-1.3-3.2-3c-1.2-1.7-2.3-3.6-2.3-4.3s-0.4-1.4-0.7-1.6
			c-1-0.4-5.9-10.8-7.7-16.3c-0.9-2.6-1.2-5.4-0.9-6.5c0.6-1.8,0.7-1.8,1.8-0.3c0.6,0.9,1,2.4,0.7,3.3c-0.3,0.9,0.3,2.6,1.3,3.9
			c1.1,1.2,1.8,3.4,1.8,4.8c0,2.2,0.4,2.6,2.6,2.6c1.4,0,3,0.6,3.6,1.3c1.7,1.9,2.6,1.6,2.6-1.1c0-3.3,5.6-13,8.7-15.2
			c1.1-0.8,1.8-1.1,2.2-1.2C-504.9,317.8-504.7,318.1-504.5,318.4z M-474.2,320.7c0.6,0.2,1.1-0.3,1.1-1.1s-0.6-1.4-1.4-1.4
			C-476,318.2-475.8,320.1-474.2,320.7z M-498.7,318.7c0.6,1.5,4.9,3.7,7.5,3.8c1.1,0.1,3.3,1.2,5,2.6c2.7,2.3,2.9,2.8,2,4.8
			c-0.7,1.6-2,2.4-4.2,2.8c-1.8,0.4-3.4,1.1-3.7,1.8c-0.7,1.8-2.3,1.4-1.8-0.5c0.3-1.2-0.1-1.8-1.5-1.9c-1.2-0.2-2-1-2.2-2.2
			c-0.1-1.1-0.6-1.9-1.1-1.9s-0.8-0.9-0.8-1.8s-0.5-2.7-1.1-4c-0.8-1.8-0.8-2.5,0.1-3.3c0.4-0.4,0.7-0.6,1-0.6
			C-499.2,318.2-499,318.4-498.7,318.7z M-462,319.1c-0.4,0.4-0.2,0.9,0.4,0.9s1-0.4,1-0.9c0-0.6-0.2-0.9-0.4-0.9
			C-461.4,318.2-461.8,318.5-462,319.1z M-470.9,321.3c-1.4,1.1-1.5,1.3-0.3,1.3c0.8,0,1.9-0.6,2.6-1.3c0.6-0.9,0.6-1.3,0.2-1.3
			S-469.9,320.4-470.9,321.3z M-395,329.9c1.8,1.8,2,2.7,1.5,6c-0.4,2.1-1.4,5.5-2.3,7.7l-1.7,3.9l-13-0.6c-20.9-1-48.7,2-58.4,6.4
			c-2.1,1-4.2,1.5-4.7,1.2c-0.5-0.3-2.8-1.9-5.3-3.6c-7.2-5.1-12.8-9.9-12.8-11.1c0-2.8,13.9-10.5,24.6-13.6
			c12.2-3.6,21.1-4.8,36.5-4.8C-410.6,321.4-400.6,323.8-395,329.9z M-497.8,323.1c-0.6,0.4-0.6,0.9,0.1,1.8c1.3,1.7,2.6,1.6,2.6,0
			c0-1.1-0.8-2-1.8-2C-497.1,322.8-497.5,322.9-497.8,323.1z M-364,324.8c0.4,0.3,0.9,0.1,0.9-0.4c0-0.5-0.4-0.9-0.9-0.9
			C-365.1,323.5-365.1,324.1-364,324.8z M-476.6,324.4c0,0.4,0.4,0.9,0.9,0.9s0.9-0.4,0.9-0.9c0-0.4-0.4-0.9-0.9-0.9
			S-476.6,324-476.6,324.4z M-494.2,327.9c0,1.8,1.3,2.4,2.2,0.9c1-1.6,2-1,1.6,0.9c-0.6,2.5,1.1,2.1,2.2-0.4c1.1-2.5,0.9-2.7-3.1-3
			c-0.3,0-0.5,0-0.8,0C-493.8,326.2-494.2,326.6-494.2,327.9z M-381.5,329.4c0.2,0.4,1.3,0.5,2.5,0.3c2.6-0.6,3.4-2.5,1.4-3.3
			c-0.1,0-0.2-0.1-0.3-0.1c-0.1,0-0.2,0-0.3,0C-379.7,326.3-381.9,328.2-381.5,329.4z M-363.6,328.1c-1.4,1.1-1.5,1.5-0.5,2.6
			c0.7,0.8,1,1.8,0.6,2.3c-0.4,0.5,0,1,0.8,1c1.1,0,1.3-0.5,0.9-2.2c-0.4-1.3-0.2-2.2,0.4-2.2c0.5,0,1-0.6,1-1.3
			c0-0.8-0.2-1.2-0.7-1.2C-361.7,327-362.5,327.5-363.6,328.1z M-388.5,330.6c-1.1,2.2-0.3,3.2,2.5,2.7c2.2-0.4,2.3-0.5,1.1-2.9
			c-0.5-1-1.1-1.5-1.6-1.6c-0.1,0-0.2,0-0.3,0C-387.5,328.9-388,329.5-388.5,330.6z M-370,329.2c-0.8,0.4-2.9,1-4.6,1.3l-3.1,0.6
			l2.5,1.1c2.6,1.1,2.6,1.1,5.2,0.4c0.9-0.3,1.6-1.2,1.6-2.2c0-0.9-0.2-1.3-0.5-1.4C-369.2,329-369.5,329.1-370,329.2z
			 M-367.5,331.4c0,0.4,0.4,0.9,0.9,0.9s0.9-0.4,0.9-0.9s-0.4-0.9-0.9-0.9S-367.5,331-367.5,331.4z M-509.9,331.4
			c-1.1,0-2.3,1.7-1.7,2.3c0.2,0.2,0.9-0.3,1.5-1c0.6-0.7,0.7-1.2,0.4-1.3C-509.7,331.4-509.8,331.4-509.9,331.4z M-380.7,334.1
			c0,1.3,0.6,1.8,2.2,1.8c1.3,0,2.2-0.5,2.2-1.2c0-1.1-1.8-2.3-3.6-2.3C-380.4,332.3-380.7,333.1-380.7,334.1z M-507.4,338.1
			c0.7,1.5,0.7,1.4,0.8-0.7c0-1.4-0.4-2.5-0.8-2.5C-508.4,335-508.4,335.6-507.4,338.1z M-504.4,335.8c-1,1.6,1.1,3,2.5,1.8
			c0.9-0.7,1.4-0.7,2.2,0.1c0.6,0.6,1.1,0.7,1.1,0.2c0-1.7-2.1-2.9-3.9-2.9C-503.3,335-504,335.2-504.4,335.8z M-385.8,338.3
			c-0.3,2.1,0,2.8,1.1,2.8c1.1,0,1.4-0.9,1.4-3.2c0-1.9-0.5-2.9-1.1-2.8C-385,335.2-385.6,336.3-385.8,338.3z M-369.3,337.1
			c0,0.8,0.4,1.4,0.9,1.4s0.9-0.4,0.9-0.9s-0.4-1.1-0.9-1.3c-0.1-0.1-0.3-0.1-0.4-0.1C-369,336.2-369.3,336.5-369.3,337.1z
			 M-511.8,338c0.4,0.3,0.9,0.1,0.9-0.4s-0.4-0.9-0.9-0.9C-512.9,336.7-512.9,337.3-511.8,338z M-381.1,338
			c-0.5,1.5,0.8,1.8,1.6,0.5c0.3-0.4,0.2-1.1-0.3-1.3c0,0-0.1-0.1-0.2-0.1C-380.3,337-380.8,337.4-381.1,338z M-374.8,343.4
			c-0.5,4.9-4,12.2-8.1,16.9c-4.8,5.6-11,9-10.9,6.1c0-0.6,1.9-2.5,4.3-4c5.5-3.7,8.4-7.5,12.1-15.9c1.6-3.5,2.3-5.1,2.6-5.2l0,0
			C-374.6,341.3-374.6,342.1-374.8,343.4z M-525,343.5c0,0.6-0.8,2.6-1.7,4.4s-2.2,5-2.8,7.2c-1.1,3.4-1.2,3.6-1.5,1.6
			c-0.1-1.3,0.2-4,0.7-5.9c0.9-3.1,4.2-8,5.1-7.7C-525.1,343.1-525,343.2-525,343.5z M-509.1,346.6c1.1,1.6,4.3,5.5,7.1,8.7
			s5.1,6,5.1,6.3c0,1.4-1.8,0.3-5.9-3.8c-4.1-4.2-9.7-12.9-8.8-13.8c0.1,0,0.1,0,0.2,0C-511,344.1-510.1,345.2-509.1,346.6z
			 M-537.9,350.7c-0.5,5.4-0.4,5.8,1.7,7.8c1.2,1.1,2.3,2.9,2.3,4s0.4,2.4,0.8,3.1c1,1.5-1.9,6.8-4.5,8.1c-0.9,0.5-2.5,2.6-3.3,4.6
			s-1.7,3.1-1.7,2.5c0-0.7-0.5-1-1.3-0.7c-0.8,0.4-1.3,0-1.3-0.8s-0.4-1.1-1.1-0.7c-0.7,0.4-0.3,1.2,1.3,2.6
			c2.7,2.4,2.8,2.5,0.8,5.2c-2.2,3-3.2,2.6-2.5-1.1c0.4-2.1,0.3-2.9-0.4-2.6c-1.1,0.6-1.2-7.7-0.4-15.1c0.4-3.8,0.9-4.6,2.3-4.6
			c1.5,0,1.7-0.4,1.3-2.8c-0.3-2,0.3-4.3,2.2-8.1c1.9-3.9,3.1-5.9,3.6-6.1c0.1,0,0.1,0,0.2,0C-537.4,346.2-537.4,347.9-537.9,350.7z
			 M-489.2,348.2c0.8,1.2,2.1,2.5,3.1,2.7c2.2,0.7,2.1,3.1-0.1,3.1c-1.1,0-1.8,0.5-1.8,1.7c0,1-0.4,2-0.9,2.3
			c-0.5,0.3-0.6,1-0.4,1.4c0.4,0.5,1.1,0.4,2-0.4c2.2-1.8,7.9-4.2,9.9-4.2c0.9,0,2.1,0.9,2.7,1.9c1.5,2.7,3.4,4,5.4,3.5
			c1-0.3,2.1,0.3,2.8,1.2c0.7,1,1.5,1.8,1.9,1.8c2,0.3,3.8,1.7,3.8,3.2c0,1.4,2.9,3.4,4.9,3.4c1.2,0,0-1.9-1.8-2.8
			c-1.2-0.5-2.2-1.7-2.2-2.5s-0.4-1.8-1.1-2.5c-0.9-0.8-0.8-1.3,0-2.1c0.8-0.8,1.3-0.7,2.6,0.5c1.5,1.5,1.5,1.6-0.1,1
			c-1.4-0.5-1.5-0.4-0.4,1.2c1.6,2.5,2.4,2.7,11.3,3.3l7.7,0.5l-0.1,3.6c-0.1,2.6,0.3,3.6,1.2,3.6c1,0,1.3-1,1.3-3.3
			c0-3.3,0-3.3,2.9-2.7c2,0.4,3.2,0.2,3.7-0.7c0.6-1,1.1-1,2.4-0.3c1.1,0.7,1.8,0.6,2.5-0.4c0.8-1.1,1.3-1,3.5,1.1l2.6,2.4l-2.7-0.5
			c-2.4-0.4-3.4,0-6.8,2.8c-2.2,1.8-4.4,4.2-4.9,5.4c-0.5,1.1-1.4,2.3-2,2.5c-6.7,2.4-6.5,2.2-4.6,3.8c1,0.8,2,2.1,2.4,3
			c0.6,1.7,2,2,2.8,0.7c0.5-0.8,5.9,0.7,9.1,2.6c1.2,0.7,0.6,1-2.6,1c-2.4,0-4.2-0.4-4.2-0.9c0-0.5-0.4-0.6-1.1-0.3
			c-1.2,0.8-29.3,1.4-31.7,0.7c-3.2-0.9-0.4-2.3,3.3-1.7c3.3,0.5,4,0.4,4.9-1.2c0.6-1,2-1.8,3.2-1.8s2.9-0.6,4-1.3l2-1.3l-2.7-3
			c-1.5-1.6-3.7-3.1-4.9-3.3c-1.2-0.2-2.2-0.9-2.2-1.5c0-0.6-1.4-2.7-3.2-4.6l-3.2-3.4l-11.3,0.8c-6.2,0.4-12.2,0.5-13.3,0.1
			c-3.1-1.1-5.2-11.4-2.3-11.4c1.5,0,1.4-1.3-0.2-2.6c-1.8-1.5-1.7-2.6,0.2-2.7c1.3,0,1.2-0.3-0.4-1.4c-1.1-0.7-1.9-1.8-1.9-2.6
			c0-0.9,0.6-1.3,1.5-1.2C-491.6,346.5-490.2,347.2-489.2,348.2z M-393.8,349.6c2.1,0.6,2.3,2.6,0.5,5.9c-0.6,1.3-1,3.1-0.8,4
			c0.2,0.9-0.4,3.2-1.4,5.1c-1,1.9-1.8,3.9-1.8,4.2c0,0.4,1.9,0.7,4.4,0.7c3.4,0,4.4,0.3,4.4,1.4c0,1.2,0.3,1.2,1.3,0.4
			c1.1-1,1.3-0.9,1.3,0.4c0,0.8,0.4,1.3,1.1,1.1c0.6-0.3,1-0.8,0.9-1.3c-0.3-1.3,3.3-2.3,4.4-1.2c0.6,0.6,0,1.3-1.8,2.3
			c-1.5,0.8-2.7,2-2.7,2.7s-0.6,1.3-1.3,1.3s-1.3-0.4-1.3-1s-0.7-0.8-1.5-0.4c-1.6,0.6-4.7-1.8-4.7-3.7c0-0.7-0.4-1.1-1.1-0.9
			c-1.6,0.5-2,2.5-0.6,2.5c1.4,0,1.7,4.6,0.4,5.5c-0.4,0.4-0.6,1-0.2,1.3s1,0.3,1.3-0.3c0.4-0.5,1.3-1.1,2.2-1.5
			c3.2-1.2,1,1.6-2.6,3.2c-1.8,0.9-4.8,2.3-6.5,3.2c-4.5,2.3-5.5,2.1-3.1-0.5c1.2-1.3,2.2-2.8,2.2-3.4c0-0.6,0.6-1.6,1.3-2.2
			c1.9-1.6,3.3-7.2,1.9-8.1c-0.5-0.4-1.5-0.4-2.1-0.3c-1.3,0.4-2.4-1.1-1.1-1.8c1.1-0.7,1.1-2.2,0.1-2.2c-0.5,0-1.1,0.8-1.4,1.8
			c-0.7,2.2-6.4,2.6-7.2,0.4c-0.7-1.8-3-1.7-5.3,0.5c-2,1.8-3.9,1.6-3.9-0.5c0-1.5,4.5-4.4,6.3-4.1c0.8,0.1,1.8-0.5,2.4-1.5
			c0.5-1,2.2-2.1,3.6-2.6c1.4-0.5,2.6-1.6,2.6-2.3c0-0.7,0.9-1.4,1.9-1.6c1.1-0.2,1.8-0.8,1.8-1.3c-0.1-0.5,0.8-2.1,1.9-3.3
			c1.1-1.2,2-1.8,3-1.8C-394.6,349.3-394.3,349.3-393.8,349.6z M-422.8,352.4c0.6,1.9,1.8,2.8,4.4,3.6c3.9,1.1,5.1,2.9,3.3,5
			c-0.9,1.1-2.1,1.3-4.6,0.9c-2.6-0.4-3.4-0.3-3.9,0.9s-1.3,1.3-4,0.9c-2.6-0.4-3.5-0.2-4,0.9c-0.4,1-1.1,1.1-2.4,0.8
			c-1.1-0.4-2.3-0.5-2.7-0.5s-2,0.2-3.4,0.3c-1.5,0.2-2.7-0.3-3-1c-0.4-0.9,0.3-1.1,2.2-0.6c2.6,0.5,2.7,0.3,5.6-5.5
			c2.4-4.7,3.4-6,5.2-6.2c1.1-0.1,2.6-0.6,3-1.1c0.6-0.5,1.2-0.8,1.8-0.8C-424.3,349.9-423.4,350.8-422.8,352.4z M-396.6,354.1
			c0,0.4,0.4,0.8,1,1c0.6,0.2,0.9-0.2,0.7-0.7s-0.6-0.9-1-1C-396.2,353.4-396.6,353.5-396.6,354.1z M-430,355.6
			c0.4,0.3,0.9-0.2,0.9-0.9s-0.4-1.3-0.9-1.3C-431.1,353.4-431.1,354.9-430,355.6z M-541.8,355.6c0,0.8,0.4,1.4,0.9,1.4
			s0.9-0.4,0.9-0.9s-0.4-1.1-0.9-1.3c-0.1-0.1-0.3-0.1-0.4-0.1C-541.5,354.7-541.8,355-541.8,355.6z M-425.1,357
			c0.7,1.1,2.2,1.1,2.2,0c0-0.4-0.6-0.9-1.4-0.9S-425.4,356.4-425.1,357z M-431.8,358.2c0,0.8,0.4,1.4,0.9,1.4
			c0.4,0,0.9-0.4,0.9-0.9s-0.4-1.1-0.9-1.3c-0.1-0.1-0.3-0.1-0.4-0.1C-431.5,357.3-431.8,357.7-431.8,358.2z M-418.6,358.7
			c0,0.4,0.4,0.9,0.9,0.9s0.9-0.4,0.9-0.9s-0.4-0.9-0.9-0.9S-418.6,358.3-418.6,358.7z M-397.1,357.8c-0.2,0.1-0.4,0.4-0.7,0.8
			c-0.4,0.4-0.2,1.1,0.4,1.4c0.4,0.4,0.9,0,0.9-0.8C-396.6,358.3-396.7,357.8-397.1,357.8C-397,357.8-397,357.8-397.1,357.8z
			 M-400.6,357.8c-0.2,0.1-0.4,0.4-0.7,0.8c-0.4,0.4-0.2,1.1,0.4,1.4c0.4,0.4,0.9,0,0.9-0.8C-400.1,358.3-400.3,357.8-400.6,357.8
			C-400.5,357.8-400.5,357.8-400.6,357.8z M-480.3,358.3c-4.4,0.7-4.6,0.8-3.9,2.6c0.6,1.6,2.9,1.8,3.7,0.5c0.4-0.4,1.3-0.9,2.3-0.9
			c1,0,1.7-0.6,1.7-1.4c0-0.7-0.3-1.1-1.2-1.1C-478.4,358-479.2,358.1-480.3,358.3z M-538.2,359.7c-1.4,2.2-0.9,4.3,1,4.3
			c1,0,1.8-0.4,1.8-1c0-0.5-0.4-1.8-1-2.7c-0.4-0.8-0.7-1.1-1-1.2C-537.7,359-538,359.2-538.2,359.7z M-426.8,359.4
			c-2.8,0.5-2.8,1.9,0,1.9c1.2,0,2.2-0.5,2.2-1.2c0-0.5-0.3-0.8-0.9-0.9C-425.9,359.2-426.3,359.2-426.8,359.4z M-542.5,361.2
			c-0.2,0.6,0.3,1.1,1.1,1.1s1.4-0.6,1.4-1.4c0-0.6-0.3-1-0.6-1.1c-0.1,0-0.2,0-0.3,0C-541.4,359.8-542.1,360.3-542.5,361.2z
			 M-515.4,360.8c0,0.6,0.7,1.8,1.6,2.6c1.1,1,1.6,2.5,1.4,4.6c-0.4,4.5-2.4,12.1-3.3,12.8c-0.5,0.4-0.5,1.4,0.2,2.9
			c1.3,3.1,1.3,6-0.1,5.5c-0.5-0.2-2.3-2.1-3.7-4.3c-1.4-2.2-4.1-5.8-6.1-8.1c-2.8-3.3-3.4-4.8-3.5-7.9c-0.1-3.5,0.2-4,3.7-6.2
			c2.1-1.2,4.3-2.1,5-1.8c0.7,0.3,2.1,0,3.1-0.5c0.8-0.4,1.2-0.5,1.5-0.5C-515.4,360-515.4,360.2-515.4,360.8z M-476.1,362.3
			c0.3,0.4,0,0.9-0.7,0.9s-1.9,0.7-2.8,1.7c-1.5,1.6-1.5,1.7,1.1,1.6c1.8-0.1,2.7-0.5,2.7-1.4c0-1,0.3-1.1,1.3-0.2
			c1.1,0.9,1.5,0.8,1.9-0.4c0.3-0.9,0-1.8-0.7-2.3c-0.9-0.5-1.8-0.8-2.4-0.8C-476.2,361.4-476.5,361.7-476.1,362.3z M-362.4,363.6
			c2.5,1.1,4.8,2.6,5.1,3.3c0.5,1,0.4,1-0.5,0.1c-0.6-0.5-2.7-1.1-4.6-1.1c-1.8,0-4.1-0.4-5.1-1c-1.5-0.8-1.6-1.1-0.5-2.2
			c0.4-0.4,0.7-0.7,1.2-0.7c0.1,0,0.3,0,0.4,0C-365.7,362.1-364.4,362.5-362.4,363.6z M-453.3,364.1c-0.4,0.6-0.9,0.5-1.3-0.3
			c-0.4-0.6-0.5-1.3-0.4-1.5c0.1-0.1,0.2-0.2,0.3-0.2c0.1,0,0.2,0,0.3,0C-453.8,362.3-453,363.5-453.3,364.1z M-398.3,364.4
			c0.4,0.3,0.9-0.2,0.9-0.9c0-0.7-0.4-1.3-0.9-1.3C-399.5,362.2-399.5,363.7-398.3,364.4z M-470.5,364.4c0,1.3,1,1.7,2,0.7
			c1.1-1,0.7-2-0.7-2C-469.9,363.1-470.5,363.6-470.5,364.4z M-489,364c0,0.4,0.4,0.9,0.9,0.9s0.9-0.4,0.9-0.9s-0.4-0.9-0.9-0.9
			S-489,363.6-489,364z M-517.1,363.9c0,0.4,0.4,1.1,0.9,1.4s0.9,0.1,0.9-0.4c0-0.5-0.4-1.1-0.9-1.4c-0.1-0.1-0.3-0.2-0.4-0.2
			C-516.9,363.3-517.1,363.5-517.1,363.9z M-483.7,363.6c-1.1,0.7-1.1,2.2,0,2.2c0.4,0,0.9-0.6,0.9-1.4c0-0.6-0.2-1-0.5-1
			C-483.4,363.4-483.5,363.5-483.7,363.6z M-544,365.8c-2.1,2-2.9,5.2-1.2,5.2c0.4,0,0.9-0.6,0.9-1.3c0-0.7,0.6-1.3,1.3-1.3
			c1.6,0,2.6-2.1,1.7-3.5c-0.1-0.2-0.2-0.4-0.4-0.4c-0.1,0-0.1,0-0.2,0C-542.4,364.5-543.1,365-544,365.8z M-504.3,365.7
			c0.3,0.4,2.4,0.9,4.7,0.9c5.8,0,8.1,1.5,11,7c2.1,4.1,2.3,4.8,1.1,5.1c-1.1,0.3-1.1,0.6-0.4,1.6c0.5,0.7,1.3,1.1,1.6,0.9
			c0.3-0.2,2.1,1,4,2.6c3,2.6,3.2,3,1.6,3c-1,0.1-2.4-0.6-3-1.3c-0.6-0.7-2.7-2.1-4.6-3.1c-1.8-1-3.6-2.4-3.9-3
			c-0.3-0.6-1.8-2-3.4-3c-3.5-2-3.9-4.1-1.1-5.3c1.6-0.7,1.3-0.8-1.9-0.9c-3.7,0-9.8-2.9-9.8-4.7c0-0.5,0.9-0.8,1.8-0.7
			C-505.7,364.9-504.6,365.2-504.3,365.7z M-366.6,367c8.4,4.6,19.3,16.8,19.3,21.8c0,2.1,1.7,2.6,4,1c1.6-1,2.1-2,1.8-3.2
			c-0.9-3.1,1-1.7,2.9,2.4c1.6,3.3,1.8,4.5,1,6.2c-0.8,1.7-0.7,2.2,0.4,2.8c0.8,0.4,1.6,2.5,1.8,4.6c0.2,2.1,0.7,4.2,1.1,4.8
			c1.1,1.3,0.3,5.5-1.3,6.9c-0.7,0.5-1.2,2.1-1.2,3.5c0,1.4-0.4,2.6-0.9,2.6c-0.5,0-0.9-0.7-0.9-1.6c0-0.9-0.6-2.8-1.3-4.3
			c-1.1-2.1-1.1-3.2-0.4-4.9c0.6-1.3,1.5-2,2.2-1.8c1.8,0.7,1.5-2.7-0.6-6.3c-1.8-3.2-5-4.6-4-1.8c0.3,0.8,0.5,1.8,0.5,2.2
			s0.4,0.7,1.1,0.6c1.8-0.4,1.9,3.4,0.2,4.1c-2,0.8-3-0.4-3.3-4.1c-0.1-1.8-0.4-3.4-0.8-3.8c-1-0.9-3.3,1.4-3.3,3.3
			c0,1.4-0.4,1.5-2.8,1.1c-1.6-0.4-3.3-1.1-3.8-1.8c-1.1-1.5-4-1.1-4.6,0.5c-0.3,0.9,0.2,1.1,1.5,0.6c3-1,2.2,1.6-1.5,4.6
			c-6.7,5.4-9.9,4.3-9.9-3.3c0-6.1-5.8-18.6-8.3-17.8c-1.4,0.4-1.6,0.2-1.1-1.8c0.5-2.1,0.4-2.2-1.5-1.8c-1.8,0.4-2.2,0.1-2.7-1.9
			c-0.7-2.8,1.4-6.2,4.8-8c1.2-0.5,2.6-1.7,3.3-2.6c1.1-1.3,1.1-1.2,1.1,1c0,1.4,0.7,3.9,1.5,5.5c1.4,3,1.4,3.1-1.1,5l-2.5,1.9
			l1.9,1.9c1.1,1.1,1.9,2.6,1.9,3.5c0,2.5,1.7,3.8,3.7,2.7c0.9-0.5,3.6-1.4,5.9-2c3.7-1,4.5-0.9,6.3,0.4c1.1,0.9,3.2,1.8,4.6,2.2
			l2.6,0.6l-2.5-4.6c-3.7-6.7-9.9-14.1-15-17.5c-4.2-2.9-5.7-4.8-4.2-4.8C-369.7,365.7-368.4,366.1-366.6,367z M-539.1,366.6
			c-0.5,0-0.9,0.5-0.9,1.2c0,0.6-0.6,1.7-1.3,2.3c-0.7,0.6-1.3,1.6-1.3,2.3c0,2.1,2.2,1.3,3.3-1.1c1.2-2.7,1.4-4.5,0.4-4.7
			C-538.9,366.6-539,366.6-539.1,366.6z M-519.4,366.9c-0.8,0.9,0.6,4.2,1.5,3.7c0.4-0.3,1.1,0.3,1.5,1.3c0.4,1.1,1,1.6,1.3,1.2
			c1.3-1.3,0.5-3.9-1.6-5.3c-1-0.6-1.8-1-2.4-1.1C-519.2,366.7-519.3,366.8-519.4,366.9z M-524.2,368.8c0,0.7,0.4,1.3,0.9,1.3
			s0.9-0.6,0.9-1.3c0-0.7-0.4-1.3-0.9-1.3S-524.2,368.1-524.2,368.8z M-450.2,368.7c0,0.8,1.1,1.6,2.5,1.9c1.3,0.4,2.9,1,3.4,1.4
			c0.6,0.4,1.2,0.4,1.6-0.2c0.8-1.3-0.1-2.4-2.4-2.9c-1.1-0.2-2.6-0.7-3.5-1.1c-0.3-0.1-0.5-0.2-0.7-0.2
			C-450,367.6-450.2,368-450.2,368.7z M-537.4,369.3c0,0.4,0.4,0.9,0.9,0.9s0.9-0.4,0.9-0.9s-0.4-0.9-0.9-0.9
			S-537.4,368.8-537.4,369.3z M-508.5,369.5c1.4,1.3,1.3,1.6-0.3,2.7c-1.6,1.1-1.8,1.1-2-1c-0.2-1.2,0-2.5,0.3-2.7
			c0.1-0.1,0.2-0.1,0.4-0.1C-509.8,368.5-509.1,368.9-508.5,369.5z M-492.4,372.6c-0.9,2.1-0.4,4.6,1.1,4.6c0.5,0,0.6-0.9,0.4-1.9
			c-0.3-1.1-0.6-2.6-0.6-3.3c0-0.3-0.1-0.4-0.2-0.4C-491.9,371.5-492.2,371.8-492.4,372.6z M-521.1,372c-0.6,0.6,0.5,3.3,1.4,3.3
			c0.4,0,1-0.4,1.2-0.8c0.4-0.7-1.3-2.6-2.3-2.6C-520.9,371.9-521,372-521.1,372z M-533,381.7c0.4,5.9,1.5,11.6,3,16
			c2.7,7.9,2.7,8.3,1.1,6.9c-0.7-0.6-1.9-2.9-2.7-5.2c-1-2.8-1.6-7.7-1.8-15.6l-0.3-11.4L-533,381.7z M-546.2,373.2
			c-0.9,1.1-0.9,1.7,0.4,3.1c1.9,2.1,3.1,2.2,3.1,0.2c0-0.8-0.6-2.2-1.2-3.1c-0.5-0.7-0.8-1.1-1.1-1.1
			C-545.4,372.3-545.6,372.6-546.2,373.2z M-451.6,374.1c-0.7,1.8,0.4,2.7,1.7,1.4c1.6-1.6,3.1-1.2,3.4,0.9c0.3,2.2,2.5,3.3,2.5,1.1
			c0-0.8-0.4-2.2-0.9-3.2c-0.6-1.1-2.1-1.6-3.5-1.7C-449.9,372.7-451.3,373.2-451.6,374.1z M-480.9,374.9c4.9,2.6,16.4,5.7,20.3,5.7
			c1.3,0,2.5,0.4,2.5,1c0,1.1-5.5,0.5-11.9-1.1c-4.6-1.1-15.4-6.1-15.4-7c0-0.1,0.1-0.1,0.4-0.1C-484.4,373.4-482.8,374-480.9,374.9
			z M-378,375c0,1.7,0.4,1.7,1.8,0c0.9-1.1,0.8-1.3-0.4-1.3C-377.4,373.7-378.1,374.2-378,375z M-435.3,374.2
			c-1.1,0.7-1.1,2.2,0,2.2c0.4,0,0.9-0.6,0.9-1.4c0-0.6-0.2-1-0.5-1C-435,373.9-435.1,374-435.3,374.2z M-517.1,374.8
			c0,0.3-0.3,1.1-0.5,1.8c-0.4,0.9-0.1,1.4,0.9,1.4c0.8,0,1.4-0.6,1.4-1.3s-0.4-1.5-0.9-1.8c-0.3-0.2-0.4-0.3-0.6-0.3
			C-517,374.6-517.1,374.7-517.1,374.8z M-420.7,381.1c-4.6,1.1-6.4,1.5-11.4,2.2c-0.5,0.1-0.3-0.3,0.4-0.7c0.7-0.4,1.9-0.9,2.8-0.9
			c0.9,0,6.3-1.7,12.2-3.6c5.9-2,10.8-3.4,11-3.3C-405,375.4-415.2,379.7-420.7,381.1z M-522.4,378.3c1,0.8,1.9,1.1,2.2,0.6
			c0.7-1.1-0.1-2.3-2.2-2.8c-0.5-0.2-1-0.2-1.2-0.2C-524.5,376-524.1,376.8-522.4,378.3z M-375.5,376.8c-1.1,0.7-1.1,3.1,0,3.1
			c0.5,0,1.1-0.4,1.4-0.9c0.6-1-0.1-2.4-1-2.3C-375.2,376.7-375.3,376.7-375.5,376.8z M-380.7,378.4c0,0.8,0.4,1.4,0.9,1.4
			s0.9-0.4,0.9-0.9s-0.4-1.1-0.9-1.3c-0.1-0.1-0.3-0.1-0.4-0.1C-380.5,377.6-380.7,377.9-380.7,378.4z M-448.8,379.8
			c-0.4,0.4-0.2,0.9,0.4,0.9c0.5,0,1-0.4,1-0.9c0-0.6-0.2-0.9-0.4-0.9C-448.2,379-448.6,379.2-448.8,379.8z M-398.7,380.2
			c-0.5,1.5,0.8,1.8,1.6,0.5c0.3-0.4,0.2-1.1-0.3-1.3c0,0-0.1-0.1-0.2-0.1C-397.9,379.2-398.4,379.7-398.7,380.2z M-519.8,380.7
			c0,0.4,0.4,0.9,0.9,0.9s0.9-0.4,0.9-0.9s-0.4-0.9-0.9-0.9S-519.8,380.3-519.8,380.7z M-488.1,387.8c-0.7,0-2,0.8-2.8,1.8
			c-0.8,1-2.5,1.8-3.7,1.8s-3,0.8-4,1.8c-1,1-2.9,1.8-4.4,1.8c-2,0-2.6,0.4-2.6,1.8c0,2.6-2.6,2.1-3.1-0.7c-0.3-1.4-1.3-4-2.3-5.9
			l-1.8-3.4l2.5,0.6c1.4,0.3,4,0.8,5.8,1.1c2.8,0.5,3.1,0.7,1.9,1.8c-0.7,0.7-1.2,1.7-1.2,2.1c0,1.3,2.3,1,3.5-0.5
			c0.6-0.8,2.5-1.9,4-2.6c3.2-1.4,3.9-3.1,1.1-3.1c-1.5,0-1.6-0.3-0.7-2.2c0.5-1.2,1.2-2.2,1.5-2.2
			C-493.1,381.7-487,387.8-488.1,387.8z M-383.6,386.2c5.1,4,9.6,9.9,10.5,14.1c0.3,1.4,0.1,4-0.5,5.8
			c-8.5,16.1-30.9,21.1-47.4,24.4c-19.6,3.7-37.9,0.1-56.3-6.5c-6-2.2-7-3-16.8-12.4c-11.3-10.9-11.2-10.3-1.9-15.5
			c7.6-4.3,15-6.5,17.8-5.5c9.5,3.6,33.5,5.3,50.3,3.4c12.8-1.4,28.4-5.4,34.8-8.8l4.9-2.7L-383.6,386.2z M-455.1,387.1
			c-0.4,0.3-0.4,1.1-0.1,1.7c0.3,0.7,0.5,0.5,0.5-0.5c0-0.7-0.1-1.1-0.3-1.2C-455,387-455.1,387-455.1,387.1z M-443.4,388.8
			c-0.7,0.3-0.5,0.5,0.5,0.5c0.9,0.1,1.4-0.2,1.1-0.4c-0.2-0.1-0.4-0.2-0.7-0.2C-442.7,388.7-443,388.7-443.4,388.8z M-507.4,390.8
			c0,0.7,0.4,1.3,0.9,1.3s0.9-0.6,0.9-1.3c0-0.7-0.4-1.3-0.9-1.3S-507.4,390.1-507.4,390.8z M-339.8,390.7c-0.4,0.3-0.4,1.1-0.1,1.7
			c0.3,0.7,0.5,0.5,0.5-0.5c0-0.7-0.1-1.1-0.3-1.2C-339.7,390.5-339.8,390.5-339.8,390.7z M-513.4,393.9c0.7,1.7,1.8,3.3,2.3,3.7
			c1.8,1.1,1,2.3-1.8,2.3c-2.2,0-2.6,0.2-1.7,1.1c0.5,0.6,2.3,1.5,3.9,2c1.7,0.5,3,1.7,3.2,2.6c0.4,2,1.7,3,4.2,3
			c1.2,0,2.6,1.1,3.7,3.1c1.1,1.8,2.6,3.3,3.3,3.7c3.9,1.5,9.9,7.7,9.9,10.3c0,2.5,0.9,2.8,3.4,1.4c1.2-0.6,1.9-0.5,2.7,0.4
			c0.6,0.7,1.8,1.3,2.7,1.3s2.5,0.8,3.4,1.8c1,1,2.9,1.8,4.3,1.8c1.5,0,3.7,1,5.3,2.3c2.2,1.8,2.9,2.1,4,1.2c1-0.9,2-0.9,4.6,0
			l3.3,1.1l-3.4,2.9c-3.8,3.3-7.8,4.7-13.5,4.7c-4.1,0-9.9,2-9.9,3.5c0,0.5,0.4,1,0.9,1c0.5,0,1.5,1.6,2.3,3.3c0.8,1.8,2,3.6,2.7,4
			c2.8,1.6,8.1,6.9,7.7,7.7c-0.8,1.2-2.3,1-6.2-1.3c-2.3-1.3-4-1.8-4.5-1.2c-0.6,0.5-2.6-0.3-5.8-2.3c-2.7-1.8-5.9-3.2-7-3.2
			s-2.6-0.6-3.3-1.3c-0.6-0.8-1.8-1.1-2.8-0.8c-1.3,0.4-1.7,0.2-1.4-1.1c0.3-1.2,1.4-1.8,4.8-2.2c2.5-0.3,5.9-1.1,7.7-1.7l3.3-1.1
			l-1.8-1.7c-1.5-1.4-1.8-2.3-1.2-6c0.6-4.4-0.5-6.1-1.7-2.3l-0.6,1.9l-1.1-2.2c-0.5-1.2-1.5-2.6-2.1-2.9c-1.8-1.1-1.3-3.3,1.1-4.3
			c2.8-1.2,2.4-3-0.7-2.6c-2.1,0.3-2.5-0.2-3.8-4.8l-1.5-5l-1.6,2.1c-0.9,1.1-1.7,1.7-1.7,1.1c0-0.5-1-1.7-2.2-2.5
			c-1.7-1.1-2.6-1.2-3.4-0.4c-1.5,1.3-9.6-0.4-12.8-2.6c-1.2-0.8-3.2-1.6-4.4-1.8c-2.2-0.3-2.3-0.1-2.8,7.2
			c-0.4,4.1-0.3,7.9,0.1,8.4c1.4,1.8,1.6,5.7,0.4,5.7c-0.6,0-1.1-1-1.1-2.2s-0.7-2.6-1.7-3.1c-2.9-1.6-7.9-9.2-7-10.8
			c0.6-1.1,0.2-1.6-2.2-2.4c-1.6-0.5-3.3-1.6-3.5-2.4c-0.4-1-0.2-1.2,0.8-0.9c1.8,0.7,1.7-0.5-0.4-3.2c-1.2-1.6-1.4-2.5-0.7-3.2
			c0.7-0.7,0.7-1.3-0.1-2.2c-0.8-1-0.4-1,2,0.2c3.3,1.6,4.8,3.6,3.2,4.6c-0.6,0.4-0.5,0.9,0.4,1.6c1.1,0.9,1.4,0.7,1.8-1.1
			c0.7-2.5,2.1-2.7,4.6-0.9c2.3,1.8,3,1.7,3-0.4c0-1,0.4-1.9,0.8-2.2c0.4-0.3,1.2-2.6,1.8-5.3c0.8-3.3,1.9-5.5,4-7.6l2.9-2.8
			L-513.4,393.9z M-358.2,393.6c1.8,1.4,4,1.6,4,0.4c0-0.4-1.1-1.4-2.2-2.2c-0.9-0.5-1.6-0.7-2.1-0.7
			C-359.7,391.1-359.9,392.3-358.2,393.6z M-545.7,393.7c0.3,1.3,1.6,4,2.7,5.7c1.1,1.8,2.1,3.4,2.1,3.7c0,1.3-1.7,0-4.2-3.3
			c-1.7-2.1-2.8-4.8-2.8-6.2c0-1.7,0.4-2.5,0.8-2.5S-546.2,392.1-545.7,393.7z M-368.4,396.7c0,2.2,1.4,1.9,2-0.4
			c0.4-1.2,1-1.7,1.8-1.3c1.6,0.6,2.5-0.5,1.8-2.4c-0.2-0.6-0.7-0.8-1.2-0.8C-365.7,391.9-368.3,394.4-368.4,396.7z M-342,396.1
			c0.4,0.3,0.9-0.4,0.9-1.3c0-1-0.4-1.8-0.9-1.8C-343.1,393-343.1,395.4-342,396.1z M-351.7,393.9c0,0.4,0.4,0.9,0.9,0.9
			s0.9-0.4,0.9-0.9s-0.4-0.9-0.9-0.9S-351.7,393.5-351.7,393.9z M-360.5,396c0,0.8,0.6,1.4,1.4,1.4c0.8,0,1.2-0.4,1.1-1.1
			c-0.3-0.9-0.9-1.3-1.4-1.4S-360.5,395.2-360.5,396z M-348.2,396.6c0,0.4,0.6,0.9,1.3,0.9s1.3-0.4,1.3-0.9s-0.6-0.9-1.3-0.9
			S-348.2,396.1-348.2,396.6z M-351.7,398.3c0,1.1,1.5,1.1,2.2-0.1c0.3-0.5,0.4-1.1,0.1-1.4c-0.1-0.1-0.2-0.2-0.3-0.2
			c-0.1,0-0.2,0-0.3,0C-350.6,396.6-351.7,397.5-351.7,398.3z M-517.3,397.4c-2.8,1.1-3.2,2.7-0.6,2.7c1,0,1.8-0.4,1.8-1
			s0.8-0.7,1.8-0.4c1.1,0.3,1.8,0.1,1.8-0.4c0-1-0.9-1.5-2.1-1.5C-515.5,396.8-516.4,397-517.3,397.4z M-363.1,399.6
			c0,0.7,0.4,1.3,0.9,1.3s0.9-0.6,0.9-1.3s-0.4-1.3-0.9-1.3S-363.1,398.9-363.1,399.6z M-365.8,400.5c0,0.7,0.4,1.3,0.9,1.3
			c0.4,0,0.9-0.6,0.9-1.3c0-0.7-0.4-1.3-0.9-1.3C-365.3,399.2-365.8,399.8-365.8,400.5z M-362.2,404.9c0,0.7,0.6,1.3,1.3,1.3
			c0.7,0,1.3-0.6,1.3-1.3s-0.6-1.3-1.3-1.3C-361.6,403.6-362.2,404.2-362.2,404.9z M-367.2,405.1c-0.3,0.5,0.3,1.1,1.1,1.1
			c0.8,0,1.3-0.4,1.1-0.9c-0.3-0.6-0.7-1-1.1-1.1C-366.6,404.2-367.1,404.5-367.2,405.1z M-515.5,406.9c0.6,0.2,1.1-0.3,1.1-1.1
			c0-0.8-0.6-1.4-1.4-1.4C-517.4,404.5-517.1,406.3-515.5,406.9z M-349.1,415.2c-2.9,7.4-7.1,13-11.8,15.5c-3.1,1.7-2.6,0.4,2-4.7
			c4.1-4.6,10.7-16,10.7-18.7c0-0.6,0.4-1.1,0.9-1.1C-346.2,406.2-346.8,409.3-349.1,415.2z M-511.6,407.5c0.3,0.7,0.2,1.4-0.3,1.6
			c-1.1,0.4,0,4,1.3,4.5c0.7,0.3,1.1-0.7,1.1-3.4c0-2.8-0.4-3.9-1.2-3.9C-511.5,406.2-511.8,406.8-511.6,407.5z M-520.5,408
			c0,1,0.6,1.8,1.3,1.8s1.3-0.5,1.3-1.2s-0.6-1.5-1.3-1.8c-0.3-0.1-0.4-0.1-0.6-0.1C-520.4,406.7-520.6,407.1-520.5,408z
			 M-338.4,410.1c-0.5,0.4-1,1.1-1,1.8c0,1.5,2.2,1.8,3.1,0.4c0.6-1.1-0.4-2.4-1.4-2.4C-337.9,409.9-338.1,409.9-338.4,410.1z
			 M-644.5,414.3c-2.4,1.3-3.7,1.2-3.7-0.2c0-1.4,2.7-3.5,4.5-3.5C-641.2,410.6-641.7,412.9-644.5,414.3z M-506,413.1
			c0.7,2.4,3.1,2.5,3.1,0.1c0-1-0.7-2-1.4-2.3c-0.4-0.2-0.9-0.3-1.1-0.3C-506.4,410.6-506.6,411.5-506,413.1z M-517.1,412.8
			c0.4,0.3,0.9,0.1,0.9-0.4c0-0.5-0.4-0.9-0.9-0.9C-518.2,411.5-518.2,412.1-517.1,412.8z M-529.4,412.4c0,0.4,0.4,0.9,0.9,0.9
			s0.9-0.4,0.9-0.9c0-0.4-0.4-0.9-0.9-0.9S-529.4,412-529.4,412.4z M-368.5,412.4c1.8,1.8,1.3,4.1-0.9,4.4c-2.6,0.4-2.6,2.9,0,3.3
			c1.8,0.3,1.9,0.6,1.5,4.4c-1.1,9.3-1.2,9.9-3.3,9.9c-1.1,0-2.6,0.4-3.3,0.9c-2.1,1.3-3.4,1.1-4.5-1c-0.9-1.7-1.1-1.8-2.5-0.5
			c-1.5,1.4-8.5,1.1-9.4-0.4c-0.3-0.4-1-0.5-1.7-0.3c-0.6,0.3-1.4,0.1-1.8-0.4s-1.9-1-3.6-1c-3.2,0-4.1-1.1-1.7-2.1
			c0.8-0.3,2.6-0.5,4.1-0.5c1.5,0,3.4-0.7,4.3-1.5c1-0.9,1.6-1.1,1.6-0.4c0,0.6,0.4,1.1,1,1.1c0.5,0,0.7-0.6,0.4-1.3
			c-0.4-1,0.2-1.5,2-1.8c1.6-0.3,2.7-1.2,3.1-2.4c0.5-1.8,0.5-1.8,1.8-0.2c0.7,1,1.4,1.3,1.4,0.9s0.1-2,0.2-3.4
			c0.1-1.7,0.6-2.6,1.4-2.6c2,0,2.1,3.1,0,5.9c-2.2,3-1.9,3.8,0.7,1.9c2.1-1.5,3.8-6.4,3.1-9.2c-0.4-1.4,0-1.8,1.4-1.8
			c1.1,0,1.8-0.5,1.8-1.3c0-0.8,0.3-1.2,0.7-1.3C-369.9,411.5-369.3,411.8-368.5,412.4z M-641.1,417.2c-1,0.4-2,1.3-2.3,2.3
			c-0.6,1.8-3.1,2.5-3.1,0.8c0-1.2,4.8-6.1,6.1-6.1C-638.7,414.2-639.3,416.6-641.1,417.2z M-533.4,415.9c0.3,0.4,1,0.9,1.4,0.9
			s0.6-0.4,0.4-0.9c-0.3-0.4-1-0.9-1.4-0.9S-533.7,415.5-533.4,415.9z M-507.9,415.3c-0.4,0.3-0.4,1.1-0.1,1.7
			c0.3,0.7,0.5,0.5,0.5-0.5c0-0.7-0.1-1.1-0.3-1.2C-507.8,415.1-507.9,415.1-507.9,415.3z M-498.6,417.2c0.4,0.3,0.9,0.1,0.9-0.4
			c0-0.5-0.4-0.9-0.9-0.9C-499.7,415.9-499.7,416.5-498.6,417.2z M-639.7,422.2c-3,3.5-3.8,4-4.6,2.6c-0.6-1.1,4.7-7.1,6.2-7.1
			C-636.2,417.7-636.4,418.4-639.7,422.2z M-529.4,421.2c0,2.8,2,3.7,3,1.2c1-2.6,0.5-3.9-1.2-3.9
			C-529,418.6-529.4,419.1-529.4,421.2z M-516.9,420.8c5.6,7.9,16.5,17.5,24.2,21.6c2,1.1,3.7,2.3,3.7,2.7c0,1-5.1-1.1-10.3-4.1
			c-7.8-4.6-22.1-20.2-20.2-22.2c0.1-0.1,0.1-0.1,0.2-0.1C-518.7,418.6-517.7,419.4-516.9,420.8z M-538.5,422
			c-0.5,1.5-1.7,3.2-2.6,3.7c-0.9,0.5-3.8,2.7-6.3,5c-10.3,9.2-12.1,10.6-14.3,11.1c-2.9,0.8-3.8-0.2-1.8-1.7
			c0.9-0.6,1.1-1.4,0.7-1.7c-1.2-0.8-5.2,2.8-5.5,4.9c-0.2,1.3-1.8,2.5-6,4.2c-7.1,3-7.7,3.1-10.4,0.9c-2.8-2.3-3.4-2.3-4.1,0.2
			c-0.6,1.8-0.6,1.8-1.3,0.2c-0.5-1.2-0.3-2.3,1.1-3.8c1.5-1.7,1.7-2.3,0.8-3.7c-1.4-2.3-1.3-3.5,0.3-2.9c0.7,0.3,1.3,1,1.3,1.6
			c0,1,8.2,1.2,16.8,0.6c1.3-0.1,2.7-4.6,4.9-15.3c0.3-1.3,0.8-2.6,1.1-2.8c0.4-0.2,5.6-0.8,12-1.3c6.3-0.5,12.1-1.1,12.9-1.4
			c0.4-0.1,0.6-0.2,0.8-0.2C-537.6,419.6-537.7,420.2-538.5,422z M-636.4,424.7c-2.6,4.9-4,6.2-5.2,4.3c-0.3-0.4,0.4-1.7,1.3-2.8
			c1-1.1,2.3-2.8,3-3.8c0.6-0.8,1.1-1.2,1.4-1.3C-635.2,421-635.2,422.5-636.4,424.7z M-489.8,421.7c-1.1,0.7-1.1,2.2,0,2.2
			c0.4,0,0.9-0.6,0.9-1.4c0-0.6-0.2-1-0.5-1C-489.6,421.5-489.7,421.6-489.8,421.7z M-373.7,423.4c0,0.7,0.4,1.3,0.9,1.3
			s0.9-0.6,0.9-1.3c0-0.7-0.4-1.3-0.9-1.3S-373.7,422.7-373.7,423.4z M-544,423c-0.8,0-1.8,1-2.2,2.2c-0.5,1.2-1.2,2.2-1.6,2.1
			c-1.9-0.4-2.8,0.3-2.8,1.8c0,2.4,0.7,2.2,4.6-1.1c3.3-2.8,4.1-4.8,2.4-5C-543.7,423-543.8,423-544,423z M-552.8,426.5
			c0.9,1.3,1.8,1.1,3.4-0.7c1.9-2.1,1.8-2.8-0.2-2.8C-551.5,423-553.5,425.2-552.8,426.5z M-632.7,427.2c-0.8,0.9-1.8,2.6-2.3,4
			c-1,2.6-3.3,3.4-2.5,0.9c1.7-5.1,3.2-8.6,4-8.9c0.3-0.1,0.4-0.1,0.6-0.1C-631.6,423.3-631.3,425.8-632.7,427.2z M-557.5,424
			c0,0.7,0.5,1.2,1.3,1.2c0.8,0,1.2-0.4,1.1-0.9c-0.3-0.7-0.9-1.1-1.4-1.2C-557.1,423-557.6,423.3-557.5,424z M-561.1,428.2
			c1,1.8,1.9,2.1,2.8,1.2c0.7-0.6-1.8-5.6-2.9-5.6C-562.3,423.8-562.2,426.1-561.1,428.2z M-373.1,427.8c-0.5,1.3,0.4,1.8,1.5,0.7
			c0.9-0.8,0.7-2-0.2-2C-372.3,426.5-372.8,427-373.1,427.8z M-384.9,428.1c-0.2,0.6,0.3,1.1,1.1,1.1s1.4-0.6,1.4-1.4
			c0-0.6-0.3-1-0.6-1.1c-0.1,0-0.2,0-0.3,0C-383.9,426.7-384.6,427.2-384.9,428.1z M-628.6,428.2c-0.1,0.3-0.9,2.1-1.8,4.1
			c-1.4,3.3-2.9,4.9-2.9,3.2c0-1.9,3.1-8.2,3.9-7.9C-628.9,427.8-628.5,428.1-628.6,428.2z M-555.8,431.2c-0.4,1.1-1.4,2.4-2.2,2.6
			s-1.1,0.9-0.9,1.4c0.9,1.4,1.6,1.1,4.2-1.7c2.6-2.9,3.1-4.5,1.1-4.5C-554.3,429.1-555.4,430.1-555.8,431.2z M-392.5,430
			c-0.4,0.4,0,0.9,0.8,0.9s1.4-0.4,1.4-0.9c0-0.6-0.4-0.9-0.9-0.9C-391.7,429.1-392.2,429.4-392.5,430z M-376.3,431.2
			c0.4,0.4,1,0.2,1.3-0.4s0-0.9-0.8-0.9C-377.4,430-377.5,430.5-376.3,431.2z M-479.3,431.3c1.4,1.7,2.6,1.7,2.6,0
			c0-0.8-0.8-1.3-1.8-1.3C-480.1,430-480.2,430.2-479.3,431.3z M-624.8,431.3c-0.4,0.9-1.3,3.3-2,5.4c-1.4,4-2.8,4.9-2.8,1.7
			c0-1.1,0.4-2.4,0.8-2.8c0.4-0.4,0.9-1.8,1.1-3c0.2-1.2,1-2.3,1.9-2.5c0.4-0.1,0.6-0.1,0.8-0.1
			C-624.5,430.1-624.5,430.4-624.8,431.3z M-385.1,431.8c0,0.4,0.6,0.9,1.3,0.9s1.3-0.4,1.3-0.9s-0.6-0.9-1.3-0.9
			S-385.1,431.3-385.1,431.8z M-484,432.2c0.5,1.3,1.4,1.7,2.4,0.7c0.9-0.8-0.2-2-1.6-2C-483.9,430.9-484.3,431.4-484,432.2z
			 M-564.5,434.6c0,2.1,1.9,2,3.9-0.1c0.8-1,1.2-2.1,1-2.6c-0.2-0.3-0.4-0.4-0.8-0.4C-561.9,431.2-564.6,433-564.5,434.6z
			 M-405.5,431.2c4.9,0.9,3.2,5.1-2.5,6c-2.5,0.4-3.2,0.9-2.6,1.5c1.7,1.7,1,3.2-2.4,5.1c-4.2,2.4-7.9,7.7-6,8.4
			c0.7,0.3,1.3,1.5,1.3,2.6c0,1.8,0.3,2,1.6,1.1c1.2-0.7,2.9-0.6,6.8,0.4c3.8,1,5.7,1.1,7.2,0.4c2.6-1.1,3.6-0.1,1.8,1.8
			c-1.1,1.2-1.8,1.3-3.7,0.4c-1.6-0.7-2.7-0.7-4-0.1c-2.1,1.1-2.2,2.6-0.2,2.6c1.2,0,1.3,0.1,0.2,0.7c-4,2.3-10.6,1.6-8.1-0.9
			c1.6-1.6,1.2-3.3-0.7-3.3c-1.2,0-1.8,0.6-1.8,1.8c0,4.4-2.7,6.3-6.1,4.2c-1.2-0.8-2-0.7-3.7,0.4c-2,1.4-9.8,2-12.5,1
			c-1.8-0.6,6.4-8.4,12.7-11.9c4.7-2.6,4.7-2.7,1.6-2.2c-3.9,0.6-7.6-0.6-10.3-3.5c-1.1-1.1-2.8-2.1-3.8-2.1c-2.5,0-1.7-2,1-2.6
			c3.6-0.9,2.8-2.3-1.1-1.9c-2.9,0.3-4.1-0.1-5.4-1.5c-2.5-2.7-1.3-4.5,2.8-4.2c1.8,0.1,3.3,0.4,3.1,0.8c-0.8,1.1,1.3,1.7,3,0.6
			c2.1-1.3,4.8-0.4,4,1.4c-0.4,1.1,0,1.4,1.6,1.4c2.8,0,3.6-0.8,2.3-2.4c-0.9-1.1-0.6-1.2,1.3-0.7c1.3,0.4,2.9,0.2,3.5-0.4
			c0.7-0.6,3.9-0.8,8.7-0.5c7.6,0.4,10-0.4,7-2.1c-1.8-1.1-0.4-2.2,1.9-2.1C-406.4,431.4-406.1,431.5-405.5,431.2z M-621.4,436.1
			c-0.7,1.4-1.3,3.6-1.3,4.8c0,1.5-0.5,2.3-1.4,2.3c-1.2,0-1.3-0.8-0.8-5.1c0.7-5.8,1-6.3,2.6-6.3
			C-620.3,431.8-619.9,433.3-621.4,436.1z M-487.9,432.7c0.3,0.7,1,1.4,1.6,1.6c0.7,0.2,1-0.1,0.8-0.8c-0.3-0.7-1-1.4-1.6-1.6
			c-0.2-0.1-0.4-0.1-0.4-0.1C-487.9,431.8-488.1,432.2-487.9,432.7z M-473.1,434.3c0,0.5,0.4,1,0.9,1s0.9-0.3,0.9-0.4
			c0-0.2-0.4-0.6-0.9-0.9c-0.1-0.1-0.3-0.2-0.4-0.2C-472.9,433.8-473.1,434-473.1,434.3z M-616.7,434.8c1,1.1,1,1.8,0.2,3.6
			c-0.5,1.2-1,3.1-1,4.2c0,2.3-0.8,3.3-2.1,2.9c-0.5-0.3-0.8-2.3-0.6-5.1c0.3-4.1,1.1-6.5,2.4-6.5C-617.4,434-617,434.2-616.7,434.8
			z M-611.9,442.6c-0.6,7.6-2.4,7.4-2.7-0.3c-0.1-3.1,0.2-6,0.7-6.5c0.3-0.4,0.6-0.5,0.9-0.5c0.1,0,0.1,0,0.2,0
			C-611.9,435.5-611.5,438-611.9,442.6z M-369.8,436.6c-0.4,1,0.2,1.3,2.2,1.3c1.5,0,2.7,0.4,2.7,0.9s1.2,0.9,2.6,0.9
			c1.4,0,2.6-0.4,2.6-0.9s-1.1-0.9-2.6-0.9c-1.5,0-2.9-0.4-3.2-0.9c-0.9-1.4,4.7-1.1,7.7,0.5c1.6,0.8,3.9,1.4,5.3,1.4
			c2.6-0.1,3.1,1.7,0.6,2.1c-0.7,0.1-1.9,0.4-2.7,0.8s-1.7,0.2-2-0.4s-1.3-1-2.2-1c-1.2,0-1.5,0.4-1.2,1.9c0.2,1.1-0.2,2.8-0.9,3.7
			c-1.2,1.6-1.3,1.6-1.8-0.7c-0.8-3.2-2.3-2-2.3,1.7c0,2.9-0.1,2.9-2.5,1.7c-2.2-1.1-2.5-1.1-3.1,0.5c-0.4,1-1.4,2-2.2,2.3
			c-0.8,0.3-2.5,1.1-3.7,1.7c-2.6,1.4-3.1,1.1-1.8-1.3c0.6-1,0.8-2.6,0.5-3.4c-0.3-1,0.5-2.8,2.2-4.9c1.5-1.8,2.9-4.3,3.2-5.4
			c0.3-1.1,1.1-2.2,1.7-2.5c0.2-0.1,0.4-0.2,0.4-0.2C-369.7,435.6-369.5,436-369.8,436.6z M-480.3,436.6c-0.1,0.4,0.5,1,1.4,1.1
			c1.1,0.2,1.5-0.1,1.2-0.9c-0.3-0.7-0.9-1.1-1.4-1.1C-479.6,435.6-480.2,435.9-480.3,436.6z M-466.9,437c0,0.4,0.7,0.9,1.4,0.9
			c0.7,0,1.1-0.4,0.8-0.9c-0.4-0.6-1-0.9-1.4-0.9C-466.6,436.2-467,436.4-466.9,437z M-445,437.9c0,0.4,0.6,0.9,1.3,0.9
			c0.7,0,1.3-0.4,1.3-0.9s-0.6-0.9-1.3-0.9C-444.3,437-445,437.5-445,437.9z M-592.4,442.5c0.3,3,0.7,6.4,1.1,7.5
			c1,3.3-1.3,2.4-2.7-1.1c-1.8-4-1.8-11.9-0.1-11.9C-593.3,437-592.8,438.6-592.4,442.5z M-607,437.1c1.1,0.2,1.5,1.8,1.9,6.4
			c0.4,3.4,0.4,6.5,0.2,6.9c-0.6,1-1.8,0.8-2.7-0.4c-2.5-3.1-2.1-12.8,0.4-12.8C-607.1,437.1-607.1,437.1-607,437.1z M-597.7,444.8
			c0.4,4.8,0.3,6.3-0.6,6.3c-0.6,0-1.6-1-2.1-2.2c-0.5-1.1-1.2-4-1.6-6.4c-0.4-3.6-0.3-4.4,1.1-4.9c0.4-0.2,0.7-0.3,1.1-0.3
			C-598.6,437.2-598.3,439-597.7,444.8z M-418.5,438.8c-0.9,1.6-0.6,1.8,1.7,1.8c1.4,0,2.8-0.4,3.1-0.8c0.5-0.9,0.2-1.2-2.4-2.1
			c-0.3-0.1-0.4-0.2-0.7-0.2C-417.5,437.5-418.1,437.9-418.5,438.8z M-459.9,438.8c0,0.4,0.4,0.9,0.9,0.9c0.4,0,0.9-0.4,0.9-0.9
			s-0.4-0.9-0.9-0.9C-459.5,437.9-459.9,438.4-459.9,438.8z M-424.4,440.3c-0.3,0.5,0.3,1.1,1.1,1.1s1.3-0.4,1.1-0.9
			c-0.3-0.6-0.7-1-1.1-1.1C-423.8,439.4-424.3,439.7-424.4,440.3z M-381.9,442c-3,1.2-28.8,9.6-30.5,9.9c-0.4,0.1-0.7-0.4-0.7-1.1
			c0-1.3,7.3-4,23.6-8.4c5-1.4,8.4-2.1,9.9-2.2C-378.3,440-379,440.6-381.9,442z M-471.1,441.2c0.4,1.7,2.9,2.6,3.7,1.3
			c0.3-0.4-0.5-1.3-1.8-1.8c-0.8-0.4-1.2-0.5-1.6-0.6C-471.3,440-471.4,440.3-471.1,441.2z M-464.7,441.4c0.7,1.1,2.2,1.1,2.2,0
			c0-0.4-0.6-0.9-1.4-0.9C-464.7,440.6-465,440.9-464.7,441.4z M-434,441.4c0.6,1,3.1,1.1,3.1,0.1c0-0.4-0.8-0.7-1.8-0.8
			C-433.6,440.6-434.2,441-434,441.4z M-415.4,442.3c-0.4,0.4-0.2,0.9,0.4,0.9c0.5,0,1-0.4,1-0.9c0-0.6-0.2-0.9-0.4-0.9
			C-414.8,441.4-415.1,441.7-415.4,442.3z M-585.3,442.7c0.3,0.7-0.2,1.5-1,1.8c-1.3,0.5-1.3,0.7-0.2,1.3c2.7,1.6,9.2,1.7,12.1,0.2
			c1.6-0.9,2.7-1.9,2.6-2.4c-0.6-1.8-3.3-1.4-5.4,0.9c-2.1,2.2-4,2.4-4,0.3c0-1.1-2.6-3.3-3.9-3.3
			C-585.6,441.4-585.7,442-585.3,442.7z M-367.7,441.6c-1.3,0.2-2.1,1.1-2.3,2.3c-0.4,2.4,0.9,2.6,2.8,0.4c1.8-1.9,1.8-2.8,0.3-2.7
			C-367.2,441.5-367.4,441.5-367.7,441.6z M-476.2,441.7c-0.4,0.3-0.4,1.1-0.1,1.7c0.3,0.7,0.5,0.5,0.5-0.5c0-0.7-0.1-1.1-0.3-1.2
			C-476.1,441.5-476.2,441.5-476.2,441.7z M-419.4,443.2c0,0.4,0.4,0.9,0.9,0.9s0.9-0.4,0.9-0.9s-0.4-0.9-0.9-0.9
			S-419.4,442.8-419.4,443.2z M-428.2,443.6c0,0.8,0.4,1.4,0.9,1.4s0.9-0.4,0.9-0.9s-0.4-1.1-0.9-1.3c-0.1-0.1-0.3-0.1-0.4-0.1
			C-428,442.7-428.2,443-428.2,443.6z M-481.9,443.6c-0.9,1.1-0.8,1.3,0.8,1.3c1,0,1.8-0.4,1.8-0.9c0-0.8-0.4-1.2-0.9-1.3
			C-480.7,442.7-481.4,442.9-481.9,443.6z M-374.6,445.8c0,0.4,0.4,0.9,0.9,0.9s0.9-0.4,0.9-0.9c0-0.4-0.4-0.9-0.9-0.9
			S-374.6,445.4-374.6,445.8z M-423.8,447c0,1.1,2.2,1.7,3.1,0.8c0.7-0.7-0.4-1.9-1.8-1.9C-423.2,445.8-423.8,446.4-423.8,447z
			 M-380.9,447.8c0.3,1.1-0.2,1.3-1.5,1c-1.1-0.3-1.8-1.1-1.8-1.8c0-0.7,0.4-1.1,1-1.1c0.1,0,0.3,0,0.4,0
			C-382,446-381.1,446.7-380.9,447.8z M-429.5,449.4c-0.4,0.4-0.2,0.9,0.4,0.9s1-0.4,1-0.9c0-0.6-0.2-0.9-0.4-0.9
			C-428.9,448.5-429.2,448.7-429.5,449.4z M-484.1,450.5c-0.4,0.3-0.4,1.1-0.1,1.7c0.3,0.7,0.5,0.5,0.5-0.5c0-0.7-0.1-1.1-0.3-1.2
			C-484,450.3-484.1,450.3-484.1,450.5z M-470.1,450.8c0.9,0.1,2.1,0.3,3.7,0.5c2.9,0.5,11.7,1.1,19.5,1.1c13,0,17.2,0.7,10.4,1.7
			c-5.5,0.8-25.2,0.6-29.2-0.3c-6.4-1.4-8.3-3.1-5.1-3.1C-470.7,450.7-470.4,450.7-470.1,450.8z M-489.2,454.6
			c0.6,0.7,1.1,0.7,1.5,0.1c0.3-0.5,0.1-1.1-0.4-1.5c-0.4-0.2-0.6-0.3-0.9-0.3C-489.7,453-490,453.8-489.2,454.6z M-422.4,453.8
			c-0.7,0-1.3,0.8-1.3,1.8c0,1.8,0.9,2.3,2,1.1c1-1,0.6-2.7-0.5-2.9C-422.3,453.8-422.4,453.8-422.4,453.8z M-482.4,455.3
			c-0.3,0.5,0.3,1.1,1.1,1.1s1.3-0.4,1.1-0.9c-0.3-0.6-0.7-1-1.1-1.1C-481.9,454.4-482.4,454.6-482.4,455.3z M-429.1,458.5
			c0.4,0.4,1,0.2,1.3-0.4c0.4-0.5,0-0.9-0.8-0.9C-430.2,457.3-430.3,457.8-429.1,458.5z M-474.9,458.2c0,0.4,0.4,0.9,0.9,0.9
			s0.9-0.4,0.9-0.9s-0.4-0.9-0.9-0.9S-474.9,457.7-474.9,458.2z M-480.9,458.2c0.3,0.7,1,1.4,1.6,1.6c0.7,0.2,1-0.1,0.8-0.8
			c-0.3-0.7-1-1.4-1.6-1.6c-0.2-0.1-0.4-0.1-0.4-0.1C-480.9,457.4-481,457.7-480.9,458.2z M-433.3,461.2c0.2,2.1,0.7,2.6,1.7,1.7
			c0.7-0.6-0.2-3.9-1.1-3.9C-433,459-433.3,460-433.3,461.2z M-425.9,461.2c-0.5,1.3,2.1,1.8,3.3,0.7c0.4-0.4,0.4-0.9,0.1-1.3
			c-0.3-0.4-0.7-0.7-1.2-0.7C-424.6,459.8-425.5,460.4-425.9,461.2z"/>
	</g>
</g>
<g id="Layer_2">
	<g>
		<path fill="#707070" stroke="#FFFFFF" stroke-width="2" d="M291.8,507.7c-1.8,0-3,0-4.3,0c-6.4,0.1-12.8,0.1-19.1,0.5
			c-6.2,0.4-11.2,5.5-11.4,11c-0.1,2.2,0.9,3.3,3,3.4c2.4,0.2,4.8,0.2,7.2,0.6c1.1,0.2,2.1,0.8,3.1,1.3c-0.9,0.8-1.7,2.1-2.7,2.2
			c-5.1,0.7-10.2,1.3-15.4,1.4c-2.8,0.1-5.7-0.6-8.4-1.5c-6.1-2-8-6.2-5.7-12.1c0.9-2.3,2.3-4.4,3.4-6.7c0.2-0.4,0-1.1,0-1.6
			c-0.4,0.2-1.1,0.3-1.3,0.7c-2.1,4.1-4.6,8.1-6,12.4c-2.2,6.9,0.6,11.5,7.8,13.8c8.2,2.6,16.6,2.1,24.8-0.7
			c4.8-1.6,7.9-6.5,7.3-11.5c-0.1-1-1.4-2.4-2.4-2.6c-2.9-0.6-5.9-0.7-8.8-1c-0.9-0.1-1.7-0.5-2.6-0.8c0-0.3,0-0.6,0-0.9
			c1.4-0.3,2.7-0.7,4.1-0.7c4.5-0.1,9,0,13.6-0.1c7.8-0.1,15.5-0.3,23.3-0.3c9.2,0,18.2-1.5,27-4.2c1-0.3,2.2-1.1,2.7-2
			c0.9-1.6,1.4-3.5,2.2-5.4c-6,1.3-11.7,2.3-17.3,3.9c-4.9,1.4-7.7-1-10.2-4.5c-2.2-3.2-1.6-5.6,2.2-6.5c3.1-0.8,6.4-1,9.6-1
			c2.7,0,5.5,0.7,8.5,1.1c-4.6-7.7-11.3-8.6-18.5-6.4c-3,0.9-5.1,2.9-6.6,5.7c-2.3,4.4-0.1,8.4,1.2,12.6h-6.3
			c-1.5-10.3-3.1-20.5-4.6-30.8c3-0.5,2.2-2.8,2.6-4.6c0.4-2.1-0.2-3.1-2.3-3.9c-1.7-0.7-3.1-2.1-4.9-3.4c-0.4,1.8-0.9,4-1.2,6.3
			c-0.1,0.8-0.2,2.2,0.2,2.4c2.6,1.3,2,3.8,2.3,5.9C289.1,488.6,290.4,498,291.8,507.7 M398.1,492.9c-0.8,1.8-1.3,3.4-2.1,4.9
			c-1,1.9-0.8,3.3,0.5,5.1c1.1,1.6,1.9,3.6,2.5,5.5c1.9,6.8,0.1,10.8-6.3,13.8c-6.3,2.9-13,3.6-19.8,2.1c-5.3-1.1-8.3-5.4-7.3-10.7
			c0.7-3.9,2.3-7.6,3.4-11.4c0.2-0.7,0.3-1.5,0.4-2.2c-0.9,0-1.2,0.2-1.3,0.5c-3,6-5.5,12.1-5.6,19c-0.1,5.3,2.6,9.3,7.6,10.9
			c5.8,1.8,11.7,1.6,17.5,0.2c6.5-1.6,11.4-5.2,13.5-11.9c0.4-1.3,0.6-2.7,0.9-4.1c0.7-0.1,1.2-0.2,1.7-0.2
			c3.7-0.1,7.4,0.4,10.7-2.1c0.4-0.3,1.5,0.2,2.2,0.6c2.8,1.5,5.7,1.7,8.8,1.3c0.8-9.8,0.5-17.3-2.9-19.6c-2,2-2.8,4-0.4,6.3
			c0.4,0.4,0.9,1.1,0.9,1.7c0.1,1.5-0.1,3.1-0.2,4.6c-1.8-0.4-3.9-0.3-5.3-1.3c-1.2-0.8-1.7-2.8-2.3-4.3c-0.5-1.4-0.7-2.8-1-4.4
			c-1.1,1.4-1.1,1.4-1,5.5c0.1,3-0.9,4.5-3.8,4.8c-2.4,0.3-4.9,0.1-7.5,0.1C401.4,502.5,401.5,497.5,398.1,492.9 M544.4,519.8
			c5.5-0.6,10.7-1.1,15.9-1.9c0.8-0.1,1.9-1.4,2.1-2.3c0.6-3.6-0.2-6.9-1.7-10.2c-0.5-1-0.3-2.6,0-3.7c1.4-4.7,3.3-9.2,4.4-13.9
			c0.6-2.6,0.1-5.5,0.1-8.6c2,1,3,0.8,3.1-1.1c0.1-1,0.8-2,0.7-2.9c0-0.9-0.5-2-1.2-2.5c-1.8-1.5-3.8-2.7-5.9-4.1
			c-0.2,3.1-3.6,6.4,0.6,9.5c0.2,0.1,0.2,0.5,0.2,0.8c0.1,7.3-0.7,14.5-4.4,21.6c-0.6-1.1-1.1-1.8-1.5-2.6
			c-5.3-9-10.6-18.1-17.8-25.7c-0.9-0.9-1.9-1.8-3-2.4c-2.1-1.1-3-0.6-3.3,1.8c-0.7,5.2,2.2,11.3,6.8,13.8c0.7,0.4,1.7,0.1,2.6,0.3
			c1.3,0.3,3.1,0.4,3.8,1.3c2.3,2.8,4.3,5.8,6.2,8.9c5.4,8.8,5.3,9.8-3.6,15.3C544.9,512.9,544.2,515.6,544.4,519.8 M499.4,495.6
			c4.1,5.2,5,7.6,4.4,11.9h-16.3c-0.7-10-1.3-20-11.9-25.6c-0.2,2.2-0.5,4-0.5,5.7c0,0.7,0.5,1.8,1.1,2.1c6.4,3.7,9.7,10.4,8.4,17.9
			c-3.7,0-7.5,0-11.3,0c-3,0-6.4,0.8-8.2-3.1c-2.4,7-0.5,9.8,6.1,9.8c11,0,22,0,33,0c0.8,0,1.6-0.1,2.3-0.2
			c0.7-12.7,0.5-20.2-4.4-24.3C501.2,491.8,500.3,493.7,499.4,495.6 M428.2,526.9l-0.3,1.3c3.1,1,6.1,2.1,9.2,2.9
			c5.3,1.3,10.4,1.3,14.9-2.6c9.2-7.8,9.8-20.2,6.7-30.1c-1.2-3.9-5.8-4.5-8.5-1.4c-2.4,2.6-3.2,5.7-3.3,9.2c-0.1,4,1.6,6.5,5.5,7.5
			c1.6,0.4,3.2,0.5,5.2,0.8c-3,4.3-6.1,8-10.2,10.8C441.3,529.6,434.8,528.7,428.2,526.9 M497.4,478.1c2.3,1.2,4.2,2.2,6.2,3.3
			c1-1.9,2-3.6,3-5.5c-2.2-1.1-4.2-2.1-6.3-3.2C499.3,474.5,498.4,476.2,497.4,478.1 M488.5,481.7c2.2,1.1,4.1,2.1,6.2,3.2
			c1-1.9,1.9-3.6,2.9-5.6c-2.1-1.1-4.1-2.1-6.3-3.2C490.3,478.2,489.4,479.9,488.5,481.7 M250.5,536.6c-0.6,0.6-1.2,1.1-1.7,1.6
			c-0.6,0.6-1.1,1.2-1.7,1.8c4.2,3.3,4.2,3.3,7.5-0.6C253.2,538.5,251.9,537.6,250.5,536.6 M258.4,536.5c-1.2,1.3-2.2,2.3-3.2,3.4
			c3.9,3.4,4.6,3.3,7.2-0.6C261.2,538.4,259.9,537.5,258.4,536.5"/>
		<path fill="#707070" stroke="#FFFFFF" stroke-width="2" d="M291.8,507.7c-1.8,0-3,0-4.3,0c-6.4,0.1-12.8,0.1-19.1,0.5
			c-6.2,0.4-11.2,5.5-11.4,11c-0.1,2.2,0.9,3.3,3,3.4c2.4,0.2,4.8,0.2,7.2,0.6c1.1,0.2,2.1,0.8,3.1,1.3c-0.9,0.8-1.7,2.1-2.7,2.2
			c-5.1,0.7-10.2,1.3-15.4,1.4c-2.8,0.1-5.7-0.6-8.4-1.5c-6.1-2-8-6.2-5.7-12.1c0.9-2.3,2.3-4.4,3.4-6.7c0.2-0.4,0-1.1,0-1.6
			c-0.4,0.2-1.1,0.3-1.3,0.7c-2.1,4.1-4.6,8.1-6,12.4c-2.2,6.9,0.6,11.5,7.8,13.8c8.2,2.6,16.6,2.1,24.8-0.7
			c4.8-1.6,7.9-6.5,7.3-11.5c-0.1-1-1.4-2.4-2.4-2.6c-2.9-0.6-5.9-0.7-8.8-1c-0.9-0.1-1.7-0.5-2.6-0.8c0-0.3,0-0.6,0-0.9
			c1.4-0.3,2.7-0.7,4.1-0.7c4.5-0.1,9,0,13.6-0.1c7.8-0.1,15.5-0.3,23.3-0.3c9.2,0,18.2-1.5,27-4.2c1-0.3,2.2-1.1,2.7-2
			c0.9-1.6,1.4-3.5,2.2-5.4c-6,1.3-11.7,2.3-17.3,3.9c-4.9,1.4-7.7-1-10.2-4.5c-2.2-3.2-1.6-5.6,2.2-6.5c3.1-0.8,6.4-1,9.6-1
			c2.7,0,5.5,0.7,8.5,1.1c-4.6-7.7-11.3-8.6-18.5-6.4c-3,0.9-5.1,2.9-6.6,5.7c-2.3,4.4-0.1,8.4,1.2,12.6h-6.3
			c-1.5-10.3-3.1-20.5-4.6-30.8c3-0.5,2.2-2.8,2.6-4.6c0.4-2.1-0.2-3.1-2.3-3.9c-1.7-0.7-3.1-2.1-4.9-3.4c-0.4,1.8-0.9,4-1.2,6.3
			c-0.1,0.8-0.2,2.2,0.2,2.4c2.6,1.3,2,3.8,2.3,5.9C289.1,488.6,290.4,498,291.8,507.7z M398.1,492.9c-0.8,1.8-1.3,3.4-2.1,4.9
			c-1,1.9-0.8,3.3,0.5,5.1c1.1,1.6,1.9,3.6,2.5,5.5c1.9,6.8,0.1,10.8-6.3,13.8c-6.3,2.9-13,3.6-19.8,2.1c-5.3-1.1-8.3-5.4-7.3-10.7
			c0.7-3.9,2.3-7.6,3.4-11.4c0.2-0.7,0.3-1.5,0.4-2.2c-0.9,0-1.2,0.2-1.3,0.5c-3,6-5.5,12.1-5.6,19c-0.1,5.3,2.6,9.3,7.6,10.9
			c5.8,1.8,11.7,1.6,17.5,0.2c6.5-1.6,11.4-5.2,13.5-11.9c0.4-1.3,0.6-2.7,0.9-4.1c0.7-0.1,1.2-0.2,1.7-0.2
			c3.7-0.1,7.4,0.4,10.7-2.1c0.4-0.3,1.5,0.2,2.2,0.6c2.8,1.5,5.7,1.7,8.8,1.3c0.8-9.8,0.5-17.3-2.9-19.6c-2,2-2.8,4-0.4,6.3
			c0.4,0.4,0.9,1.1,0.9,1.7c0.1,1.5-0.1,3.1-0.2,4.6c-1.8-0.4-3.9-0.3-5.3-1.3c-1.2-0.8-1.7-2.8-2.3-4.3c-0.5-1.4-0.7-2.8-1-4.4
			c-1.1,1.4-1.1,1.4-1,5.5c0.1,3-0.9,4.5-3.8,4.8c-2.4,0.3-4.9,0.1-7.5,0.1C401.4,502.5,401.5,497.5,398.1,492.9z M544.4,519.8
			c5.5-0.6,10.7-1.1,15.9-1.9c0.8-0.1,1.9-1.4,2.1-2.3c0.6-3.6-0.2-6.9-1.7-10.2c-0.5-1-0.3-2.6,0-3.7c1.4-4.7,3.3-9.2,4.4-13.9
			c0.6-2.6,0.1-5.5,0.1-8.6c2,1,3,0.8,3.1-1.1c0.1-1,0.8-2,0.7-2.9c0-0.9-0.5-2-1.2-2.5c-1.8-1.5-3.8-2.7-5.9-4.1
			c-0.2,3.1-3.6,6.4,0.6,9.5c0.2,0.1,0.2,0.5,0.2,0.8c0.1,7.3-0.7,14.5-4.4,21.6c-0.6-1.1-1.1-1.8-1.5-2.6
			c-5.3-9-10.6-18.1-17.8-25.7c-0.9-0.9-1.9-1.8-3-2.4c-2.1-1.1-3-0.6-3.3,1.8c-0.7,5.2,2.2,11.3,6.8,13.8c0.7,0.4,1.7,0.1,2.6,0.3
			c1.3,0.3,3.1,0.4,3.8,1.3c2.3,2.8,4.3,5.8,6.2,8.9c5.4,8.8,5.3,9.8-3.6,15.3C544.9,512.9,544.2,515.6,544.4,519.8z M499.4,495.6
			c4.1,5.2,5,7.6,4.4,11.9h-16.3c-0.7-10-1.3-20-11.9-25.6c-0.2,2.2-0.5,4-0.5,5.7c0,0.7,0.5,1.8,1.1,2.1c6.4,3.7,9.7,10.4,8.4,17.9
			c-3.7,0-7.5,0-11.3,0c-3,0-6.4,0.8-8.2-3.1c-2.4,7-0.5,9.8,6.1,9.8c11,0,22,0,33,0c0.8,0,1.6-0.1,2.3-0.2
			c0.7-12.7,0.5-20.2-4.4-24.3C501.2,491.8,500.3,493.7,499.4,495.6z M428.2,526.9l-0.3,1.3c3.1,1,6.1,2.1,9.2,2.9
			c5.3,1.3,10.4,1.3,14.9-2.6c9.2-7.8,9.8-20.2,6.7-30.1c-1.2-3.9-5.8-4.5-8.5-1.4c-2.4,2.6-3.2,5.7-3.3,9.2c-0.1,4,1.6,6.5,5.5,7.5
			c1.6,0.4,3.2,0.5,5.2,0.8c-3,4.3-6.1,8-10.2,10.8C441.3,529.6,434.8,528.7,428.2,526.9z M497.4,478.1c2.3,1.2,4.2,2.2,6.2,3.3
			c1-1.9,2-3.6,3-5.5c-2.2-1.1-4.2-2.1-6.3-3.2C499.3,474.5,498.4,476.2,497.4,478.1z M488.5,481.7c2.2,1.1,4.1,2.1,6.2,3.2
			c1-1.9,1.9-3.6,2.9-5.6c-2.1-1.1-4.1-2.1-6.3-3.2C490.3,478.2,489.4,479.9,488.5,481.7z M250.5,536.6c-0.6,0.6-1.2,1.1-1.7,1.6
			c-0.6,0.6-1.1,1.2-1.7,1.8c4.2,3.3,4.2,3.3,7.5-0.6C253.2,538.5,251.9,537.6,250.5,536.6z M258.4,536.5c-1.2,1.3-2.2,2.3-3.2,3.4
			c3.9,3.4,4.6,3.3,7.2-0.6C261.2,538.4,259.9,537.5,258.4,536.5z"/>
		<path fill="#707070" stroke="#FFFFFF" stroke-width="2" d="M291.8,507.7c-1.4-9.7-2.6-19.1-4-28.4c-0.3-2.1,0.3-4.5-2.3-5.9
			c-0.4-0.2-0.3-1.6-0.2-2.4c0.4-2.2,0.9-4.4,1.2-6.3c1.8,1.3,3.2,2.7,4.9,3.4c2,0.8,2.7,1.8,2.3,3.9c-0.4,1.8,0.4,4.2-2.6,4.6
			c1.6,10.3,3.1,20.5,4.6,30.8h6.3c-1.4-4.2-3.5-8.3-1.2-12.6c1.4-2.7,3.6-4.8,6.6-5.7c7.2-2.2,13.9-1.3,18.5,6.4
			c-3-0.4-5.8-1.1-8.5-1.1c-3.2,0-6.5,0.2-9.6,1c-3.7,1-4.4,3.4-2.2,6.5c2.4,3.5,5.3,5.9,10.2,4.5c5.6-1.6,11.3-2.6,17.3-3.9
			c-0.7,1.9-1.2,3.8-2.2,5.4c-0.5,0.9-1.7,1.7-2.7,2c-8.8,2.8-17.8,4.2-27,4.2c-7.8,0-15.5,0.2-23.3,0.3c-4.5,0-9.1,0-13.6,0.1
			c-1.4,0-2.7,0.5-4.1,0.7c0,0.3,0,0.6,0,0.9c0.9,0.3,1.7,0.7,2.6,0.8c2.9,0.4,5.9,0.4,8.8,1c1,0.2,2.3,1.6,2.4,2.6
			c0.5,5.1-2.5,9.9-7.3,11.5c-8.2,2.8-16.6,3.3-24.8,0.7c-7.2-2.3-10-6.9-7.8-13.8c1.4-4.3,3.9-8.3,6-12.4c0.2-0.4,0.8-0.5,1.3-0.7
			c0,0.5,0.3,1.2,0,1.6c-1.1,2.2-2.5,4.3-3.4,6.7c-2.3,5.9-0.4,10.1,5.7,12.1c2.7,0.9,5.6,1.6,8.4,1.5c5.1-0.1,10.3-0.8,15.4-1.4
			c1-0.1,1.8-1.4,2.7-2.2c-1-0.4-2-1.1-3.1-1.3c-2.4-0.3-4.8-0.4-7.2-0.6c-2.1-0.1-3.1-1.2-3-3.4c0.2-5.4,5.2-10.5,11.4-11
			c6.4-0.4,12.8-0.4,19.1-0.5C288.7,507.7,290,507.7,291.8,507.7"/>
		<path fill="#707070" stroke="#FFFFFF" stroke-width="2" d="M291.8,507.7c-1.4-9.7-2.6-19.1-4-28.4c-0.3-2.1,0.3-4.5-2.3-5.9
			c-0.4-0.2-0.3-1.6-0.2-2.4c0.4-2.2,0.9-4.4,1.2-6.3c1.8,1.3,3.2,2.7,4.9,3.4c2,0.8,2.7,1.8,2.3,3.9c-0.4,1.8,0.4,4.2-2.6,4.6
			c1.6,10.3,3.1,20.5,4.6,30.8h6.3c-1.4-4.2-3.5-8.3-1.2-12.6c1.4-2.7,3.6-4.8,6.6-5.7c7.2-2.2,13.9-1.3,18.5,6.4
			c-3-0.4-5.8-1.1-8.5-1.1c-3.2,0-6.5,0.2-9.6,1c-3.7,1-4.4,3.4-2.2,6.5c2.4,3.5,5.3,5.9,10.2,4.5c5.6-1.6,11.3-2.6,17.3-3.9
			c-0.7,1.9-1.2,3.8-2.2,5.4c-0.5,0.9-1.7,1.7-2.7,2c-8.8,2.8-17.8,4.2-27,4.2c-7.8,0-15.5,0.2-23.3,0.3c-4.5,0-9.1,0-13.6,0.1
			c-1.4,0-2.7,0.5-4.1,0.7c0,0.3,0,0.6,0,0.9c0.9,0.3,1.7,0.7,2.6,0.8c2.9,0.4,5.9,0.4,8.8,1c1,0.2,2.3,1.6,2.4,2.6
			c0.5,5.1-2.5,9.9-7.3,11.5c-8.2,2.8-16.6,3.3-24.8,0.7c-7.2-2.3-10-6.9-7.8-13.8c1.4-4.3,3.9-8.3,6-12.4c0.2-0.4,0.8-0.5,1.3-0.7
			c0,0.5,0.3,1.2,0,1.6c-1.1,2.2-2.5,4.3-3.4,6.7c-2.3,5.9-0.4,10.1,5.7,12.1c2.7,0.9,5.6,1.6,8.4,1.5c5.1-0.1,10.3-0.8,15.4-1.4
			c1-0.1,1.8-1.4,2.7-2.2c-1-0.4-2-1.1-3.1-1.3c-2.4-0.3-4.8-0.4-7.2-0.6c-2.1-0.1-3.1-1.2-3-3.4c0.2-5.4,5.2-10.5,11.4-11
			c6.4-0.4,12.8-0.4,19.1-0.5C288.7,507.7,290,507.7,291.8,507.7z"/>
		<path fill="#707070" stroke="#FFFFFF" stroke-width="2" d="M398.1,492.9c3.4,4.7,3.3,9.7,3.8,14.6c2.6,0,5.1,0.2,7.5-0.1
			c2.8-0.3,3.8-1.9,3.8-4.8c-0.1-4.1-0.1-4.1,1-5.5c0.3,1.6,0.5,3,1,4.4c0.6,1.5,1.1,3.5,2.3,4.3c1.4,1,3.5,0.9,5.3,1.3
			c0.1-1.5,0.2-3.1,0.2-4.6c0-0.6-0.4-1.3-0.9-1.7c-2.4-2.3-1.6-4.3,0.4-6.3c3.4,2.4,3.7,9.8,2.9,19.6c-3.1,0.5-6,0.3-8.8-1.3
			c-0.7-0.4-1.8-0.9-2.2-0.6c-3.2,2.5-7,1.9-10.7,2.1c-0.5,0-1.1,0.1-1.7,0.2c-0.3,1.4-0.5,2.8-0.9,4.1c-2,6.7-7,10.3-13.4,11.9
			c-5.8,1.4-11.7,1.6-17.5-0.2c-5.1-1.6-7.7-5.6-7.6-10.9c0.1-6.9,2.6-13,5.6-19c0.1-0.3,0.5-0.5,1.3-0.5c-0.1,0.7-0.2,1.5-0.4,2.2
			c-1.1,3.8-2.7,7.5-3.4,11.4c-1,5.3,2,9.6,7.3,10.7c6.8,1.5,13.5,0.8,19.8-2.1c6.4-3,8.2-7,6.3-13.8c-0.5-1.9-1.3-3.9-2.5-5.5
			c-1.2-1.7-1.4-3.2-0.5-5.1C396.8,496.3,397.4,494.7,398.1,492.9"/>
		<path fill="#707070" stroke="#FFFFFF" stroke-width="2" d="M398.1,492.9c3.4,4.7,3.3,9.7,3.8,14.6c2.6,0,5.1,0.2,7.5-0.1
			c2.8-0.3,3.8-1.9,3.8-4.8c-0.1-4.1-0.1-4.1,1-5.5c0.3,1.6,0.5,3,1,4.4c0.6,1.5,1.1,3.5,2.3,4.3c1.4,1,3.5,0.9,5.3,1.3
			c0.1-1.5,0.2-3.1,0.2-4.6c0-0.6-0.4-1.3-0.9-1.7c-2.4-2.3-1.6-4.3,0.4-6.3c3.4,2.4,3.7,9.8,2.9,19.6c-3.1,0.5-6,0.3-8.8-1.3
			c-0.7-0.4-1.8-0.9-2.2-0.6c-3.2,2.5-7,1.9-10.7,2.1c-0.5,0-1.1,0.1-1.7,0.2c-0.3,1.4-0.5,2.8-0.9,4.1c-2,6.7-7,10.3-13.4,11.9
			c-5.8,1.4-11.7,1.6-17.5-0.2c-5.1-1.6-7.7-5.6-7.6-10.9c0.1-6.9,2.6-13,5.6-19c0.1-0.3,0.5-0.5,1.3-0.5c-0.1,0.7-0.2,1.5-0.4,2.2
			c-1.1,3.8-2.7,7.5-3.4,11.4c-1,5.3,2,9.6,7.3,10.7c6.8,1.5,13.5,0.8,19.8-2.1c6.4-3,8.2-7,6.3-13.8c-0.5-1.9-1.3-3.9-2.5-5.5
			c-1.2-1.7-1.4-3.2-0.5-5.1C396.8,496.3,397.4,494.7,398.1,492.9z"/>
		<path fill="#707070" stroke="#FFFFFF" stroke-width="2" d="M544.4,519.8c-0.2-4.2,0.5-6.9,3.9-9c8.9-5.5,9-6.5,3.6-15.3
			c-1.9-3.1-3.9-6.1-6.2-8.9c-0.7-0.9-2.5-0.9-3.8-1.3c-0.8-0.2-1.9,0.1-2.6-0.3c-4.6-2.5-7.6-8.6-6.8-13.8c0.3-2.3,1.3-2.9,3.3-1.8
			c1.1,0.6,2.1,1.5,3,2.4c7.2,7.7,12.5,16.7,17.8,25.7c0.4,0.8,0.9,1.5,1.5,2.6c3.7-7,4.5-14.2,4.4-21.6c0-0.3,0-0.7-0.2-0.8
			c-4.2-3.1-0.8-6.4-0.6-9.5c2.1,1.5,4.1,2.7,5.9,4.1c0.7,0.5,1.1,1.6,1.2,2.5c0.1,1-0.6,1.9-0.7,2.9c-0.2,1.9-1.2,2.1-3.1,1.1
			c0,3.2,0.5,6-0.1,8.6c-1.1,4.7-3,9.3-4.4,13.9c-0.3,1.2-0.5,2.7,0,3.7c1.5,3.3,2.4,6.7,1.7,10.2c-0.2,0.9-1.3,2.2-2.1,2.3
			C555.1,518.7,549.9,519.2,544.4,519.8 M550.7,512.8c0,0.2,0.1,0.4,0.1,0.6c2.1-0.2,4.1-0.2,6.2-0.5c2.5-0.3,3-1.8,2-3.9
			c-0.4-0.8-0.8-1.5-1.2-2.3C555.2,508.8,553,510.8,550.7,512.8"/>
		<path fill="#707070" stroke="#FFFFFF" stroke-width="2" d="M544.4,519.8c-0.2-4.2,0.5-6.9,3.9-9c8.9-5.5,9-6.5,3.6-15.3
			c-1.9-3.1-3.9-6.1-6.2-8.9c-0.7-0.9-2.5-0.9-3.8-1.3c-0.8-0.2-1.9,0.1-2.6-0.3c-4.6-2.5-7.6-8.6-6.8-13.8c0.3-2.3,1.3-2.9,3.3-1.8
			c1.1,0.6,2.1,1.5,3,2.4c7.2,7.7,12.5,16.7,17.8,25.7c0.4,0.8,0.9,1.5,1.5,2.6c3.7-7,4.5-14.2,4.4-21.6c0-0.3,0-0.7-0.2-0.8
			c-4.2-3.1-0.8-6.4-0.6-9.5c2.1,1.5,4.1,2.7,5.9,4.1c0.7,0.5,1.1,1.6,1.2,2.5c0.1,1-0.6,1.9-0.7,2.9c-0.2,1.9-1.2,2.1-3.1,1.1
			c0,3.2,0.5,6-0.1,8.6c-1.1,4.7-3,9.3-4.4,13.9c-0.3,1.2-0.5,2.7,0,3.7c1.5,3.3,2.4,6.7,1.7,10.2c-0.2,0.9-1.3,2.2-2.1,2.3
			C555.1,518.7,549.9,519.2,544.4,519.8z M550.7,512.8c0,0.2,0.1,0.4,0.1,0.6c2.1-0.2,4.1-0.2,6.2-0.5c2.5-0.3,3-1.8,2-3.9
			c-0.4-0.8-0.8-1.5-1.2-2.3C555.2,508.8,553,510.8,550.7,512.8z"/>
		<path fill="#707070" stroke="#FFFFFF" stroke-width="2" d="M499.4,495.6c0.9-1.9,1.9-3.8,2.8-5.8c5,4,5.1,11.5,4.4,24.3
			c-0.7,0.1-1.5,0.2-2.3,0.2c-11,0-22,0-33,0c-6.6,0-8.5-2.9-6.1-9.8c1.8,3.9,5.1,3.1,8.2,3.1c3.8,0,7.5,0,11.3,0
			c1.3-7.6-1.9-14.2-8.4-18c-0.6-0.3-1.1-1.4-1.1-2.1c0-1.7,0.3-3.5,0.5-5.7c10.5,5.6,11.2,15.6,11.9,25.6h16.3
			C504.3,503.2,503.5,500.9,499.4,495.6"/>
		<path fill="#707070" stroke="#FFFFFF" stroke-width="2" d="M499.4,495.6c0.9-1.9,1.9-3.8,2.8-5.8c5,4,5.1,11.5,4.4,24.3
			c-0.7,0.1-1.5,0.2-2.3,0.2c-11,0-22,0-33,0c-6.6,0-8.5-2.9-6.1-9.8c1.8,3.9,5.1,3.1,8.2,3.1c3.8,0,7.5,0,11.3,0
			c1.3-7.6-1.9-14.2-8.4-18c-0.6-0.3-1.1-1.4-1.1-2.1c0-1.7,0.3-3.5,0.5-5.7c10.5,5.6,11.2,15.6,11.9,25.6h16.3
			C504.3,503.2,503.5,500.9,499.4,495.6z"/>
		<path fill="#707070" stroke="#FFFFFF" stroke-width="2" d="M428.2,526.9c6.6,1.7,13.1,2.7,19.2-1.5c4.1-2.8,7.2-6.5,10.2-10.8
			c-2-0.3-3.6-0.4-5.2-0.8c-3.9-1.1-5.6-3.6-5.5-7.5c0.1-3.4,1-6.6,3.3-9.2c2.8-3,7.3-2.4,8.5,1.4c3.1,9.9,2.5,22.3-6.7,30.1
			c-4.6,3.8-9.6,3.8-14.9,2.6c-3.1-0.7-6.1-1.9-9.2-2.9L428.2,526.9z M457.3,508c0.2-0.2,0.4-0.5,0.6-0.7c-0.7-1.5-1.1-3.2-2-4.3
			c-0.7-0.8-2.2-1.4-3.3-1.3c-0.8,0.1-2,1.4-2,2.1c0.1,1.1,0.9,2.6,1.8,3C453.8,507.6,455.6,507.7,457.3,508"/>
		<path fill="#707070" stroke="#FFFFFF" stroke-width="2" d="M428.2,526.9c6.6,1.7,13.1,2.7,19.2-1.5c4.1-2.8,7.2-6.5,10.2-10.8
			c-2-0.3-3.6-0.4-5.2-0.8c-3.9-1.1-5.6-3.6-5.5-7.5c0.1-3.4,1-6.6,3.3-9.2c2.8-3,7.3-2.4,8.5,1.4c3.1,9.9,2.5,22.3-6.7,30.1
			c-4.6,3.8-9.6,3.8-14.9,2.6c-3.1-0.7-6.1-1.9-9.2-2.9L428.2,526.9z M457.3,508c0.2-0.2,0.4-0.5,0.6-0.7c-0.7-1.5-1.1-3.2-2-4.3
			c-0.7-0.8-2.2-1.4-3.3-1.3c-0.8,0.1-2,1.4-2,2.1c0.1,1.1,0.9,2.6,1.8,3C453.8,507.6,455.6,507.7,457.3,508z"/>
		<path fill="#707070" stroke="#FFFFFF" stroke-width="2" d="M497.4,478.1c1-2,1.9-3.6,2.9-5.5c2.2,1.1,4.1,2.1,6.3,3.2
			c-1,1.8-1.9,3.6-3,5.5C501.5,480.3,499.6,479.3,497.4,478.1"/>
		<path fill="#707070" stroke="#FFFFFF" stroke-width="2" d="M497.4,478.1c1-2,1.9-3.6,2.9-5.5c2.2,1.1,4.1,2.1,6.3,3.2
			c-1,1.8-1.9,3.6-3,5.5C501.5,480.3,499.6,479.3,497.4,478.1z"/>
		<path fill="#707070" stroke="#FFFFFF" stroke-width="2" d="M488.5,481.7c1-1.9,1.8-3.6,2.8-5.5c2.2,1.1,4.2,2.1,6.3,3.2
			c-1,1.9-1.9,3.6-2.9,5.6C492.5,483.9,490.6,482.9,488.5,481.7"/>
		<path fill="#707070" stroke="#FFFFFF" stroke-width="2" d="M488.5,481.7c1-1.9,1.8-3.6,2.8-5.5c2.2,1.1,4.2,2.1,6.3,3.2
			c-1,1.9-1.9,3.6-2.9,5.6C492.5,483.9,490.6,482.9,488.5,481.7z"/>
		<path fill="#707070" stroke="#FFFFFF" stroke-width="2" d="M250.5,536.6c1.4,1,2.7,1.9,4.1,2.8c-3.3,3.9-3.3,3.9-7.5,0.6
			c0.6-0.6,1.1-1.2,1.7-1.8C249.3,537.7,249.8,537.2,250.5,536.6"/>
		<path fill="#707070" stroke="#FFFFFF" stroke-width="2" d="M250.5,536.6c1.4,1,2.7,1.9,4.1,2.8c-3.3,3.9-3.3,3.9-7.5,0.6
			c0.6-0.6,1.1-1.2,1.7-1.8C249.3,537.7,249.8,537.2,250.5,536.6z"/>
		<path fill="#707070" stroke="#FFFFFF" stroke-width="2" d="M258.4,536.5c1.5,1,2.8,1.9,4,2.8c-2.6,3.9-3.4,4-7.2,0.6
			C256.2,538.8,257.2,537.8,258.4,536.5"/>
		<path fill="#707070" stroke="#FFFFFF" stroke-width="2" d="M258.4,536.5c1.5,1,2.8,1.9,4,2.8c-2.6,3.9-3.4,4-7.2,0.6
			C256.2,538.8,257.2,537.8,258.4,536.5z"/>
		<path fill="#707070" stroke="#FFFFFF" stroke-width="2" d="M550.7,512.8c2.3-2,4.6-3.9,7.1-6.1c0.4,0.8,0.9,1.5,1.2,2.3
			c1,2.1,0.5,3.6-2,3.9c-2.1,0.2-4.1,0.3-6.2,0.5C550.7,513.2,550.7,513,550.7,512.8"/>
		<path fill="#707070" stroke="#FFFFFF" stroke-width="2" d="M550.7,512.8c2.3-2,4.6-3.9,7.1-6.1c0.4,0.8,0.9,1.5,1.2,2.3
			c1,2.1,0.5,3.6-2,3.9c-2.1,0.2-4.1,0.3-6.2,0.5C550.7,513.2,550.7,513,550.7,512.8z"/>
		<path fill="#707070" stroke="#FFFFFF" stroke-width="2" d="M457.3,508c-1.7-0.4-3.5-0.4-4.9-1.2c-0.9-0.5-1.7-2-1.8-3
			c-0.1-0.7,1.2-2.1,2-2.1c1.1-0.1,2.6,0.4,3.3,1.3c1,1.2,1.4,2.9,2,4.3C457.7,507.5,457.5,507.8,457.3,508"/>
		<path fill="#707070" stroke="#FFFFFF" stroke-width="2" d="M457.3,508c-1.7-0.4-3.5-0.4-4.9-1.2c-0.9-0.5-1.7-2-1.8-3
			c-0.1-0.7,1.2-2.1,2-2.1c1.1-0.1,2.6,0.4,3.3,1.3c1,1.2,1.4,2.9,2,4.3C457.7,507.5,457.5,507.8,457.3,508z"/>
	</g>
</g>
</svg>
