<?xml version="1.0" encoding="utf-8"?>
<!-- Generator: Adobe Illustrator 18.0.0, SVG Export Plug-In . SVG Version: 6.00 Build 0)  -->
<!DOCTYPE svg PUBLIC "-//W3C//DTD SVG 1.1//EN" "http://www.w3.org/Graphics/SVG/1.1/DTD/svg11.dtd">
<svg version="1.1" id="Layer_1" xmlns="http://www.w3.org/2000/svg" xmlns:xlink="http://www.w3.org/1999/xlink" x="0px" y="0px"
	 viewBox="0 84 792 528" enable-background="new 0 84 792 528" xml:space="preserve">
<g id="svg2" xmlns:dc="http://purl.org/dc/elements/1.1/" xmlns:cc="http://creativecommons.org/ns#" xmlns:rdf="http://www.w3.org/1999/02/22-rdf-syntax-ns#" xmlns:svg="http://www.w3.org/2000/svg" xmlns:sodipodi="http://sodipodi.sourceforge.net/DTD/sodipodi-0.dtd" xmlns:inkscape="http://www.inkscape.org/namespaces/inkscape" inkscape:output_extension="org.inkscape.output.svg.inkscape" sodipodi:version="0.32" inkscape:version="0.46" sodipodi:docname="Gadsden_flag.svg">
	
		<sodipodi:namedview  inkscape:cx="527.25118" inkscape:cy="300" id="base" borderopacity="1.0" gridtolerance="10.0" objecttolerance="10.0" guidetolerance="10.0" bordercolor="#666666" pagecolor="#ffffff" showgrid="false" inkscape:zoom="0.6" inkscape:window-height="912" inkscape:pageopacity="0.0" inkscape:window-x="0" inkscape:window-y="25" inkscape:current-layer="layer1" inkscape:window-width="1265" inkscape:pageshadow="2">
		</sodipodi:namedview>
	<defs>
		
		
			<inkscape:perspective  sodipodi:type="inkscape:persp3d" inkscape:vp_x="0 : 300 : 1" inkscape:vp_y="0 : 1000 : 0" inkscape:vp_z="900 : 300 : 1" id="perspective25" inkscape:persp3d-origin="450 : 200 : 1">
			</inkscape:perspective>
	</defs>
	<g id="layer1" transform="translate(837.14282,-33.076481)">
		<rect id="rect18474" x="-837.1" y="117.1" width="792" height="528"/>
		<path id="path6091" fill="#F5DC00" d="M-439.9,447.4c-0.4,0.2-2.6,3-5,6.5c-3.4,5-5.3,7-6.9,7.1c-1.2,0.2-2.6,0.6-3,1.1
			c-1.5,1.4-2.2,0.9-2.8-2.5c-0.4-1.8-1-4-1.5-5.1c-1.5-2.9-5.3-7.6-5.7-7.1c-0.3,0.3,0,1,0.6,1.7c1.4,1.7,0.9,10.4-0.6,10.9
			c-0.6,0.2-1.1-0.3-1.1-1s-0.6-1.8-1.3-2.4c-1.1-0.9-1.3-0.9-1.3,0.4c0,0.8-0.6,1.4-1.3,1.4c-0.8,0-1.3-0.8-1.3-2
			c0-2.8-1.7-4.4-3.3-3.1c-1,0.8-1.9,0.3-4.7-2.4c-3.7-3.6-4-3.4-2.6,1.1c0.7,2.4,0.5,3-0.8,3.7c-2.2,1.1-2.6,1.1-2.6-0.4
			c0-1-6.1-5.8-7.3-5.8c-0.2,0-0.1,1.1,0.1,2.6c0.5,3.7-1.3,4.2-4.4,1.3l-2.7-2.5l0.5,2.8l0.5,2.8l-2.6-1.3
			c-3.5-1.8-3.7-1.8-3.3,1.6c0.3,2.5,1,3.3,5.5,5.7c9,4.8,24.1,9.3,35.2,10.5l5.1,0.5l1.1,0.1c16.7,1.1,34.5-0.5,49.1-9.1
			c-0.6,0-0.9-0.6-0.5-1.5c0.4-1.2,0.2-1.4-2.2-1c-3.8,0.8-4.3-0.6-1.6-4.8l2.3-3.5l-6.2,3.1c-3.4,1.7-6.5,3-6.9,2.9
			s-1.6,0.2-2.7,0.5s-2.3,0.5-2.5,0.3c-0.6-0.6,2.7-7,5.5-10.4s1.5-2.6-6.4,4.2c-4.8,4.2-8.7,6.4-10.9,6.4c-1.1,0-1.1-6.7,0-10.6
			C-439.9,449-439.7,447.5-439.9,447.4L-439.9,447.4z"/>
		<path id="path6089" d="M-430.8,460.7c1,0,1-0.2-0.1,3.3c-0.7,2.6-0.7,2.8,0.7,2.3c5.3-2.2,3.8,1.1-4.4,4.3
			c0.2-0.3,0.2-0.5,0.2-0.9C-434.4,467.2-431.9,460.7-430.8,460.7z"/>
		<path id="path3164" d="M-448.3,462.8c0.3,0,0.6,0,1,0l3.3,0.2l-2.4,4.2c-1.8,3.3-2.4,3.8-2.7,2.5c-0.4-1.6-0.6-1.5-2.8,0.4
			c-0.9,0.8-2.6,1.3-3.6,1.7l-1.7-2c-1.3-1.6-2.4-3.7-2.4-4.8c0-1.6,0.3-1.5,1.6,1l1.6,2.9l3-3.1
			C-451.5,463.5-450.3,462.8-448.3,462.8z"/>
		<path id="path9992" fill="#F5DC00" d="M-327.8,463c-0.4,4.2-1,7.5-1.4,7.2s-0.8-1.3-0.8-2.4c0-1.8-0.1-1.8-2.5,0.5
			c-2.5,2.4-2.5,2.4-4,0.6c-1.6-1.7-1.7-1.6-4.8,3.3c-8.6,13.2-27.8,25.6-47.1,30.5c-4.5,1.1-14.5,3.2-22.2,4.5
			c-12.6,2.2-16.1,2.5-34.7,2.5c-16.6,0-22.2-0.3-28-1.5c-2.8-0.6-6.5-2.7-8.7-4l-17.3-7.9L-523,483c-4.9-4.6-5.8-5.1-5-3.1
			c0.5,1.3,0.8,2.6,0.5,2.9c-0.2,0.3-3-1.4-6.2-3.6l-5.7-4l1.7,4.1c0.9,2.3,1.9,4.9,2.3,5.8c0.6,1.4,0.4,1.6-1.7,1.1
			c-2-0.4-2.4-0.3-2.4,1.4c0,1.8-0.2,1.8-1.2,0.7c-0.7-0.7-2.2-3.3-3.4-5.6l-2.2-4.3l-1.4,4.8c-0.8,2.6-1.4,5.8-1.4,7.2
			c0,3-1.2,2.6-3.5-1.2l-1.6-2.6l-0.6,2.7c-0.7,3.3-0.8,3.3-4.2,0.8l-2.7-1.9l-1.6,1.9c-0.8,1.1-2.1,1.9-3,1.9s-5-2-5.3-1.1
			c-2.6,0.4-10.6,5-15.2,5.4c-11.9,0.3-23.8-1.2-35.4-4.2c-2.9-1.4-5.8-2.6-6.5-2.6s-2.7-1-4.5-2.2c-4-2.7-4.6-2.7-2.7,0.1
			c0.8,1.3,1.3,2.5,1.1,2.7c-0.3,0.2-4.5-0.8-9.4-2.3c-5-1.4-9.2-2.6-9.5-2.6c-1.1,0,3.3,3.9,8,7c5.9,4,4.9,4.4-4.2,1.8
			c-3.3-1-6.2-1.6-6.4-1.4s3.7,2.7,8.7,5.7c5.9,3.5,8.4,5.4,7,5.4c-1.1,0-7.6-1.1-14.4-2.6c-6.9-1.5-12.6-2.6-12.8-2.4
			c-0.5,0.5,9.6,5.5,15.1,7.6c2.9,1.1,8.3,2.5,11.9,3.1l6.6,1.2l-12.8,0.1c-8.5,0-13.8-0.4-16-1.1c-1.8-0.6-3.3-1.1-3.3-0.9
			s1.8,1.4,4.1,2.7c3.2,1.8,5.2,2.4,8.6,2.3c5.9-0.1,19.3,3.3,18.7,4.8c-1,2.6,9.4,0,11.1-2.6c0.9-1.4,19.2-1.1,20.1,0.3
			c0.4,0.7,1.3,0.7,2.9,0.1c1.9-0.8,2.4-0.7,2.4,0.4c0,1.5,1.1,1.6,2.5,0.2c0.9-0.9,1.5-0.9,2.8,0c1.1,0.7,2.4,0.8,4,0.2
			c3.3-1.2,3.9-1.1,3.3,0.9c-0.5,2.1-0.4,2.1,4.3,0.3c2.9-1.1,3.9-1.2,4.1-0.4c0.2,0.8,1.1,0.4,2.9-1.3c2-1.9,2.8-2.2,3.3-1.3
			c0.4,0.7,1.4,0.9,2.6,0.5c1.1-0.4,2.5-0.2,3.1,0.4c0.9,0.7,1.5,0.6,2.3-0.4c1.7-1.9,2.9-1.7,2.2,0.5c-0.6,1.8-0.3,1.7,4.4-1
			c3.5-2,5.2-2.6,5.6-1.8c0.5,0.8,1.8,0.6,4.8-0.7c3.9-1.7,4.1-1.7,4.9-0.2c0.8,1.4,1.5,1.5,5.9,0.8c7.3-1.1,8.2-0.7,4.2,2.1
			c-1.8,1.4-3.2,2.5-2.8,2.5c1.1,0,14.2-2.6,16-3.2c1.7-0.5,1.8-0.4,0.5,1c-1.2,1.4-1.1,1.5,0.4,1.1c1-0.3,3.7-0.8,6.1-1.1
			c3.9-0.5,4.2-0.4,3.7,1c-0.4,1.2-0.2,1.4,1.4,1.1c5.3-1.2,10.4-1.7,10.4-0.8c0,0.6,1.1,0.7,3.2,0.1c2.1-0.5,3.4-0.5,4.2,0.1
			c0.8,0.7,1.6,0.5,2.8-0.4c2.4-1.8,4-1.7,3.3,0.2c-0.5,1.5-0.4,1.5,1.8,0c2.3-1.5,2.4-1.4,3.7,0.4c1.1,1.6,1.4,1.7,1.4,0.5
			c0-2.5,1.8-2.7,4-0.6l2.1,2l0.1-2.1v-2.1l1.5,2.2c0.9,1.2,2.4,3.2,3.5,4.4l2,2.2l-0.6-3.3c-0.8-4.2,1.1-5.1,5.2-2.6
			c1.7,1,3.8,1.8,4.8,1.8s2.5,0.8,3.3,1.8c1.6,1.8,11.4,5.3,14.8,5.3c1.5,0,1.1-0.8-2.7-4c-4.3-3.8-5.5-5.9-3.9-6.9
			c0.4-0.3,1.8,0.1,3.2,0.8c3.2,1.7,3.2,1.7,3.2-0.4c0-2.5,1-2.2,6.5,1.3c5.6,3.6,5.8,3.6,5.8,1.3c0-1,0.1-1.8,0.2-1.8
			s2.1,0.5,4.4,1.2l4.1,1.2l-1.4-2.1c-1.3-1.9-1.3-2.2,0.2-2.7c0.9-0.4,4.2-0.1,7.6,0.4c7.7,1.3,8.8,1.2,5.8-0.4
			c-1.4-0.7-2.5-1.8-2.5-2.6c0-1.8,4-1.7,12.9,0c3.8,0.8,7.8,1.3,9.1,1.3c2.2,0,2.1-0.1-0.9-2.7c-2.8-2.5-2.9-2.6-0.9-2.2
			c7,1.5,14.2,2.5,15.1,2.1c0.6-0.3-0.4-1.1-2.4-1.9c-8.5-3.7-8.5-3.5-1-3.8l7-0.3l-2.9-1.8c-1.6-1-2.7-1.8-2.6-2
			c0.2-0.2,6.7,1,14.4,2.6c7.7,1.6,16.5,3.1,19.4,3.4l5.3,0.6l-6.2-2c-6.4-2.2-11.8-4.9-11.8-6.1c0-1.1,2.2-0.9,9.9,0.6
			c3.8,0.7,7,1.3,7.2,1.3s0.4-0.9,0.4-1.8c0-1.3,0.4-1.7,1.6-1.3c0.9,0.3,2.7,0.8,4.2,1.1c1.5,0.3,4.6,1.7,7,3
			c4.1,2.3,20.3,7.9,22.7,7.9c0.6,0-0.8-1.2-3.1-2.7c-3.9-2.5-5.3-4.2-3.4-4.2c0.7,0,15,3.9,17.6,4.8c1.1,0.4,1.1,0.3,0.1-0.9
			c-0.6-0.7-1-1.5-0.8-1.7s4.5,0.6,9.6,1.8c11.6,2.6,13,2.6,7.5,0c-5.7-2.8-3.4-2.9,9.6-0.5c5.3,1,11,1.7,12.8,1.7l3.2-0.1l-3.1-1.4
			l-3.1-1.4l7.5-0.7c9.2-0.9,15.5-2,18.9-3.4l2.6-1.1l-3.3-0.9l-3.3-0.9l2.5-2.6l2.5-2.6l-3.1,0.5c-1.7,0.3-5.4,0.9-8.3,1.4
			c-6.9,1.2-6.9,1.2-6.2-1c0.6-1.8,0.4-1.9-5.2-1.3c-4.9,0.5-5.8,0.4-5.8-0.8c0-1-0.5-1.2-1.6-1c-4.5,1.3-6.3,1.6-6.3,0.7
			c0-0.5-1.9-1.1-4.2-1.2l-4.2-0.3l4.4-1.1c2.5-0.6,7.9-1.5,12.3-2.1c4.4-0.6,8.5-1.2,9.2-1.5c2.6-0.8-5.5-3.7-10.5-3.7
			c-5.5,0-5.3-0.8,1.2-3.3l4.4-1.8l-2.6-0.7c-3.9-1-4.1-1.1-3.1-3.1c1.1-2.1,1.1-2.1-8.2,0.4c-4.3,1.1-7.7,1.8-7.7,1.6
			s1.1-1.6,2.3-2.9l2.3-2.4l-3.4,0.8c-1.8,0.4-5.4,1.4-7.7,2.1c-2.4,0.7-4.4,1.2-4.6,1.1s0.1-2.4,0.6-4.9c1.5-7.6,1.2-7.7-4.3-2.4
			c-2.9,2.8-5.5,5-5.8,5s-0.4-1.1,0-2.3c0.5-2,0.4-2.1-1.3-1.2c-1,0.6-3.3,2.5-5.3,4.1c-4,3.6-4.4,2.8-2.2-4.4
			c0.7-2.3,1.1-4.1,1-4.1c-0.2,0-2,1.4-4.1,3.2l-3.8,3.2l-0.4-3.9l-0.4-3.9l-3.5,4.8l-3.5,4.8l-0.7-4.7l-0.7-4.7l-1.7,2.7
			c-0.9,1.5-2.7,4.8-4,7.3c-1.7,3.3-2.5,4.2-3,3.3c-0.4-0.7-1.4-6.1-2.3-12.1c-0.9-5.9-1.5-8.9-2-8.9S-327.4,457.7-327.8,463z"/>
		<path id="path9990" d="M-391.4,499.7c-2.5,2.3-5.7,6.1-8.1,8.4c-3.3,3.2-6.2,5.5-6.6,5.1c-0.4-0.4,1.6-2.6,4.2-4.9
			c1.8-1.6,4.1-4.8,5.4-6.7L-391.4,499.7z"/>
		<path id="path4143" d="M-399.7,502.7c-2.4,2.2-5.2,5.3-7,7.2c-2,2.2-4,3.6-4.4,3.3c-0.4-0.4,0.8-2.2,2.7-3.9
			c1.3-1.2,3-2.9,3.6-4.1L-399.7,502.7z"/>
		<path id="path3162" d="M-305.5,496.3l0.5,2.8v2.3l2.6-1.6c0.9-0.5,3.1,0.1,3.5-0.3c5.1,0.1,18-1.8,20.7-1.8l3.5,0.2l-3.7,1.8
			c-2,1.1-3.7,2.2-3.7,2.6s3.8,0.7,8.4,0.7s8.4,0.4,8.4,0.7s-1.8,1.3-4,1.9s-4,1.4-4,1.8s1.8,1.1,4.2,1.6c3.9,0.8,3.5,0.9-4.6,1
			l-8.8,0.1l2.2-1.8l2.2-1.8l-2.2,0.4c-1.2,0.3-4.3,0.8-7,1.1l-4.8,0.6l1.5-2.1c1.6-2.2,1.9-3.9,0.7-3.1c-0.4,0.3-2.7,1.2-5.1,2.2
			l-4.4,1.8l0.4-2.2l0.4-2.2l-3.8,1.9c-2.7,1.4-4,1.6-4.4,0.9s-1.1-0.4-2,0.9l-1.3,1.9l-0.6-1.9c-0.5-1.8-0.7-1.8-1.5-0.4
			s-0.9,1.4-2-0.1c-1.1-1.6-1.2-1.5-1.2,0.1s-0.1,1.6-1.8,0.1c-1.8-1.6-1.8-1.6-1.8,0.7v2.4l-7.5-3.7c-4.1-2-7.3-3.8-7.2-4
			c0.1-0.1,2.4,0.4,5,1.1c6.4,1.7,6.4,1.8,5.8-1.4c-0.6-2.9-0.2-3,4-1.2c1.1,0.5,1.6,0.2,1.6-1.2c0-2.5,1.4-2.4,2.7,0.1
			c1.1,1.9,1.1,1.9,1.8,0.2c0.2-0.4,0.3-1.7,0.4-1.9c1.7-0.2,1.7,1.2,2.3,2.6c1,1.8,1,1.8,3.1-0.5L-305.5,496.3z"/>
		<path id="path3160" d="M-485.2,460.3l3.1,2.9l3.1,3l0.3-2.6c0.3-2.4,0.4-2.2,1.8,1.7c1.1,3,1.1,4.1,0.4,4.1
			c-1.8-0.1-5.9-3.6-7.3-6.4L-485.2,460.3z"/>
		<path id="path3158" d="M-439.5,463.3c0.2,0,0.3,0.3,0.3,0.6c0,1.1-2.1,4.5-4.2,6.8c-2.3,2.5-4.4,3.3-3.1,1.3
			C-443,466.4-440.4,463.1-439.5,463.3z"/>
		<path id="path3156" d="M-470.8,463.4C-470.8,463.4-470.7,463.4-470.8,463.4c0.4,0.3,1,1.9,1.4,3.8c0.9,3.1,0.8,4.2-0.1,2.6
			C-470,468.8-471,463.6-470.8,463.4z"/>
		<path id="path3154" d="M-474.3,463.5c0.1,0,0.4,0.2,0.7,0.4c0.6,0.5,0.9,2.1,0.7,3.5c-0.3,1.8-0.4,1.9-0.5,0.6
			c-0.1-1.1-0.4-2.6-0.7-3.5C-474.4,463.8-474.5,463.5-474.3,463.5z"/>
		<path id="path3152" d="M-559.9,479.5c0.6,0,1.8,0.6,4.8,2c4.7,2.4,5.2,2.5,5.5,1.1c0.7-2.6,5.9-1.8,12,1.9c3,1.8,5.5,3.7,5.5,4.1
			c0,1.2-2.7,1-5.3-0.5c-2.8-1.6-3.5-1.6-3.5,0c0,0.8-0.5,1.1-1.4,0.7c-0.8-0.3-1.7,0-2.1,0.6c-0.5,0.9-1.8,0.7-5.6-0.8
			c-5.6-2.1-6.1-2.2-5.4-1c0.8,1.2,0.2,1.1-6.9-1c-6.8-2-8.2-1.8-5,0.9l2.1,1.7l-3.5-0.8c-5-1.1-5.3-1.1-3.6,0.9
			c1.5,1.7,1.4,1.7-7.1,1.1c-7.9-0.4-8.5-0.4-7.5,0.9c1.1,1.2,0.7,1.6-2.9,2.5c-3.3,0.8-3.9,1.2-3.1,2.3c0.8,1,0.4,1.2-1.9,1.2
			c-1.7,0-5.6,0.3-8.9,0.5c-3.3,0.4-6,0.4-6,0.1s2.2-1.2,4.8-2s4.8-1.8,4.8-2.1s-0.9-1.1-1.9-1.6c-1.8-0.9-1.5-1,1.9-1.1l3.9-0.1
			l-4.5-4.8c-2.5-2.6-4.6-5.2-4.6-5.7s2.6,0.5,5.7,2.3c7.3,4,13.1,5.7,16.9,5.1c4-0.8,3.6-1.9-0.8-2.7c-3.3-0.5-3.5-0.7-1.6-1.2
			c1.2-0.4,3.5-0.7,5.1-0.7c2.4-0.1,2.8-0.4,2.5-1.5c-0.5-1.2,0.2-1.4,6.3-0.8c3.8,0.4,7.7,0.9,8.8,1.1c1.6,0.4,1.9,0.1,1.9-1.4
			C-560.3,480-560.3,479.6-559.9,479.5z"/>
		<path id="path3150" d="M-370.4,492c0.2,0,0.1,0.2-0.2,0.5c-1.1,1.3-0.9,1.5,2.4,1.5c2.5,0,3.7,0.4,4,1.4c0.4,1.1,1.3,1.3,3.6,1
			c1.8-0.3,2.9-0.2,2.6,0.3c-0.3,0.4,0,0.9,0.6,0.9s2.7,0.7,4.7,1.6l3.5,1.6l-5.8-0.4c-4-0.3-7.3,0.1-10.6,1.1
			c-2.6,0.9-5.3,1.8-5.9,1.9c-1,0.4-1,0.1-0.2-1.5c1-1.8,0.8-1.8-2.3-1.9c-2.6,0-3-0.3-2-1c1.3-0.9,0.5-0.8-7,0.7
			c-2.2,0.4-1.3-0.1,9.7-6.5C-371.7,492.4-370.6,491.9-370.4,492z"/>
		<path id="path2212" fill="#194119" d="M-290.5,497.6c-1.3,0-2.7,0.1-3.7,0.2c-2,0.2-0.4,0.4,3.7,0.4s5.8-0.2,3.7-0.4
			C-287.8,497.6-289.2,497.6-290.5,497.6z"/>
		<path id="path2182" fill="#FEFFFF" d="M-365.8,176.9c-8.7,3.8-18.3,6.6-22.2,6.6c-2,0-3.2,0.5-4.2,2.1c-0.8,1.1-2.3,2.4-3.3,2.7
			s-3.7,2.1-6,4c-3.4,2.8-4.8,3.4-8.1,3.4c-6.6,0-17.2,1.8-24.7,4.1c-37.8,11.8-66,50-68.8,93.5l-0.5,8.4l-7.8,7.4
			c-12.1,11.4-18.9,22.2-21.9,34.4c-1.3,5.2-1.4,19.6-0.2,24.6c0.7,2.9,0.4,3.7-4.7,11.1c-9.5,14.1-14,29-14,47.1
			c0,8.7,0.4,11.9,1.7,15.3l1.7,4.4l-6.3,6c-7.7,7.1-20.7,17-27.5,20.9c-4.4,2.5-5.7,2.7-13.6,3c-16.9,0.5-23.5-2-34.5-13.3
			c-4-4.1-7.2-7.8-7.2-8.3s-1.8-1.6-4-2.6c-3.3-1.4-4.5-1.6-6.2-0.8c-2.1,1-2.2,1.3-1.8,7.4c0.5,8,1.8,10.2,11,20.7
			c10.6,12.9,26.7,18.6,43,19.5c7.5,0,16.1-1.4,16.1-2.6c0-0.4,1.4-0.9,3.1-1.2c7.7-1.5,27.6-13.4,38.2-23l3.5-3.2l4.2,5.3
			c2.3,2.9,5.1,6.4,6.2,7.9c2.9,3.9,16.2,13.6,24.4,17.9c9.5,5,14.1,6.7,25.5,9.2c12.2,2.7,38.5,3.5,53.6,1.6
			c36.3-4.7,53.2-10.4,70.3-24c6-4.8,14.6-15.2,14.6-17.8c0-0.7,0.9-3.5,1.9-6.2c2.7-6.9,2.7-20.3-0.1-27.5
			c-4.6-11.7-14-23.1-28.2-34.2l-2.9-2.3l2.7-4.3c7.9-12.5,8.1-28.9,0.5-40.8c-3.3-5.4-10-11.6-16.4-15.6l-5.3-3.3l2-2.3
			c8-8.9,9.6-23.3,4.2-34.8c-3.1-6.5-5.4-7.4-10.9-12.1c-7.2-3.8-9.9-5.9-22.3-9.2c-5.5-1.1-10-1.3-21.6-1
			c-13.8,0.4-18.6,1.1-35.4,5.5c-2.3,0.5-2.5,0.4-2.5-1.9c0.8-6.6,2.6-13,4-19.4c0.2,0,0.4-0.3,0.7-0.8c0.6-1.8,3.5-6.8,2.8-6.9
			c1.4-2.1,2.6-4.4,4-6.6c0.1-0.1,0.1-0.1,0.1-0.1c1.8-1.9,5.9-6.5,8.8-9.2c8.4-8,18.9-13.6,30.8-16.4c10.3-2.5,41.1-3.3,45.9-1.3
			c1.8,0.7,5.7,1.3,8.9,1.3c5.2,0,5.8-0.3,7.2-2.4c1.4-2.2,1.4-2.4-0.6-3.7s-1.8-1.4,6.6-3c12.5-2.3,26.2-2.8,31-1.2
			c4,1.3,4.7,0.8,2.2-1.7c-1.4-1.4-1.4-1.5,0.9-1.1c3,0.6,3.1-0.5,0.2-2.5c-3-2-13.4-1.3-26.4,1.7c-13.3,3.1-20.2,3.3-24.2,0.8
			c-1.8-1.1-3.7-1.9-4.5-1.9s-2.1-0.4-2.9-1.1c-1.3-1-0.7-1.8,5.9-8.4c9.6-9.6,10.8-9.6,13.5-0.2c0.3,1.1,0.4,1.1,1.1,0
			c0.4-0.7,0.9-2.3,0.9-3.5c0.1-2,0.2-2,0.8-0.4c0.7,1.6,0.8,1.5,1.4-0.7c1.1-4-0.4-12.3-2.5-14.5c-1.1-1.1-1.9-1.8-3.3-1.8
			C-358.8,173.8-361.4,174.7-365.8,176.9z M-354.8,177.9c1.3,1.5,1.2,1.8-1.2,4.1c-1.5,1.4-3.6,2.9-4.8,3.4c-1.1,0.5-6.7,5-12.2,10
			c-10.3,9.3-11.5,11.6-6.5,11.6c3,0,8.2,1.9,9.1,3.4c0.4,0.7-0.1,0.8-1.8,0.4l-2.5-0.6l2.5,2.4c1.7,1.6,4,2.6,6.8,2.9
			c2.4,0.3,4,0.9,3.8,1.3c-0.7,1.1-4.8,0.9-9.1-0.6c-2.6-0.9-6.5-1.3-12.5-1.1c-4.8,0.1-9,0-9.2-0.4c-0.3-0.4,0-1.1,0.6-1.9
			c2.1-2.6,0.2-2.5-2.1,0.1l-2.3,2.6l-1.7-2.1c-1.6-2-1.8-2-2-0.5c-0.3,1.3-1.1,1.7-4.5,1.8c-2.3,0.1-4.4,0.4-4.7,0.7
			c-0.3,0.3-1.1,0.4-1.7,0.1c-0.6-0.2-1.4,0-1.8,0.5s-2.4,1-4.5,1s-3.9,0.4-3.9,0.8c0,0.4-1.8,1-3.9,1.3c-2.2,0.4-4,1.1-4.3,1.7
			c-0.2,0.6-1.9,1.6-3.8,2.3c-3.9,1.4-11.8,6.2-11.8,7c0,0.4-1.4,1.4-3.1,2.3c-1.7,0.9-4,3.2-5.4,5c-2.5,2.8-2.6,1.8-4.3,5.3
			c0,0.1-2.1,3.5-1.9,3.3l-1.9,2.7c-3.2,4.1-4.8,8.7-6.3,13.8c-0.9,1.7-1.1,1.8-2,0.6c-0.9-1.1-1.1-1-2,1.4c-1.1,2.6-1,2.7,0.7,2.3
			c1.3-0.4,1.6-0.1,1.2,0.9c-0.4,0.7-0.5,1.9-0.5,2.6c0,0.8-0.5,1.1-1.1,0.9c-0.7-0.3-1.7,0.4-2.3,1.3c-0.9,1.5-0.8,2,0.4,3.4
			c1.4,1.5,1.4,1.8,0.2,2.2c-1.7,0.7-3.2,4.5-3,7.5c0.1,1.3-0.3,2.1-1,1.9c-1.8-0.4-2.4,2.6-0.8,3.7c1.1,0.9,1.2,1.4,0.4,3.8
			c-0.9,2.2-0.8,3.1,0,3.9c0.8,0.9,1.1,0.7,1.1-0.4c0-1.7,1.3-2,2.2-0.7c0.4,0.4-0.3,1.2-1.2,1.8c-2.4,1.2-2.3,2.7,0.3,5.2
			c1.4,1.3,2.1,2.9,2,4.8c-0.2,4.3,2,8,4.8,8.4c3.2,0.4,3.2,1.9,0.1,1.9h-2.4l2.1,2.2c2.1,2.2,2.1,2.2,2.8,0.4
			c0.8-2.3,2.9-1.8,2.9,0.5c0,2-4.3,2.9-6.2,1.2c-1-0.9-1.2-0.8-1.2,0.4c0,0.9-0.7,1.4-2,1.4c-1.1,0-2.5,0.4-3,1
			c-1.1,1.1-3.7,0.4-3.7-1c0-0.4,0.6-0.9,1.3-0.9c0.7,0,1.3-0.6,1.3-1.3c0-0.7-0.6-1.3-1.4-1.3c-1.1,0-1.2-0.3-0.5-1.1
			c0.6-0.8,0.6-1.7,0.1-2.5c-1.3-2.2-0.9-3.5,1.4-4.4c1.2-0.4,2.2-1,2.2-1.1s-0.8-1.8-1.8-3.7c-1-1.9-1.8-4-1.8-4.7
			s-0.7-1.1-1.6-0.9c-1.1,0.2-1.7-0.4-1.8-2.1c-0.2-1.4-0.8-2.5-1.5-2.5s-1.3-1.1-1.5-2.5c-0.4-3.1-3.1-3.9-3.5-1
			c-0.4,2-0.8,2.2-3.5,1.1c-1.1-0.4-1.9,0.2-3,2.3l-1.5,2.9l-1.6-2c-2-2.5-2.1-3.6-0.4-3.6c0.7,0,1.3-0.6,1.3-1.3
			c0-1.6,3.6-1.8,5.1-0.3c0.6,0.6,1.3,0.8,1.6,0.5c1-1-0.5-2.5-2.3-2.5c-2.2,0-2.2-2.9,0-16c1.6-9.5,4.1-18.7,3.1-11.3
			c-1.1,7.1-2.2,19.2-2.2,22.7c0,4.4,1,4.2,3.5-0.8c1.1-2.2,2.4-3.4,3.4-3.4c2.6,0,6.2-1.8,6.2-3.3c0-0.7,0.9-2.2,1.9-3.3
			c1.5-1.6,1.6-2,0.5-2c-2.1,0-3.9-2.5-2.6-3.7c0.8-0.8,0.7-1.3-0.2-2.4c-0.7-0.7-1.7-2.8-2.3-4.7c-0.9-2.9-1.3-3.3-3.2-2.8
			c-1.4,0.4-2.1,0.2-2.1-0.5c0-0.9-0.3-0.9-1.3,0c-0.7,0.6-1.9,0.8-2.7,0.5c-1.3-0.5-1.3-0.7,0-2.2c0.8-0.9,1.5-2,1.5-2.6
			s0.6-1.1,1.2-1.1s1.8-1,2.6-2.2s2.2-2.2,3.1-2.2c1.1,0,1.8-0.7,1.9-1.9c0.4-2.6,3.3-3.2,4-0.7c0.5,2.2,1.9,2.4,2,0.3
			c0-2,4.8-7.6,6-6.9c0.5,0.3,0.7,1.1,0.4,1.8c-0.3,0.8,0.1,1.3,0.9,1.3c0.9,0,1.5-1,1.7-2.8c0.3-2.5,0.7-3,3.5-3.6
			c1.8-0.4,3.9-1.5,4.7-2.4c1.3-1.5,1.3-1.6-0.8-1.1c-2.2,0.4-3.1-0.9-1.3-1.9c0.4-0.3,0.9-2.1,0.9-4c0-1.8,0.4-3.7,0.9-4
			s1.7-2,2.6-3.8c1.4-2.8,1.5-3.4,0.4-5.1c-1.2-1.8-1.1-2,1.9-3.4c2.6-1.3,3.3-1.3,4-0.4c0.6,1.1,1.1,1,2.5-0.3
			c0.9-0.8,2.8-1.4,4.2-1.3c6.6,0.4,8.1-0.1,13.7-5.1c6.7-6,8.9-7.1,10.7-5.6c1.1,1,1.8,0.8,3.7-0.7c1.7-1.3,3.6-1.8,6.6-1.8
			c3.8,0,4.8-0.4,9.2-4.3c5.5-4.8,14.3-9.8,17.2-9.8c1.1,0,5.2-1.4,9.3-3.1c8.2-3.3,10.6-3.8,9.8-1.8c-0.3,0.8,0,1.3,0.8,1.3
			c0.7,0,1.6-1,1.8-2.2c0.4-1.5,1-2.2,1.8-2.1C-356.5,176.4-355.7,176.9-354.8,177.9z M-351.8,186.3v2.8l-1.1-2.6
			c-0.6-1.5-1-3-0.8-3.3c0.3-0.4,0.4-0.5,0.7-0.5C-352.4,182.7-351.7,184.2-351.8,186.3z M-355.1,185.9c0.4,0.7,0.8,2.3,0.8,3.5v2.2
			l-1.4-2c-0.7-1.1-1.1-2.6-0.8-3.4c0.3-0.6,0.4-1,0.6-1C-355.7,185.1-355.5,185.4-355.1,185.9z M-384.1,188c-0.5,0.7-1.8,1.5-3,1.8
			c-1.3,0.4-2.4,1.6-3,3.6c-0.5,1.7-0.9,3.1-0.8,3.1s2.2-1.2,4.8-2.8c3.3-2.1,4.6-3.3,4.6-4.8c0-1.3-0.4-1.9-0.9-1.9
			C-382.9,186.9-383.4,187.2-384.1,188z M-399.3,199.6c0.2,1.5,1.5,1.5,2.7,0c0.6-0.7,0.9-1.6,0.5-1.9c-0.1-0.1-0.2-0.2-0.4-0.2
			C-397.3,197.3-399.3,198.6-399.3,199.6z M-413.6,201.8c-0.4,1-1.1,1.8-1.7,1.8c-1.5,0-5.2,5-4.1,5.6c0.4,0.3,2-1,3.5-2.7
			c1.4-1.8,3-3,3.3-2.6c0.4,0.4,0.2,1-0.4,1.1c-0.5,0.2-1.1,1.1-1.1,2.1c0,2.4,3,1.8,3.3-0.8c0.1-1.1,1-2.2,1.9-2.5
			c2.3-0.8,2.1-2.2-0.4-2.2c-1.1,0-2.5-0.4-3-1c-0.3-0.3-0.5-0.4-0.7-0.4C-413.1,200.4-413.4,200.9-413.6,201.8z M-432.7,204.7
			c-2.6,0.4-5.1,1.1-5.5,1.5c-1,1-2.3,0.4-2.3-1s5.7-3.4,9.7-3.4c0.4,0,0.7,0,1,0C-425.7,202-427.2,203.9-432.7,204.7z M-423,205.5
			c0,2,2.2,2.2,3,0.3c0.3-0.8,0.4-1.8,0.1-2.2c-0.2-0.4-0.4-0.5-0.8-0.5C-421.6,203-423,204.1-423,205.5z M-407.6,209.8
			c-0.3,3.3,1.1,4.5,3.9,3.6c0.7-0.3,0.8-0.7,0.3-1.4c-0.4-0.5-1-1.9-1.1-3.2c-0.3-1.6-0.8-2.3-1.4-2.3
			C-406.7,206.6-407.6,207.7-407.6,209.8z M-424.7,211c0.4,0.4,1.1,0.2,1.3-0.4c0.7-1.1-0.1-2.6-1.3-2.6
			C-425.8,208-425.8,210.4-424.7,211z M-428.1,209.2c-0.5,0.4-0.9,1.2-0.9,2.1c0,1.9-0.9,2.8-2,2.1c-1.8-1.1-5.9-1-5.9,0.3
			c0,0.7,0.6,1.2,1.4,1.2c0.9,0,1.2,0.5,0.9,1.3c-0.3,0.7-0.2,1.3,0.3,1.3s1.1-0.6,1.3-1.3c0.4-1.1,0.8-1.1,2.3-0.2s1.9,0.9,2.6-0.2
			c1.1-1.7,1.1-6.7,0.2-6.7C-428.1,209.2-428.1,209.2-428.1,209.2z M-412.7,210.6c-0.4,0.5,0.2,0.9,1.2,0.9s1.8-0.4,1.8-0.9
			s-0.6-0.9-1.3-0.9C-411.7,209.8-412.5,210-412.7,210.6z M-418.6,212c0,1.8,1.5,2.3,2.6,0.9c0.6-0.7,0.8-1.7,0.5-2.2
			c-0.2-0.4-0.4-0.4-0.8-0.5C-417.2,210-418.6,210.8-418.6,212z M-423,212.2c-1.2,2.4-0.3,4,1.7,2.8c1-0.6,1.1-1.2,0.4-2.8l-0.9-2
			L-423,212.2z M-440,214.2c-0.4,0.5-0.2,0.9,0.4,0.9s1-0.4,1-0.9c0-0.6-0.2-0.9-0.4-0.9C-439.4,213.3-439.8,213.5-440,214.2z
			 M-446.7,216.4c0,1.7,1.4,1.6,2.1-0.2c0.4-0.8,0.4-1.6,0.2-1.8c-0.1-0.1-0.2-0.2-0.3-0.2C-445.5,214-446.7,215.2-446.7,216.4z
			 M-451.6,218.7c0.5,4,1.1,5.2,2.5,5.2c0.5,0,0.7-0.3,0.4-0.6c-0.4-0.4-0.1-1.1,0.4-1.8c0.8-0.9,0.8-1.4,0-2.2
			c-0.6-0.6-1.1-1.8-1.1-2.6c0-0.9-0.6-1.6-1.4-1.6C-451.8,215-452,215.7-451.6,218.7z M-438.7,216.3c-1,0.6-0.4,2.2,0.9,2.2
			c0.4,0,1-0.4,1.2-0.8c0.5-0.8-0.3-1.6-1.2-1.6C-438.2,216.1-438.5,216.2-438.7,216.3z M-469.2,231.8c-5.4,5.5-10.6,11.5-11.8,13.4
			c-2.6,4.2-3.2,4.2-1.4,0c2.5-6,7.7-12.6,16.2-20.5c4.6-4.3,8.5-7.7,8.7-7.5C-456.6,218-460.1,222.4-469.2,231.8z M-443.2,220.2
			c0,0.5,0.4,1,0.9,1c0.4,0,0.9-0.3,0.9-0.4s-0.4-0.6-0.9-0.9c-0.1-0.1-0.3-0.2-0.4-0.2C-442.9,219.7-443.2,219.9-443.2,220.2z
			 M-442.3,223.8c0,1.1,0.6,1.1,1.3,0c0.4-0.5,0.2-0.9-0.4-0.9S-442.3,223.3-442.3,223.8z M-450.8,225.5c-0.2,0.1-0.4,0.4-0.7,0.8
			c-0.4,0.4-0.2,1.1,0.4,1.4c0.4,0.4,0.9,0,0.9-0.8C-450.2,226-450.4,225.6-450.8,225.5C-450.7,225.6-450.7,225.6-450.8,225.5z
			 M-452.9,230.7c0,0.4,0.4,0.8,1,1s0.9-0.2,0.7-0.7c-0.2-0.5-0.6-0.9-1-1C-452.5,229.9-452.9,230.1-452.9,230.7z M-462.6,242.3
			c0,1.1,1.3,1.8,2,1.1c1.1-1,0.6-2-0.7-2C-461.9,241.4-462.6,241.8-462.6,242.3z M-466,248.5c0,0.5,0.7,0.9,1.4,0.9
			s1.1-0.4,0.8-0.9c-0.4-0.6-1-0.9-1.4-0.9C-465.7,247.6-466.1,247.9-466,248.5z M-470.3,249.2c-0.2,0.6,0.3,1.1,1.1,1.1
			s1.4-0.6,1.4-1.4c0-0.6-0.3-1-0.6-1.1c-0.1,0-0.2,0-0.3,0C-469.2,247.8-469.9,248.3-470.3,249.2z M-479.4,252.7
			c-0.8,0.8-0.8,1.2,0,2c0.7,0.8,1.1,0.7,1.6-0.4c0.4-1.3,0.2-2.2-0.5-2.2C-478.7,252.1-479,252.3-479.4,252.7z M-473.2,254.8
			c-1,1.7-0.7,2.8,0.4,1.8c0.4-0.3,0.6-1.1,0.6-1.9c0-0.5,0-0.8-0.2-0.8C-472.6,253.9-472.9,254.2-473.2,254.8z M-470.4,257.7
			c0.3,1.2,0.5,1.1,1.4-0.8c0.6-1.4,0.7-2.5,0.2-2.8c-0.1-0.1-0.3-0.1-0.4-0.1C-470,254-470.7,256-470.4,257.7z M-483.3,258.9
			c0.3,0.2,0.9-0.5,1.4-1.5c0.5-1.1,0.6-1.8,0.2-1.8C-482.7,255.5-483.9,258.2-483.3,258.9z M-480.4,257.7c-0.5,1.2,1.2,1.8,2.4,0.7
			c0.6-0.6-0.1-2-1.1-2C-479.6,256.4-480.2,257-480.4,257.7z M-478.2,259.8c-0.6,0.4-1,1.8-0.8,3.3l0.4,2.6l1.1-2.6
			c1-2.3,1.1-3.5,0.4-3.6C-477.5,259.4-477.8,259.6-478.2,259.8z M-476.5,266.7c0.3,1.3,0.5,1.3,1.5-0.5c0.8-1.5,0.8-2.4,0.2-3
			c-0.2-0.2-0.4-0.3-0.6-0.3C-476.2,262.9-476.8,264.7-476.5,266.7z M-442.1,282.8c-1.5,0.4-1.1,1.1,2.7,4.7
			c2.4,2.3,5.1,5.6,6.1,7.5c1,1.8,2.3,3.3,3,3.3c1.8,0,12-3.6,14.3-5.1c1.5-0.9,2.3-1,3.2-0.3c1.4,1.1,2.4,0.4,2.4-1.6
			c0-0.8,1.5-2.6,3.3-4.2c3.1-2.6,3.2-2.9,1.8-4c-2.3-1.8-1.9-2.3,1.6-2.3c2.5,0,3.3,0.4,3.6,1.8c0.4,1.5,1,1.8,2.6,1.3
			c1.8-0.4,2.1-0.2,1.8,1.1c-0.2,1.1-1.2,1.7-3.2,1.8c-2.6,0.3-2.8,0.6-2.8,3c0,3.3-1.8,9.7-3.1,10.6c-1.9,1.3-4.3,0.5-6.8-2.1
			c-2.7-2.9-4.1-2.9-2.6,0.1c0.9,1.7,0.8,1.8-1.1,1.8c-1.6,0-2.3-0.5-2.5-1.9c-0.3-2-2.1-2.4-1.9-0.4c0.1,0.9-3.7,1.5-14.5,2.3
			c-8,0.6-16.4,1.4-18.6,1.8c-5.7,1-7,1-7,0.1c0-1.3,7-11.5,8.4-12.1c0.6-0.3,2.2-1.8,3.4-3.4l2.3-2.9l-4.7,1.4
			c-4.2,1.2-12.9,4.4-16.7,6c-1,0.4-1.6,0.3-1.6-0.4c0-1.9,21.6-10.6,26.5-10.6C-440,280.2-440,282.5-442.1,282.8z M-424.5,282.3
			c12.5,0.7,14.8,1.1,14.8,2.4c0,0.8-10.9,0.5-21.8-0.6c-2.5-0.3-4.6-0.9-4.6-1.4c0-0.4,1.5-0.6,4.5-0.6
			C-429.8,282-427.4,282.1-424.5,282.3z M-446.2,287.2c-0.4,0.5-0.2,0.9,0.4,0.9s1-0.4,1-0.9c0-0.6-0.2-0.9-0.4-0.9
			C-445.6,286.3-445.9,286.6-446.2,287.2z M-406.2,288.5c0,0.7,0.6,1.3,1.3,1.3c0.7,0,1.3-0.6,1.3-1.3c0-0.7-0.6-1.3-1.3-1.3
			S-406.2,287.8-406.2,288.5z M-483,290.3c0.7,1.3,0.9,1.3,1.9,0c0.9-1.1,1-1.7,0.2-2.5c-0.4-0.4-0.8-0.5-1.1-0.5
			C-483.1,287.3-483.9,288.8-483,290.3z M-486.3,292c0.4,0.3,0.9-0.4,0.9-1.3c0-1-0.4-1.8-0.9-1.8C-487.5,289-487.5,291.3-486.3,292
			z M-443.2,290.6c0,1.1,1,1.1,2.6,0.1c0.7-0.4,1.1-1.1,0.7-1.4c-0.3-0.2-0.5-0.3-0.9-0.3C-441.8,289-443.2,289.8-443.2,290.6z
			 M-390.4,297.8c2.3,4,1.2,4.8-1.1,0.8c-0.9-1.5-3-4.1-4.7-5.8c-1.7-1.7-2.8-3.3-2.6-3.6c0-0.1,0.1-0.1,0.2-0.1
			C-397.3,289-392.5,294.1-390.4,297.8z M-407.9,292.9c0,1.3,1.1,1.7,2,0.7c0.7-0.7-0.1-2-1.2-2C-407.6,291.6-408,292.2-407.9,292.9
			z M-481,295.5c0.4,0.4,1.1,0.2,1.3-0.4c0.7-1.1-0.1-2.6-1.3-2.6C-482.1,292.5-482.1,294.9-481,295.5z M-442.4,294.3
			c0,1.1,1.2,1,3.2-0.5c1-0.7,1.2-1.3,0.7-1.3C-440.1,292.5-442.3,293.4-442.4,294.3z M-454.1,295.1c-0.4,0.5,0,0.9,0.8,0.9
			s1.4-0.4,1.4-0.9c0-0.6-0.4-0.9-0.9-0.9C-453.3,294.2-453.8,294.5-454.1,295.1z M-447.6,295.6c-1.3,1.6-1,1.9,1.1,1.5
			c1.6-0.4,2-1.6,0.7-2.4c-0.1,0-0.1-0.1-0.2-0.1C-446.4,294.5-447.1,294.9-447.6,295.6z M-380.9,296.4c1.1,1,1.1,1.2-0.1,2.1
			c-1.6,1.1-1.1,2.3,0.7,1.6c1.5-0.6,3.1,5.6,3.3,12.8c0.2,5-0.2,6.2-2.7,10.7c-1.6,2.8-3.1,5.1-3.3,5.1c-0.2,0-0.3-1.1-0.3-2.5
			c0.1-3.2-1.3-11.9-2.2-13.2c-1-1.6-9-1.4-11.5,0.3c-2.8,1.8-4,1-4-3.3c0-3-0.4-3.6-2.4-4.4c-1.7-0.6-2.1-1.1-1.4-1.8
			c0.7-0.7,2.4-0.4,5.9,0.9c9.3,3.5,12.9,2.3,15-4.8c1-3.1,1.4-4.2,2-4.1C-381.5,295.7-381.2,295.8-380.9,296.4z M-437.9,296.9
			c0,0.5,0.4,0.9,0.9,0.9c0.4,0,0.9-0.4,0.9-0.9s-0.4-0.9-0.9-0.9S-437.9,296.4-437.9,296.9z M-408,299.1c0.4,0.3,0.9-0.2,0.9-0.9
			s-0.4-1.3-0.9-1.3C-409.1,296.9-409.1,298.4-408,299.1z M-444.1,298.6c0,1.1,1.5,1.1,2.2-0.1c0.3-0.5,0.4-1.1,0.1-1.4
			c-0.1-0.1-0.2-0.2-0.3-0.2c-0.1,0-0.2,0-0.3,0C-443,297-444.1,297.8-444.1,298.6z M-452.8,299.5c0,1,1.1,1.1,2,0.3
			c0.4-0.4,0.4-0.9,0.1-1.3c-0.2-0.2-0.4-0.4-0.6-0.4C-452,298-452.9,298.6-452.8,299.5z M-491.1,301c1.7,8,4.2,14.7,7,18.2
			c3.9,5.1,4,5.9,0.4,4c-1-0.5-2.6-2.8-3.9-5.2c-2-4-5.7-15.8-5.7-18.3c0-0.8,0.3-1.1,0.6-1.1C-492.2,298.6-491.4,299.5-491.1,301z
			 M-497.4,308.2c0.8,2.7,2.3,7,3.3,9.6c1.8,4.4,1.6,6.8-0.4,6.2c-0.5-0.2-2.3-4.4-4-9.3c-2.8-8.5-3.1-11.6-1.1-11.6
			C-499.2,303-498.2,305.5-497.4,308.2z M-407.6,306.2c9.4,4.5,0.2,15.8-15.8,19.4c-7.9,1.8-24,1.1-31.2-1.4
			c-6.8-2.4-12.8-7.7-12.3-10.7c0.3-1.6,1.4-2.5,5.7-4c10.6-3.8,25.3-5.9,37-5.8C-417.1,303.7-411.1,304.4-407.6,306.2z
			 M-383.4,305.7c0,1,0.6,1.8,1.3,1.8c0.7,0,1.3-0.8,1.3-1.8s-0.6-1.8-1.3-1.8C-382.7,303.9-383.4,304.7-383.4,305.7z M-398.7,307.4
			c-1.7,0-1.7,0.1-0.1,3.2c1.1,2,1.4,2.2,1.8,1c0.7-1.9,0-3.9-1.5-4.1C-398.5,307.4-398.6,307.4-398.7,307.4z M-386.6,308.6
			c-0.6,0.7,1.3,3.3,2.5,3.3c0.4,0,0.8-0.6,0.8-1.3c0-1.1-1.3-2.1-2.4-2.2C-386,308.3-386.3,308.4-386.6,308.6z M-392.2,309.2
			c0,0.5,0.4,0.9,0.9,0.9s0.9-0.4,0.9-0.9s-0.4-0.9-0.9-0.9S-392.2,308.7-392.2,309.2z M-380.7,310.4c0,0.8,0.4,1.4,0.9,1.4
			s0.9-0.4,0.9-0.9s-0.4-1.1-0.9-1.3c-0.1-0.1-0.3-0.1-0.4-0.1C-380.5,309.6-380.7,309.9-380.7,310.4z M-380.7,316.2
			c0,3.1,0.5,3.3,1.8,1s1.1-3.6-0.4-3.6C-380.3,313.6-380.7,314.5-380.7,316.2z M-402.1,330.1c-2.8,2-5.2,3.8-5.4,3.8
			c-0.2,0,3.6-4,8.3-8.8c4.7-4.8,8.8-8.8,9.2-8.8c0,0,0.1,0,0.2,0C-388,316.8-395.2,325-402.1,330.1z M-474.3,318.6
			c-0.9,0.8-0.7,2.9,0.2,2.9c0.4,0,1.1-0.6,1.3-1.3c0.4-1.1-0.1-1.9-0.8-1.9C-473.8,318.3-474.1,318.4-474.3,318.6z M-515.7,327.8
			c0,3.9,0.3,7.2,0.6,7.6c0.4,0.3,2.3-0.7,4.4-2.2c3.8-2.7,3.8-2.8,5-1c1.6,2.5,2.7,2.3,2.7-0.4c0-1.6,0.4-2.2,1.6-2.2
			c0.9,0,3.1-1,4.8-2.2c3.7-2.6,4.5-1.1,1.1,1.9c-3,2.6-8.3,13.4-9.4,19.2c-0.5,2.6-1.1,4.8-1.3,4.8c-0.3,0-1-1.3-1.7-3
			s-2.3-3.5-3.7-4.2s-2.6-2-2.7-3.1c-0.7-5.1-6.2-4.1-11.5,1.9l-3,3.4l0.5-4.8c0.3-2.6,1.1-5.4,1.8-6.2c0.7-0.8,1.4-2,1.7-2.8
			c0.5-1.3,8.5-14,8.9-14C-515.9,320.6-515.7,323.9-515.7,327.8z M-474,324.6c0.4,0.3,0.9,0.1,0.9-0.4s-0.4-0.9-0.9-0.9
			C-475.1,323.3-475.1,323.9-474,324.6z M-484.8,325.3l4.1,1.1l1.6,6.6c0.8,3.7,1.6,6.8,1.6,6.9c0.2,0.6-1.7,0.1-2.1-0.7
			c-0.3-0.4-1.2-0.9-2.2-0.9s-2.3-1.1-3-2.5c-0.7-1.3-2.5-3.6-4-5c-3.1-2.8-3.3-4.1-1.5-5.7c0.4-0.4,1.1-0.6,1.8-0.6
			S-486.5,324.7-484.8,325.3z M-409.7,325.9c0.4,0.4,0.1,2.4-1.7,8.3c-0.4,1.3,0.7,2,5.3,3.5c1.7,0.5,3.4,0.6,4,0.2
			c0.4-0.4,2-1,3.3-1.3c1.8-0.4,2.5-0.2,2.5,0.8c0,0.7,0.6,1.3,1.4,1.3c1,0,1.2-0.5,1-1.7c-0.4-1.6,0.8-2.7,2.9-2.7
			c1.3,0,1,2.2-0.7,3.7c-3.2,2.8-15,8.9-20.9,10.6c-1,0.3-3.1,1.5-4.7,2.6c-2.8,2.1-2.9,2.1-1,3.2c1.4,0.8,1.7,1.3,1,2
			c-1.5,1.5-1.1,2.4,0.9,2.4c1.2,0,1.7-0.4,1.3-1.3c-0.8-1.9,0.9-5.7,2.5-5.7c0.7,0,1.3,0.4,1.3,0.9s0.4,0.9,1,0.9
			c0.5,0,0.8-0.6,0.5-1.3c-0.5-1.2,2.4-2.2,7.3-2.6c0.8-0.1,1.8-0.4,2.5-0.8c1.2-0.8,1.3-0.2,0.2,2c-0.6,1.2-0.5,1.8,0.4,2.1
			c1.8,0.7,1.7,2.4-0.1,2.4s-1.1,1.8,1.1,3c0.9,0.4,1.8,1.1,2,1.1c0.2,0.1-0.3,0.7-1.1,1.3c-0.9,0.6-1.5,1.5-1.4,1.9
			c0.4,2.6-0.4,2.7-3.3,0.4c-1.6-1.1-3-1.5-4.5-1.1c-1.7,0.4-2.6,0-3.9-1.6c-1.6-2-1.8-2-2.9-0.5c-1.1,1.4-2.2,1.5-8.4,1.1
			c-4-0.3-7.7-0.9-8.2-1.4s-1.5-1-2.1-1c-2.1,0-1.2-1.7,1.1-2.3c1.5-0.4,3.3,0,4.9,1c1.9,1.1,2.9,1.2,3.6,0.5c1.2-1.2,0-2.5-2.9-3
			c-1.5-0.3-1.1-0.4,1.2-0.5c2.9-0.2,3.3-0.4,2.3-1.5c-0.9-1.1-0.3-2.3,4-6.9c2.8-3.1,5.7-6,6.3-6.5c1-0.9,1-1.2-0.3-2.5
			c-1.7-1.7-6.7-4-10.5-4.8c-1.4-0.4-2.7-1.1-2.9-1.6c-0.3-1,12.8-5.5,15.1-5.3C-410,325.3-409.9,325.4-409.7,325.9z M-489,327.1
			c0,0.7,0.6,1.6,1.4,1.8c1.9,0.7,2.1,0.7,2.1-0.8c0-0.7-0.2-1.3-0.4-1.3c-0.2,0-1-0.3-1.8-0.5c-0.3-0.1-0.4-0.2-0.6-0.2
			C-488.6,326.1-489,326.4-489,327.1z M-449.2,329.8c4.8,2.2,5.8,2.4,9,1.5c1.9-0.5,3.7-0.8,3.9-0.6c0.7,0.7-1.8,2.6-4.9,3.8
			c-4,1.4-8.2,5.1-8.2,7.3c0,1.1,1.7,2.6,4.2,4.2c6.9,4.3,7.6,4.9,7,6.5c-0.7,1.8-3.3,1.9-12.5,0.2c-3.9-0.7-9.2-1.7-11.7-2.1
			c-5.5-1-6.3-1.4-6.3-3.3c0-1,0.5-1.1,1.6-0.7c3.3,1.5,6.3,1.5,7.7,0.1c0.8-0.8,2-1.4,2.9-1.4s2.3-0.6,3.2-1.3
			c1.7-1.2,1.7-1.4,0.2-6.2c-0.8-2.6-1.3-5.4-1.1-6.1c0.3-0.7,0-1.7-0.5-2.2c-1.1-1.1-1-1.6,0.1-1.5
			C-453.7,328-451.7,328.7-449.2,329.8z M-415.8,329.9c0,1.3,1.1,1.7,2,0.7c0.7-0.7-0.1-2-1.2-2
			C-415.5,328.6-415.9,329.1-415.8,329.9z M-482.8,329.3c0,0.5-0.6,1.1-1.4,1.1s-1.2,0.4-1.1,1.1c0.5,1.7,2.1,1.8,3.3,0.3
			c0.9-1.1,1-1.6,0.2-2.4c-0.4-0.4-0.6-0.6-0.8-0.6C-482.7,328.6-482.8,328.8-482.8,329.3z M-419.4,331.6c0.4,0.3,0.9-0.2,0.9-0.9
			s-0.4-1.3-0.9-1.3C-420.6,329.4-420.6,330.9-419.4,331.6z M-469.5,333.8c3,1.9,7.4,4.1,9.8,4.9s4.3,1.7,4.3,1.8
			c0,1.3-5.3-0.2-11.3-3.2c-6.8-3.3-9.8-5.7-8.8-6.7c0,0,0.1,0,0.2,0C-474.6,330.8-472.2,332-469.5,333.8z M-520.6,332.1
			c0,0.4,0.4,0.9,0.9,0.9s0.9-0.4,0.9-0.9s-0.4-0.9-0.9-0.9S-520.6,331.6-520.6,332.1z M-489.9,335.2c1.1,2.1,2.6,4,3.1,4
			c0.9,0.1-10.7,5.9-12.1,6.1c-0.4,0-0.4-1.1-0.1-2.4c0.7-3.1,4.9-11,6.1-11.4C-492.4,331.3-491.1,333-489.9,335.2z M-447.6,333.8
			c0,0.4,0.4,0.9,0.9,0.9s0.9-0.4,0.9-0.9c0-0.4-0.4-0.9-0.9-0.9S-447.6,333.4-447.6,333.8z M-453.8,333.8c0,0.4,0.4,0.9,0.9,0.9
			c0.4,0,0.9-0.4,0.9-0.9c0-0.4-0.4-0.9-0.9-0.9C-453.3,333-453.8,333.4-453.8,333.8z M-482.8,335.6c0,0.4,0.6,0.9,1.3,0.9
			c0.7,0,1.3-0.4,1.3-0.9s-0.6-0.9-1.3-0.9C-482.2,334.7-482.8,335.2-482.8,335.6z M-451.1,336.3c0,0.4,0.4,0.8,1,1s0.9-0.2,0.7-0.7
			c-0.2-0.5-0.6-0.9-1-1C-450.8,335.5-451.1,335.7-451.1,336.3z M-525,339.6c0,1.6,2.3,1.6,2.9-0.1c0.6-1.5-0.1-4-1.1-4
			C-524.1,335.6-525,337.8-525,339.6z M-507.8,337.6c0.6,1.7,3,1.8,3,0.2c0-0.6-0.7-1.5-1.5-1.8c-0.4-0.2-0.8-0.3-1.1-0.3
			C-508.1,335.7-508.3,336.3-507.8,337.6z M-520.6,336.8c0,0.8,0.4,1.4,0.9,1.4s0.9-0.4,0.9-0.9s-0.4-1.1-0.9-1.3
			c-0.1-0.1-0.3-0.1-0.4-0.1C-520.4,336-520.6,336.3-520.6,336.8z M-513.2,337.3c-0.2,0.1-0.4,0.4-0.7,0.8c-0.4,0.4-0.2,1.1,0.4,1.4
			c0.4,0.4,0.9,0,0.9-0.8C-512.7,337.8-512.9,337.4-513.2,337.3C-513.2,337.4-513.2,337.4-513.2,337.3z M-385.6,340.8
			c0.6,1.9,0.4,2.1-1.6,1.6c-1.2-0.4-2.5-0.2-2.8,0.4c-0.4,0.6-0.9,0.6-1.6-0.1c-0.7-0.8-0.4-1.6,1.6-3.3c1.2-1,2-1.5,2.6-1.5
			C-386.6,337.9-386.1,338.9-385.6,340.8z M-510.7,340.1c0.4,0.9,0.5,0.9,1.1,0c0.4-0.6,0.4-1.4,0.2-1.7c-0.3-0.2-0.4-0.3-0.6-0.3
			C-510.7,338.2-511,339.1-510.7,340.1z M-417.8,339.6c-0.7,0.6-3.6,1.8-6.5,2.5c-5.7,1.4-20.7,1.9-20.7,0.7c0-0.4,4.7-1,10.4-1.2
			c5.6-0.3,12.1-1.1,14.2-1.8c1.6-0.6,2.6-0.9,2.9-0.9C-417.1,338.8-417.2,339-417.8,339.6z M-407.9,342.2c0,2.4,2.4,3.1,3.2,0.9
			c0.6-1.6-0.3-3.1-1.9-3.1C-407.5,340-408,340.9-407.9,342.2z M-380.7,342.2c0,0.8-0.4,1.1-0.9,0.9c-0.5-0.4-0.9-1-0.9-1.4
			s0.4-0.8,0.9-0.8C-381.1,340.9-380.7,341.4-380.7,342.2z M-506.6,341.9c-1.4,0.4-1.4,3.5,0,4c0.6,0.3,1.1-0.4,1.1-1.9
			c0-1.3-0.4-2-0.9-2C-506.6,341.9-506.6,341.9-506.6,341.9z M-512.3,342c-0.4,0.3-0.4,1.1-0.1,1.7c0.3,0.7,0.5,0.5,0.5-0.5
			c0-0.7-0.1-1.1-0.3-1.2C-512.2,341.8-512.3,341.8-512.3,342z M-412.5,342.2c-1.1,0.7-1.1,3.1,0,3.1c0.5,0,1.1-0.4,1.4-0.9
			c0.6-1-0.1-2.4-1-2.3C-412.1,342.1-412.3,342.1-412.5,342.2z M-381.8,350.9c3.9,3.5,9,10.6,9,12.5c0,2.7-2.4,0.8-5.5-4.3
			c-2.6-4.2-4.7-6.2-9.1-9c-8.3-5.2-8.6-5.4-7.7-6c0.2-0.1,0.4-0.1,0.8-0.1C-391.7,344.3-385.1,347.8-381.8,350.9z M-519,355.3
			c0.1,6.8,0.4,14.5,0.6,17.2l0.5,4.8l-1.9-2.2c-1.9-2.1-1.9-2.6-1.4-14.5c0.5-9.9,1.1-15.3,1.6-15.3
			C-519.2,345.3-519,348.5-519,355.3z M-483.7,350.8c-4.7,1.6-10.1,4-12.3,5.2c-4.8,2.7-5.3,2.8-5.3,1.1c0-2.6,14-9,23.2-10.6
			c1.1-0.2,2-0.3,2.6-0.3C-473.1,346.3-476.5,348.4-483.7,350.8z M-455.3,348.1c-0.2,1.1,0.4,1.6,1.9,1.6c1.2,0,2.4-0.4,2.6-0.7
			c0.3-0.4,0.1-1.2-0.3-1.8c-0.4-0.6-1-0.9-1.7-0.9C-453.8,346.2-455.1,347-455.3,348.1z M-448.7,346.7v2.4c0,1.3,0.4,2.4,0.7,2.4
			c0.4,0,1.5,0.2,2.5,0.4c1,0.3,2.4,0,3.1-0.4c1.1-0.7,1.1-0.9-0.4-0.9c-0.9,0-2.6-0.9-3.7-1.9l-2-1.9h-0.2V346.7z M-459,347.8
			c0,0.5,0.4,1,0.9,1s0.9-0.3,0.9-0.4c0-0.2-0.4-0.6-0.9-0.9c-0.1-0.1-0.3-0.2-0.4-0.2C-458.8,347.3-459,347.5-459,347.8z
			 M-471.9,350.8c-0.5,2.2,0.7,3.1,1.8,1.3c0.3-0.4,1.1-0.9,1.8-0.9c1,0,1.1,0.4,0.3,1.8c-1.2,2.4-0.5,3,1.9,1.7
			c1.5-0.8,2.1-0.8,2.4-0.1c0.2,0.7,2.1,0.8,6.3,0.4c5.9-0.6,6.2-0.5,7.1,1.7c1.3,3,0.4,5-2.3,5c-2.5,0-2.8-1.1-0.9-2.6
			c0.7-0.6,1.3-1.4,1.3-1.8c0-1.6-1.8-0.6-5.1,2.8c-2.6,2.7-4.3,3.8-7.1,4.1c-2,0.3-6.2,1.8-9.2,3.4c-4.8,2.6-5.5,2.7-5.7,1.4
			c-0.2-0.8-0.6-2.6-1.1-3.9c-0.7-2-0.4-2.8,1.9-5.5c1.5-1.7,3.3-3.1,4-3.1c1.1,0,1.1-0.4-0.2-1.7c-1.2-1.4-1.3-2-0.4-4
			c0.7-1.6,1.7-2.4,2.3-2.4C-471.8,348.7-471.4,349.5-471.9,350.8z M-364.7,353.5c2.5,3.2,3.3,5,3,6.2c-0.3,1.1,0.1,2.4,1.1,3.4
			c2.4,2.6,2,17.3-0.4,22.8c-1,2.2-1.8,4.8-1.8,5.8c0,3.1-2.8,4.2-3.9,1.6c-0.9-2.4-0.6-3.9,0.8-3.9c0.9,0,1.3-0.9,1.3-2.6
			c0-1.4,0.9-3.6,1.8-4.8c1.8-2.3,1.8-2.3,0.1-2.3c-1.2,0-1.8,0.7-2.3,3c-0.4,1.7-0.9,3.3-1.4,3.6c-0.5,0.3-2.3-1.5-4-4l-3.2-4.5
			l-2.6,2.3c-3.6,3-12.8,7.6-14.6,7.2c-0.9-0.2-1.5-0.9-1.5-1.6c0-1.4,0.6-1.4,3.4-0.4c1.6,0.6,1.6,0.4-0.4-2.6c-1.8-2.9-2-4-1.6-9
			s0.4-5.6-1.1-5.6c-1.8,0-3.7-1.7-3.7-3.3c0-1.4,1.8-1.5,5.6-0.4c2.8,0.9,19.9,4.5,21,4.5c0.4,0,0.4-2.3,0.1-5.1
			c-0.4-2.8-0.6-6.2-0.7-7.7s-0.9-3.3-1.8-4.2c-1.5-1.3-1.6-1.6-0.4-2.4c0.7-0.4,1.3-0.8,1.9-0.8
			C-368.7,348.9-367.3,350.1-364.7,353.5z M-404.5,351.9c0.4,0.3,0.9,0.1,0.9-0.4s-0.4-0.9-0.9-0.9
			C-405.5,350.6-405.5,351.2-404.5,351.9z M-404.5,355.2c1,0.3,2,0.1,2.3-0.4s-0.5-0.8-1.8-0.8
			C-406.7,354.1-406.9,354.5-404.5,355.2z M-412.4,355.4c0.5,0.7,1.8,1.3,2.8,1.3c1.5,0,1.6-0.3,0.7-1.3c-0.5-0.7-1.8-1.3-2.8-1.3
			C-413.2,354.1-413.3,354.3-412.4,355.4z M-364.9,357.5c0,0.5,0.4,1,0.9,1s0.9-0.3,0.9-0.4c0-0.2-0.4-0.6-0.9-0.9
			c-0.1-0.1-0.3-0.2-0.4-0.2C-364.6,357-364.9,357.2-364.9,357.5z M-471,360.1c0.9,1.5,3.1,1.2,3.7-0.4c0.4-0.8,0.2-1.8-0.3-2.2
			c-0.2-0.2-0.4-0.3-0.8-0.3C-469.7,357.2-471.6,359-471,360.1z M-404.5,359.3c0,0.5,0.9,0.9,1.9,0.9c1.7,0,1.8-0.2,0.7-0.9
			c-0.8-0.5-1.5-0.8-1.9-0.8S-404.5,358.7-404.5,359.3z M-504.5,360.4c0.3,0.8,0.5,2.7,0.5,4.2c0,1.8,1.2,4.7,3.5,8
			c1.9,2.8,3.5,5.6,3.5,6.2s1,2.5,2.1,4.2l2.1,3.2l-2.3,0.6c-1.6,0.4-3,0-4.7-1.2c-1.8-1.3-3.8-1.8-7.1-1.8c-2.8,0-5.5-0.6-6.6-1.4
			c-2.2-1.6-2.2-1.4-1.9,6.9c0.1,2.4-0.3,4.2-0.7,4.2c-0.5,0-1.9-1.3-3.2-3c-1.2-1.7-2.3-3.6-2.3-4.3s-0.4-1.4-0.7-1.6
			c-1-0.4-5.9-10.8-7.7-16.3c-0.9-2.6-1.2-5.4-0.9-6.5c0.6-1.8,0.7-1.8,1.8-0.3c0.6,0.9,1,2.4,0.7,3.3s0.3,2.6,1.3,3.9
			c1.1,1.2,1.8,3.4,1.8,4.8c0,2.2,0.4,2.6,2.6,2.6c1.4,0,3,0.6,3.6,1.3c1.7,1.9,2.6,1.6,2.6-1.1c0-3.3,5.6-13,8.7-15.2
			c1.1-0.8,1.8-1.1,2.2-1.2C-504.9,359.8-504.7,360.1-504.5,360.4z M-474.2,362.7c0.6,0.2,1.1-0.3,1.1-1.1s-0.6-1.4-1.4-1.4
			C-476,360.2-475.8,362.1-474.2,362.7z M-498.7,360.7c0.6,1.5,4.9,3.7,7.5,3.8c1.1,0.1,3.3,1.2,5,2.6c2.7,2.3,2.9,2.8,2,4.8
			c-0.7,1.6-2,2.4-4.2,2.8c-1.8,0.4-3.4,1.1-3.7,1.8c-0.7,1.8-2.3,1.4-1.8-0.5c0.3-1.2-0.1-1.8-1.5-1.9c-1.2-0.2-2-1-2.2-2.2
			c-0.1-1.1-0.6-1.9-1.1-1.9s-0.8-0.9-0.8-1.8s-0.5-2.7-1.1-4c-0.8-1.8-0.8-2.5,0.1-3.3c0.4-0.4,0.7-0.6,1-0.6
			C-499.2,360.2-499,360.4-498.7,360.7z M-462,361.1c-0.4,0.4-0.2,0.9,0.4,0.9s1-0.4,1-0.9c0-0.6-0.2-0.9-0.4-0.9
			C-461.4,360.2-461.8,360.5-462,361.1z M-470.9,363.3c-1.4,1.1-1.5,1.3-0.3,1.3c0.8,0,1.9-0.6,2.6-1.3c0.6-0.9,0.6-1.3,0.2-1.3
			S-469.9,362.4-470.9,363.3z M-395,371.9c1.8,1.8,2,2.7,1.5,6c-0.4,2.1-1.4,5.5-2.3,7.7l-1.7,3.9l-13-0.6c-20.9-1-48.7,2-58.4,6.4
			c-2.1,1-4.2,1.5-4.7,1.2s-2.8-1.9-5.3-3.6c-7.2-5.1-12.8-9.9-12.8-11.1c0-2.8,13.9-10.5,24.6-13.6c12.2-3.6,21.1-4.8,36.5-4.8
			C-410.6,363.4-400.6,365.8-395,371.9z M-497.8,365.1c-0.6,0.4-0.6,0.9,0.1,1.8c1.3,1.7,2.6,1.6,2.6,0c0-1.1-0.8-2-1.8-2
			C-497.1,364.8-497.5,364.9-497.8,365.1z M-364,366.8c0.4,0.3,0.9,0.1,0.9-0.4s-0.4-0.9-0.9-0.9
			C-365.1,365.5-365.1,366.1-364,366.8z M-476.6,366.4c0,0.4,0.4,0.9,0.9,0.9s0.9-0.4,0.9-0.9c0-0.4-0.4-0.9-0.9-0.9
			S-476.6,366-476.6,366.4z M-494.2,369.9c0,1.8,1.3,2.4,2.2,0.9c1-1.6,2-1,1.6,0.9c-0.6,2.5,1.1,2.1,2.2-0.4s0.9-2.7-3.1-3
			c-0.3,0-0.5,0-0.8,0C-493.8,368.2-494.2,368.6-494.2,369.9z M-381.5,371.4c0.2,0.4,1.3,0.5,2.5,0.3c2.6-0.6,3.4-2.5,1.4-3.3
			c-0.1,0-0.2-0.1-0.3-0.1c-0.1,0-0.2,0-0.3,0C-379.7,368.3-381.9,370.2-381.5,371.4z M-363.6,370.1c-1.4,1.1-1.5,1.5-0.5,2.6
			c0.7,0.8,1,1.8,0.6,2.3s0,1,0.8,1c1.1,0,1.3-0.5,0.9-2.2c-0.4-1.3-0.2-2.2,0.4-2.2c0.5,0,1-0.6,1-1.3c0-0.8-0.2-1.2-0.7-1.2
			C-361.7,369-362.5,369.5-363.6,370.1z M-388.5,372.6c-1.1,2.2-0.3,3.2,2.5,2.7c2.2-0.4,2.3-0.5,1.1-2.9c-0.5-1-1.1-1.5-1.6-1.6
			c-0.1,0-0.2,0-0.3,0C-387.5,370.9-388,371.5-388.5,372.6z M-370,371.2c-0.8,0.4-2.9,1-4.6,1.3l-3.1,0.6l2.5,1.1
			c2.6,1.1,2.6,1.1,5.2,0.4c0.9-0.3,1.6-1.2,1.6-2.2c0-0.9-0.2-1.3-0.5-1.4C-369.2,371-369.5,371.1-370,371.2z M-367.5,373.4
			c0,0.4,0.4,0.9,0.9,0.9s0.9-0.4,0.9-0.9s-0.4-0.9-0.9-0.9S-367.5,373-367.5,373.4z M-509.9,373.4c-1.1,0-2.3,1.7-1.7,2.3
			c0.2,0.2,0.9-0.3,1.5-1s0.7-1.2,0.4-1.3C-509.7,373.4-509.8,373.4-509.9,373.4z M-380.7,376.1c0,1.3,0.6,1.8,2.2,1.8
			c1.3,0,2.2-0.5,2.2-1.2c0-1.1-1.8-2.3-3.6-2.3C-380.4,374.3-380.7,375.1-380.7,376.1z M-507.4,380.1c0.7,1.5,0.7,1.4,0.8-0.7
			c0-1.4-0.4-2.5-0.8-2.5C-508.4,377-508.4,377.6-507.4,380.1z M-504.4,377.8c-1,1.6,1.1,3,2.5,1.8c0.9-0.7,1.4-0.7,2.2,0.1
			c0.6,0.6,1.1,0.7,1.1,0.2c0-1.7-2.1-2.9-3.9-2.9C-503.3,377-504,377.2-504.4,377.8z M-385.8,380.3c-0.3,2.1,0,2.8,1.1,2.8
			s1.4-0.9,1.4-3.2c0-1.9-0.5-2.9-1.1-2.8C-385,377.2-385.6,378.3-385.8,380.3z M-369.3,379.1c0,0.8,0.4,1.4,0.9,1.4
			s0.9-0.4,0.9-0.9s-0.4-1.1-0.9-1.3c-0.1-0.1-0.3-0.1-0.4-0.1C-369,378.2-369.3,378.5-369.3,379.1z M-511.8,380
			c0.4,0.3,0.9,0.1,0.9-0.4s-0.4-0.9-0.9-0.9C-512.9,378.7-512.9,379.3-511.8,380z M-381.1,380c-0.5,1.5,0.8,1.8,1.6,0.5
			c0.3-0.4,0.2-1.1-0.3-1.3c0,0-0.1-0.1-0.2-0.1C-380.3,379-380.8,379.4-381.1,380z M-374.8,385.4c-0.5,4.9-4,12.2-8.1,16.9
			c-4.8,5.6-11,9-10.9,6.1c0-0.6,1.9-2.5,4.3-4c5.5-3.7,8.4-7.5,12.1-15.9c1.6-3.5,2.3-5.1,2.6-5.2l0,0
			C-374.6,383.3-374.6,384.1-374.8,385.4z M-525,385.5c0,0.6-0.8,2.6-1.7,4.4s-2.2,5-2.8,7.2c-1.1,3.4-1.2,3.6-1.5,1.6
			c-0.1-1.3,0.2-4,0.7-5.9c0.9-3.1,4.2-8,5.1-7.7C-525.1,385.1-525,385.2-525,385.5z M-509.1,388.6c1.1,1.6,4.3,5.5,7.1,8.7
			s5.1,6,5.1,6.3c0,1.4-1.8,0.3-5.9-3.8c-4.1-4.2-9.7-12.9-8.8-13.8c0.1,0,0.1,0,0.2,0C-511,386.1-510.1,387.2-509.1,388.6z
			 M-537.9,392.7c-0.5,5.4-0.4,5.8,1.7,7.8c1.2,1.1,2.3,2.9,2.3,4s0.4,2.4,0.8,3.1c1,1.5-1.9,6.8-4.5,8.1c-0.9,0.5-2.5,2.6-3.3,4.6
			s-1.7,3.1-1.7,2.5c0-0.7-0.5-1-1.3-0.7c-0.8,0.4-1.3,0-1.3-0.8s-0.4-1.1-1.1-0.7c-0.7,0.4-0.3,1.2,1.3,2.6
			c2.7,2.4,2.8,2.5,0.8,5.2c-2.2,3-3.2,2.6-2.5-1.1c0.4-2.1,0.3-2.9-0.4-2.6c-1.1,0.6-1.2-7.7-0.4-15.1c0.4-3.8,0.9-4.6,2.3-4.6
			c1.5,0,1.7-0.4,1.3-2.8c-0.3-2,0.3-4.3,2.2-8.1c1.9-3.9,3.1-5.9,3.6-6.1c0.1,0,0.1,0,0.2,0C-537.4,388.2-537.4,389.9-537.9,392.7z
			 M-489.2,390.2c0.8,1.2,2.1,2.5,3.1,2.7c2.2,0.7,2.1,3.1-0.1,3.1c-1.1,0-1.8,0.5-1.8,1.7c0,1-0.4,2-0.9,2.3s-0.6,1-0.4,1.4
			c0.4,0.5,1.1,0.4,2-0.4c2.2-1.8,7.9-4.2,9.9-4.2c0.9,0,2.1,0.9,2.7,1.9c1.5,2.7,3.4,4,5.4,3.5c1-0.3,2.1,0.3,2.8,1.2
			c0.7,1,1.5,1.8,1.9,1.8c2,0.3,3.8,1.7,3.8,3.2c0,1.4,2.9,3.4,4.9,3.4c1.2,0,0-1.9-1.8-2.8c-1.2-0.5-2.2-1.7-2.2-2.5
			s-0.4-1.8-1.1-2.5c-0.9-0.8-0.8-1.3,0-2.1c0.8-0.8,1.3-0.7,2.6,0.5c1.5,1.5,1.5,1.6-0.1,1c-1.4-0.5-1.5-0.4-0.4,1.2
			c1.6,2.5,2.4,2.7,11.3,3.3l7.7,0.5l-0.1,3.6c-0.1,2.6,0.3,3.6,1.2,3.6c1,0,1.3-1,1.3-3.3c0-3.3,0-3.3,2.9-2.7
			c2,0.4,3.2,0.2,3.7-0.7c0.6-1,1.1-1,2.4-0.3c1.1,0.7,1.8,0.6,2.5-0.4c0.8-1.1,1.3-1,3.5,1.1l2.6,2.4l-2.7-0.5
			c-2.4-0.4-3.4,0-6.8,2.8c-2.2,1.8-4.4,4.2-4.9,5.4c-0.5,1.1-1.4,2.3-2,2.5c-6.7,2.4-6.5,2.2-4.6,3.8c1,0.8,2,2.1,2.4,3
			c0.6,1.7,2,2,2.8,0.7c0.5-0.8,5.9,0.7,9.1,2.6c1.2,0.7,0.6,1-2.6,1c-2.4,0-4.2-0.4-4.2-0.9s-0.4-0.6-1.1-0.3
			c-1.2,0.8-29.3,1.4-31.7,0.7c-3.2-0.9-0.4-2.3,3.3-1.7c3.3,0.5,4,0.4,4.9-1.2c0.6-1,2-1.8,3.2-1.8s2.9-0.6,4-1.3l2-1.3l-2.7-3
			c-1.5-1.6-3.7-3.1-4.9-3.3c-1.2-0.2-2.2-0.9-2.2-1.5s-1.4-2.7-3.2-4.6l-3.2-3.4l-11.3,0.8c-6.2,0.4-12.2,0.5-13.3,0.1
			c-3.1-1.1-5.2-11.4-2.3-11.4c1.5,0,1.4-1.3-0.2-2.6c-1.8-1.5-1.7-2.6,0.2-2.7c1.3,0,1.2-0.3-0.4-1.4c-1.1-0.7-1.9-1.8-1.9-2.6
			c0-0.9,0.6-1.3,1.5-1.2C-491.6,388.5-490.2,389.2-489.2,390.2z M-393.8,391.6c2.1,0.6,2.3,2.6,0.5,5.9c-0.6,1.3-1,3.1-0.8,4
			s-0.4,3.2-1.4,5.1s-1.8,3.9-1.8,4.2c0,0.4,1.9,0.7,4.4,0.7c3.4,0,4.4,0.3,4.4,1.4c0,1.2,0.3,1.2,1.3,0.4c1.1-1,1.3-0.9,1.3,0.4
			c0,0.8,0.4,1.3,1.1,1.1c0.6-0.3,1-0.8,0.9-1.3c-0.3-1.3,3.3-2.3,4.4-1.2c0.6,0.6,0,1.3-1.8,2.3c-1.5,0.8-2.7,2-2.7,2.7
			s-0.6,1.3-1.3,1.3s-1.3-0.4-1.3-1s-0.7-0.8-1.5-0.4c-1.6,0.6-4.7-1.8-4.7-3.7c0-0.7-0.4-1.1-1.1-0.9c-1.6,0.5-2,2.5-0.6,2.5
			s1.7,4.6,0.4,5.5c-0.4,0.4-0.6,1-0.2,1.3s1,0.3,1.3-0.3c0.4-0.5,1.3-1.1,2.2-1.5c3.2-1.2,1,1.6-2.6,3.2c-1.8,0.9-4.8,2.3-6.5,3.2
			c-4.5,2.3-5.5,2.1-3.1-0.5c1.2-1.3,2.2-2.8,2.2-3.4s0.6-1.6,1.3-2.2c1.9-1.6,3.3-7.2,1.9-8.1c-0.5-0.4-1.5-0.4-2.1-0.3
			c-1.3,0.4-2.4-1.1-1.1-1.8c1.1-0.7,1.1-2.2,0.1-2.2c-0.5,0-1.1,0.8-1.4,1.8c-0.7,2.2-6.4,2.6-7.2,0.4c-0.7-1.8-3-1.7-5.3,0.5
			c-2,1.8-3.9,1.6-3.9-0.5c0-1.5,4.5-4.4,6.3-4.1c0.8,0.1,1.8-0.5,2.4-1.5c0.5-1,2.2-2.1,3.6-2.6s2.6-1.6,2.6-2.3
			c0-0.7,0.9-1.4,1.9-1.6c1.1-0.2,1.8-0.8,1.8-1.3c-0.1-0.5,0.8-2.1,1.9-3.3c1.1-1.2,2-1.8,3-1.8
			C-394.6,391.3-394.3,391.3-393.8,391.6z M-422.8,394.4c0.6,1.9,1.8,2.8,4.4,3.6c3.9,1.1,5.1,2.9,3.3,5c-0.9,1.1-2.1,1.3-4.6,0.9
			c-2.6-0.4-3.4-0.3-3.9,0.9s-1.3,1.3-4,0.9c-2.6-0.4-3.5-0.2-4,0.9c-0.4,1-1.1,1.1-2.4,0.8c-1.1-0.4-2.3-0.5-2.7-0.5
			s-2,0.2-3.4,0.3c-1.5,0.2-2.7-0.3-3-1c-0.4-0.9,0.3-1.1,2.2-0.6c2.6,0.5,2.7,0.3,5.6-5.5c2.4-4.7,3.4-6,5.2-6.2
			c1.1-0.1,2.6-0.6,3-1.1c0.6-0.5,1.2-0.8,1.8-0.8C-424.3,391.9-423.4,392.8-422.8,394.4z M-396.6,396.1c0,0.4,0.4,0.8,1,1
			s0.9-0.2,0.7-0.7s-0.6-0.9-1-1C-396.2,395.4-396.6,395.5-396.6,396.1z M-430,397.6c0.4,0.3,0.9-0.2,0.9-0.9s-0.4-1.3-0.9-1.3
			C-431.1,395.4-431.1,396.9-430,397.6z M-541.8,397.6c0,0.8,0.4,1.4,0.9,1.4s0.9-0.4,0.9-0.9s-0.4-1.1-0.9-1.3
			c-0.1-0.1-0.3-0.1-0.4-0.1C-541.5,396.7-541.8,397-541.8,397.6z M-425.1,399c0.7,1.1,2.2,1.1,2.2,0c0-0.4-0.6-0.9-1.4-0.9
			S-425.4,398.4-425.1,399z M-431.8,400.2c0,0.8,0.4,1.4,0.9,1.4c0.4,0,0.9-0.4,0.9-0.9s-0.4-1.1-0.9-1.3c-0.1-0.1-0.3-0.1-0.4-0.1
			C-431.5,399.3-431.8,399.7-431.8,400.2z M-418.6,400.7c0,0.4,0.4,0.9,0.9,0.9s0.9-0.4,0.9-0.9s-0.4-0.9-0.9-0.9
			S-418.6,400.3-418.6,400.7z M-397.1,399.8c-0.2,0.1-0.4,0.4-0.7,0.8c-0.4,0.4-0.2,1.1,0.4,1.4c0.4,0.4,0.9,0,0.9-0.8
			C-396.6,400.3-396.7,399.8-397.1,399.8C-397,399.8-397,399.8-397.1,399.8z M-400.6,399.8c-0.2,0.1-0.4,0.4-0.7,0.8
			c-0.4,0.4-0.2,1.1,0.4,1.4c0.4,0.4,0.9,0,0.9-0.8C-400.1,400.3-400.3,399.8-400.6,399.8C-400.5,399.8-400.5,399.8-400.6,399.8z
			 M-480.3,400.3c-4.4,0.7-4.6,0.8-3.9,2.6c0.6,1.6,2.9,1.8,3.7,0.5c0.4-0.4,1.3-0.9,2.3-0.9s1.7-0.6,1.7-1.4c0-0.7-0.3-1.1-1.2-1.1
			C-478.4,400-479.2,400.1-480.3,400.3z M-538.2,401.7c-1.4,2.2-0.9,4.3,1,4.3c1,0,1.8-0.4,1.8-1c0-0.5-0.4-1.8-1-2.7
			c-0.4-0.8-0.7-1.1-1-1.2C-537.7,401-538,401.2-538.2,401.7z M-426.8,401.4c-2.8,0.5-2.8,1.9,0,1.9c1.2,0,2.2-0.5,2.2-1.2
			c0-0.5-0.3-0.8-0.9-0.9C-425.9,401.2-426.3,401.2-426.8,401.4z M-542.5,403.2c-0.2,0.6,0.3,1.1,1.1,1.1s1.4-0.6,1.4-1.4
			c0-0.6-0.3-1-0.6-1.1c-0.1,0-0.2,0-0.3,0C-541.4,401.8-542.1,402.3-542.5,403.2z M-515.4,402.8c0,0.6,0.7,1.8,1.6,2.6
			c1.1,1,1.6,2.5,1.4,4.6c-0.4,4.5-2.4,12.1-3.3,12.8c-0.5,0.4-0.5,1.4,0.2,2.9c1.3,3.1,1.3,6-0.1,5.5c-0.5-0.2-2.3-2.1-3.7-4.3
			c-1.4-2.2-4.1-5.8-6.1-8.1c-2.8-3.3-3.4-4.8-3.5-7.9c-0.1-3.5,0.2-4,3.7-6.2c2.1-1.2,4.3-2.1,5-1.8c0.7,0.3,2.1,0,3.1-0.5
			c0.8-0.4,1.2-0.5,1.5-0.5C-515.4,402-515.4,402.2-515.4,402.8z M-476.1,404.3c0.3,0.4,0,0.9-0.7,0.9s-1.9,0.7-2.8,1.7
			c-1.5,1.6-1.5,1.7,1.1,1.6c1.8-0.1,2.7-0.5,2.7-1.4c0-1,0.3-1.1,1.3-0.2c1.1,0.9,1.5,0.8,1.9-0.4c0.3-0.9,0-1.8-0.7-2.3
			c-0.9-0.5-1.8-0.8-2.4-0.8C-476.2,403.4-476.5,403.7-476.1,404.3z M-362.4,405.6c2.5,1.1,4.8,2.6,5.1,3.3c0.5,1,0.4,1-0.5,0.1
			c-0.6-0.5-2.7-1.1-4.6-1.1c-1.8,0-4.1-0.4-5.1-1c-1.5-0.8-1.6-1.1-0.5-2.2c0.4-0.4,0.7-0.7,1.2-0.7c0.1,0,0.3,0,0.4,0
			C-365.7,404.1-364.4,404.5-362.4,405.6z M-453.3,406.1c-0.4,0.6-0.9,0.5-1.3-0.3c-0.4-0.6-0.5-1.3-0.4-1.5
			c0.1-0.1,0.2-0.2,0.3-0.2c0.1,0,0.2,0,0.3,0C-453.8,404.3-453,405.5-453.3,406.1z M-398.3,406.4c0.4,0.3,0.9-0.2,0.9-0.9
			c0-0.7-0.4-1.3-0.9-1.3C-399.5,404.2-399.5,405.7-398.3,406.4z M-470.5,406.4c0,1.3,1,1.7,2,0.7c1.1-1,0.7-2-0.7-2
			C-469.9,405.1-470.5,405.6-470.5,406.4z M-489,406c0,0.4,0.4,0.9,0.9,0.9s0.9-0.4,0.9-0.9s-0.4-0.9-0.9-0.9S-489,405.6-489,406z
			 M-517.1,405.9c0,0.4,0.4,1.1,0.9,1.4s0.9,0.1,0.9-0.4s-0.4-1.1-0.9-1.4c-0.1-0.1-0.3-0.2-0.4-0.2
			C-516.9,405.3-517.1,405.5-517.1,405.9z M-483.7,405.6c-1.1,0.7-1.1,2.2,0,2.2c0.4,0,0.9-0.6,0.9-1.4c0-0.6-0.2-1-0.5-1
			C-483.4,405.4-483.5,405.5-483.7,405.6z M-544,407.8c-2.1,2-2.9,5.2-1.2,5.2c0.4,0,0.9-0.6,0.9-1.3c0-0.7,0.6-1.3,1.3-1.3
			c1.6,0,2.6-2.1,1.7-3.5c-0.1-0.2-0.2-0.4-0.4-0.4c-0.1,0-0.1,0-0.2,0C-542.4,406.5-543.1,407-544,407.8z M-504.3,407.7
			c0.3,0.4,2.4,0.9,4.7,0.9c5.8,0,8.1,1.5,11,7c2.1,4.1,2.3,4.8,1.1,5.1c-1.1,0.3-1.1,0.6-0.4,1.6c0.5,0.7,1.3,1.1,1.6,0.9
			c0.3-0.2,2.1,1,4,2.6c3,2.6,3.2,3,1.6,3c-1,0.1-2.4-0.6-3-1.3c-0.6-0.7-2.7-2.1-4.6-3.1c-1.8-1-3.6-2.4-3.9-3s-1.8-2-3.4-3
			c-3.5-2-3.9-4.1-1.1-5.3c1.6-0.7,1.3-0.8-1.9-0.9c-3.7,0-9.8-2.9-9.8-4.7c0-0.5,0.9-0.8,1.8-0.7
			C-505.7,406.9-504.6,407.2-504.3,407.7z M-366.6,409c8.4,4.6,19.3,16.8,19.3,21.8c0,2.1,1.7,2.6,4,1c1.6-1,2.1-2,1.8-3.2
			c-0.9-3.1,1-1.7,2.9,2.4c1.6,3.3,1.8,4.5,1,6.2s-0.7,2.2,0.4,2.8c0.8,0.4,1.6,2.5,1.8,4.6c0.2,2.1,0.7,4.2,1.1,4.8
			c1.1,1.3,0.3,5.5-1.3,6.9c-0.7,0.5-1.2,2.1-1.2,3.5s-0.4,2.6-0.9,2.6s-0.9-0.7-0.9-1.6s-0.6-2.8-1.3-4.3c-1.1-2.1-1.1-3.2-0.4-4.9
			c0.6-1.3,1.5-2,2.2-1.8c1.8,0.7,1.5-2.7-0.6-6.3c-1.8-3.2-5-4.6-4-1.8c0.3,0.8,0.5,1.8,0.5,2.2s0.4,0.7,1.1,0.6
			c1.8-0.4,1.9,3.4,0.2,4.1c-2,0.8-3-0.4-3.3-4.1c-0.1-1.8-0.4-3.4-0.8-3.8c-1-0.9-3.3,1.4-3.3,3.3c0,1.4-0.4,1.5-2.8,1.1
			c-1.6-0.4-3.3-1.1-3.8-1.8c-1.1-1.5-4-1.1-4.6,0.5c-0.3,0.9,0.2,1.1,1.5,0.6c3-1,2.2,1.6-1.5,4.6c-6.7,5.4-9.9,4.3-9.9-3.3
			c0-6.1-5.8-18.6-8.3-17.8c-1.4,0.4-1.6,0.2-1.1-1.8c0.5-2.1,0.4-2.2-1.5-1.8c-1.8,0.4-2.2,0.1-2.7-1.9c-0.7-2.8,1.4-6.2,4.8-8
			c1.2-0.5,2.6-1.7,3.3-2.6c1.1-1.3,1.1-1.2,1.1,1c0,1.4,0.7,3.9,1.5,5.5c1.4,3,1.4,3.1-1.1,5l-2.5,1.9l1.9,1.9
			c1.1,1.1,1.9,2.6,1.9,3.5c0,2.5,1.7,3.8,3.7,2.7c0.9-0.5,3.6-1.4,5.9-2c3.7-1,4.5-0.9,6.3,0.4c1.1,0.9,3.2,1.8,4.6,2.2l2.6,0.6
			l-2.5-4.6c-3.7-6.7-9.9-14.1-15-17.5c-4.2-2.9-5.7-4.8-4.2-4.8C-369.7,407.7-368.4,408.1-366.6,409z M-539.1,408.6
			c-0.5,0-0.9,0.5-0.9,1.2c0,0.6-0.6,1.7-1.3,2.3c-0.7,0.6-1.3,1.6-1.3,2.3c0,2.1,2.2,1.3,3.3-1.1c1.2-2.7,1.4-4.5,0.4-4.7
			C-538.9,408.6-539,408.6-539.1,408.6z M-519.4,408.9c-0.8,0.9,0.6,4.2,1.5,3.7c0.4-0.3,1.1,0.3,1.5,1.3c0.4,1.1,1,1.6,1.3,1.2
			c1.3-1.3,0.5-3.9-1.6-5.3c-1-0.6-1.8-1-2.4-1.1C-519.2,408.7-519.3,408.8-519.4,408.9z M-524.2,410.8c0,0.7,0.4,1.3,0.9,1.3
			s0.9-0.6,0.9-1.3c0-0.7-0.4-1.3-0.9-1.3S-524.2,410.1-524.2,410.8z M-450.2,410.7c0,0.8,1.1,1.6,2.5,1.9c1.3,0.4,2.9,1,3.4,1.4
			c0.6,0.4,1.2,0.4,1.6-0.2c0.8-1.3-0.1-2.4-2.4-2.9c-1.1-0.2-2.6-0.7-3.5-1.1c-0.3-0.1-0.5-0.2-0.7-0.2
			C-450,409.6-450.2,410-450.2,410.7z M-537.4,411.3c0,0.4,0.4,0.9,0.9,0.9s0.9-0.4,0.9-0.9s-0.4-0.9-0.9-0.9
			S-537.4,410.8-537.4,411.3z M-508.5,411.5c1.4,1.3,1.3,1.6-0.3,2.7c-1.6,1.1-1.8,1.1-2-1c-0.2-1.2,0-2.5,0.3-2.7
			c0.1-0.1,0.2-0.1,0.4-0.1C-509.8,410.5-509.1,410.9-508.5,411.5z M-492.4,414.6c-0.9,2.1-0.4,4.6,1.1,4.6c0.5,0,0.6-0.9,0.4-1.9
			c-0.3-1.1-0.6-2.6-0.6-3.3c0-0.3-0.1-0.4-0.2-0.4C-491.9,413.5-492.2,413.8-492.4,414.6z M-521.1,414c-0.6,0.6,0.5,3.3,1.4,3.3
			c0.4,0,1-0.4,1.2-0.8c0.4-0.7-1.3-2.6-2.3-2.6C-520.9,413.9-521,414-521.1,414z M-533,423.7c0.4,5.9,1.5,11.6,3,16
			c2.7,7.9,2.7,8.3,1.1,6.9c-0.7-0.6-1.9-2.9-2.7-5.2c-1-2.8-1.6-7.7-1.8-15.6l-0.3-11.4L-533,423.7z M-546.2,415.2
			c-0.9,1.1-0.9,1.7,0.4,3.1c1.9,2.1,3.1,2.2,3.1,0.2c0-0.8-0.6-2.2-1.2-3.1c-0.5-0.7-0.8-1.1-1.1-1.1
			C-545.4,414.3-545.6,414.6-546.2,415.2z M-451.6,416.1c-0.7,1.8,0.4,2.7,1.7,1.4c1.6-1.6,3.1-1.2,3.4,0.9c0.3,2.2,2.5,3.3,2.5,1.1
			c0-0.8-0.4-2.2-0.9-3.2c-0.6-1.1-2.1-1.6-3.5-1.7C-449.9,414.7-451.3,415.2-451.6,416.1z M-480.9,416.9c4.9,2.6,16.4,5.7,20.3,5.7
			c1.3,0,2.5,0.4,2.5,1c0,1.1-5.5,0.5-11.9-1.1c-4.6-1.1-15.4-6.1-15.4-7c0-0.1,0.1-0.1,0.4-0.1C-484.4,415.4-482.8,416-480.9,416.9
			z M-378,417c0,1.7,0.4,1.7,1.8,0c0.9-1.1,0.8-1.3-0.4-1.3C-377.4,415.7-378.1,416.2-378,417z M-435.3,416.2
			c-1.1,0.7-1.1,2.2,0,2.2c0.4,0,0.9-0.6,0.9-1.4c0-0.6-0.2-1-0.5-1C-435,415.9-435.1,416-435.3,416.2z M-517.1,416.8
			c0,0.3-0.3,1.1-0.5,1.8c-0.4,0.9-0.1,1.4,0.9,1.4c0.8,0,1.4-0.6,1.4-1.3s-0.4-1.5-0.9-1.8c-0.3-0.2-0.4-0.3-0.6-0.3
			C-517,416.6-517.1,416.7-517.1,416.8z M-420.7,423.1c-4.6,1.1-6.4,1.5-11.4,2.2c-0.5,0.1-0.3-0.3,0.4-0.7c0.7-0.4,1.9-0.9,2.8-0.9
			s6.3-1.7,12.2-3.6c5.9-2,10.8-3.4,11-3.3C-405,417.4-415.2,421.7-420.7,423.1z M-522.4,420.3c1,0.8,1.9,1.1,2.2,0.6
			c0.7-1.1-0.1-2.3-2.2-2.8c-0.5-0.2-1-0.2-1.2-0.2C-524.5,418-524.1,418.8-522.4,420.3z M-375.5,418.8c-1.1,0.7-1.1,3.1,0,3.1
			c0.5,0,1.1-0.4,1.4-0.9c0.6-1-0.1-2.4-1-2.3C-375.2,418.7-375.3,418.7-375.5,418.8z M-380.7,420.4c0,0.8,0.4,1.4,0.9,1.4
			s0.9-0.4,0.9-0.9s-0.4-1.1-0.9-1.3c-0.1-0.1-0.3-0.1-0.4-0.1C-380.5,419.6-380.7,419.9-380.7,420.4z M-448.8,421.8
			c-0.4,0.4-0.2,0.9,0.4,0.9c0.5,0,1-0.4,1-0.9c0-0.6-0.2-0.9-0.4-0.9C-448.2,421-448.6,421.2-448.8,421.8z M-398.7,422.2
			c-0.5,1.5,0.8,1.8,1.6,0.5c0.3-0.4,0.2-1.1-0.3-1.3c0,0-0.1-0.1-0.2-0.1C-397.9,421.2-398.4,421.7-398.7,422.2z M-519.8,422.7
			c0,0.4,0.4,0.9,0.9,0.9s0.9-0.4,0.9-0.9s-0.4-0.9-0.9-0.9S-519.8,422.3-519.8,422.7z M-488.1,429.8c-0.7,0-2,0.8-2.8,1.8
			s-2.5,1.8-3.7,1.8s-3,0.8-4,1.8s-2.9,1.8-4.4,1.8c-2,0-2.6,0.4-2.6,1.8c0,2.6-2.6,2.1-3.1-0.7c-0.3-1.4-1.3-4-2.3-5.9l-1.8-3.4
			l2.5,0.6c1.4,0.3,4,0.8,5.8,1.1c2.8,0.5,3.1,0.7,1.9,1.8c-0.7,0.7-1.2,1.7-1.2,2.1c0,1.3,2.3,1,3.5-0.5c0.6-0.8,2.5-1.9,4-2.6
			c3.2-1.4,3.9-3.1,1.1-3.1c-1.5,0-1.6-0.3-0.7-2.2c0.5-1.2,1.2-2.2,1.5-2.2C-493.1,423.7-487,429.8-488.1,429.8z M-383.6,428.2
			c5.1,4,9.6,9.9,10.5,14.1c0.3,1.4,0.1,4-0.5,5.8c-8.5,16.1-30.9,21.1-47.4,24.4c-19.6,3.7-37.9,0.1-56.3-6.5c-6-2.2-7-3-16.8-12.4
			c-11.3-10.9-11.2-10.3-1.9-15.5c7.6-4.3,15-6.5,17.8-5.5c9.5,3.6,33.5,5.3,50.3,3.4c12.8-1.4,28.4-5.4,34.8-8.8l4.9-2.7
			L-383.6,428.2z M-455.1,429.1c-0.4,0.3-0.4,1.1-0.1,1.7c0.3,0.7,0.5,0.5,0.5-0.5c0-0.7-0.1-1.1-0.3-1.2
			C-455,429-455.1,429-455.1,429.1z M-443.4,430.8c-0.7,0.3-0.5,0.5,0.5,0.5c0.9,0.1,1.4-0.2,1.1-0.4c-0.2-0.1-0.4-0.2-0.7-0.2
			C-442.7,430.7-443,430.7-443.4,430.8z M-507.4,432.8c0,0.7,0.4,1.3,0.9,1.3s0.9-0.6,0.9-1.3c0-0.7-0.4-1.3-0.9-1.3
			S-507.4,432.1-507.4,432.8z M-339.8,432.7c-0.4,0.3-0.4,1.1-0.1,1.7c0.3,0.7,0.5,0.5,0.5-0.5c0-0.7-0.1-1.1-0.3-1.2
			C-339.7,432.5-339.8,432.5-339.8,432.7z M-513.4,435.9c0.7,1.7,1.8,3.3,2.3,3.7c1.8,1.1,1,2.3-1.8,2.3c-2.2,0-2.6,0.2-1.7,1.1
			c0.5,0.6,2.3,1.5,3.9,2c1.7,0.5,3,1.7,3.2,2.6c0.4,2,1.7,3,4.2,3c1.2,0,2.6,1.1,3.7,3.1c1.1,1.8,2.6,3.3,3.3,3.7
			c3.9,1.5,9.9,7.7,9.9,10.3c0,2.5,0.9,2.8,3.4,1.4c1.2-0.6,1.9-0.5,2.7,0.4c0.6,0.7,1.8,1.3,2.7,1.3s2.5,0.8,3.4,1.8
			c1,1,2.9,1.8,4.3,1.8c1.5,0,3.7,1,5.3,2.3c2.2,1.8,2.9,2.1,4,1.2c1-0.9,2-0.9,4.6,0l3.3,1.1l-3.4,2.9c-3.8,3.3-7.8,4.7-13.5,4.7
			c-4.1,0-9.9,2-9.9,3.5c0,0.5,0.4,1,0.9,1s1.5,1.6,2.3,3.3c0.8,1.8,2,3.6,2.7,4c2.8,1.6,8.1,6.9,7.7,7.7c-0.8,1.2-2.3,1-6.2-1.3
			c-2.3-1.3-4-1.8-4.5-1.2c-0.6,0.5-2.6-0.3-5.8-2.3c-2.7-1.8-5.9-3.2-7-3.2s-2.6-0.6-3.3-1.3c-0.6-0.8-1.8-1.1-2.8-0.8
			c-1.3,0.4-1.7,0.2-1.4-1.1c0.3-1.2,1.4-1.8,4.8-2.2c2.5-0.3,5.9-1.1,7.7-1.7l3.3-1.1l-1.8-1.7c-1.5-1.4-1.8-2.3-1.2-6
			c0.6-4.4-0.5-6.1-1.7-2.3l-0.6,1.9l-1.1-2.2c-0.5-1.2-1.5-2.6-2.1-2.9c-1.8-1.1-1.3-3.3,1.1-4.3c2.8-1.2,2.4-3-0.7-2.6
			c-2.1,0.3-2.5-0.2-3.8-4.8l-1.5-5l-1.6,2.1c-0.9,1.1-1.7,1.7-1.7,1.1c0-0.5-1-1.7-2.2-2.5c-1.7-1.1-2.6-1.2-3.4-0.4
			c-1.5,1.3-9.6-0.4-12.8-2.6c-1.2-0.8-3.2-1.6-4.4-1.8c-2.2-0.3-2.3-0.1-2.8,7.2c-0.4,4.1-0.3,7.9,0.1,8.4c1.4,1.8,1.6,5.7,0.4,5.7
			c-0.6,0-1.1-1-1.1-2.2s-0.7-2.6-1.7-3.1c-2.9-1.6-7.9-9.2-7-10.8c0.6-1.1,0.2-1.6-2.2-2.4c-1.6-0.5-3.3-1.6-3.5-2.4
			c-0.4-1-0.2-1.2,0.8-0.9c1.8,0.7,1.7-0.5-0.4-3.2c-1.2-1.6-1.4-2.5-0.7-3.2s0.7-1.3-0.1-2.2c-0.8-1-0.4-1,2,0.2
			c3.3,1.6,4.8,3.6,3.2,4.6c-0.6,0.4-0.5,0.9,0.4,1.6c1.1,0.9,1.4,0.7,1.8-1.1c0.7-2.5,2.1-2.7,4.6-0.9c2.3,1.8,3,1.7,3-0.4
			c0-1,0.4-1.9,0.8-2.2c0.4-0.3,1.2-2.6,1.8-5.3c0.8-3.3,1.9-5.5,4-7.6l2.9-2.8L-513.4,435.9z M-358.2,435.6c1.8,1.4,4,1.6,4,0.4
			c0-0.4-1.1-1.4-2.2-2.2c-0.9-0.5-1.6-0.7-2.1-0.7C-359.7,433.1-359.9,434.3-358.2,435.6z M-545.7,435.7c0.3,1.3,1.6,4,2.7,5.7
			c1.1,1.8,2.1,3.4,2.1,3.7c0,1.3-1.7,0-4.2-3.3c-1.7-2.1-2.8-4.8-2.8-6.2c0-1.7,0.4-2.5,0.8-2.5S-546.2,434.1-545.7,435.7z
			 M-368.4,438.7c0,2.2,1.4,1.9,2-0.4c0.4-1.2,1-1.7,1.8-1.3c1.6,0.6,2.5-0.5,1.8-2.4c-0.2-0.6-0.7-0.8-1.2-0.8
			C-365.7,433.9-368.3,436.4-368.4,438.7z M-342,438.1c0.4,0.3,0.9-0.4,0.9-1.3c0-1-0.4-1.8-0.9-1.8
			C-343.1,435-343.1,437.4-342,438.1z M-351.7,435.9c0,0.4,0.4,0.9,0.9,0.9s0.9-0.4,0.9-0.9s-0.4-0.9-0.9-0.9
			S-351.7,435.5-351.7,435.9z M-360.5,438c0,0.8,0.6,1.4,1.4,1.4s1.2-0.4,1.1-1.1c-0.3-0.9-0.9-1.3-1.4-1.4S-360.5,437.2-360.5,438z
			 M-348.2,438.6c0,0.4,0.6,0.9,1.3,0.9s1.3-0.4,1.3-0.9s-0.6-0.9-1.3-0.9S-348.2,438.1-348.2,438.6z M-351.7,440.3
			c0,1.1,1.5,1.1,2.2-0.1c0.3-0.5,0.4-1.1,0.1-1.4c-0.1-0.1-0.2-0.2-0.3-0.2c-0.1,0-0.2,0-0.3,0
			C-350.6,438.6-351.7,439.5-351.7,440.3z M-517.3,439.4c-2.8,1.1-3.2,2.7-0.6,2.7c1,0,1.8-0.4,1.8-1s0.8-0.7,1.8-0.4
			c1.1,0.3,1.8,0.1,1.8-0.4c0-1-0.9-1.5-2.1-1.5C-515.5,438.8-516.4,439-517.3,439.4z M-363.1,441.6c0,0.7,0.4,1.3,0.9,1.3
			s0.9-0.6,0.9-1.3s-0.4-1.3-0.9-1.3S-363.1,440.9-363.1,441.6z M-365.8,442.5c0,0.7,0.4,1.3,0.9,1.3c0.4,0,0.9-0.6,0.9-1.3
			c0-0.7-0.4-1.3-0.9-1.3C-365.3,441.2-365.8,441.8-365.8,442.5z M-362.2,446.9c0,0.7,0.6,1.3,1.3,1.3c0.7,0,1.3-0.6,1.3-1.3
			s-0.6-1.3-1.3-1.3S-362.2,446.2-362.2,446.9z M-367.2,447.1c-0.3,0.5,0.3,1.1,1.1,1.1c0.8,0,1.3-0.4,1.1-0.9
			c-0.3-0.6-0.7-1-1.1-1.1C-366.6,446.2-367.1,446.5-367.2,447.1z M-515.5,448.9c0.6,0.2,1.1-0.3,1.1-1.1c0-0.8-0.6-1.4-1.4-1.4
			C-517.4,446.5-517.1,448.3-515.5,448.9z M-349.1,457.2c-2.9,7.4-7.1,13-11.8,15.5c-3.1,1.7-2.6,0.4,2-4.7
			c4.1-4.6,10.7-16,10.7-18.7c0-0.6,0.4-1.1,0.9-1.1C-346.2,448.2-346.8,451.3-349.1,457.2z M-511.6,449.5c0.3,0.7,0.2,1.4-0.3,1.6
			c-1.1,0.4,0,4,1.3,4.5c0.7,0.3,1.1-0.7,1.1-3.4c0-2.8-0.4-3.9-1.2-3.9C-511.5,448.2-511.8,448.8-511.6,449.5z M-520.5,450
			c0,1,0.6,1.8,1.3,1.8s1.3-0.5,1.3-1.2s-0.6-1.5-1.3-1.8c-0.3-0.1-0.4-0.1-0.6-0.1C-520.4,448.7-520.6,449.1-520.5,450z
			 M-338.4,452.1c-0.5,0.4-1,1.1-1,1.8c0,1.5,2.2,1.8,3.1,0.4c0.6-1.1-0.4-2.4-1.4-2.4C-337.9,451.9-338.1,451.9-338.4,452.1z
			 M-644.5,456.3c-2.4,1.3-3.7,1.2-3.7-0.2c0-1.4,2.7-3.5,4.5-3.5C-641.2,452.6-641.7,454.9-644.5,456.3z M-506,455.1
			c0.7,2.4,3.1,2.5,3.1,0.1c0-1-0.7-2-1.4-2.3c-0.4-0.2-0.9-0.3-1.1-0.3C-506.4,452.6-506.6,453.5-506,455.1z M-517.1,454.8
			c0.4,0.3,0.9,0.1,0.9-0.4s-0.4-0.9-0.9-0.9C-518.2,453.5-518.2,454.1-517.1,454.8z M-529.4,454.4c0,0.4,0.4,0.9,0.9,0.9
			s0.9-0.4,0.9-0.9c0-0.4-0.4-0.9-0.9-0.9S-529.4,454-529.4,454.4z M-368.5,454.4c1.8,1.8,1.3,4.1-0.9,4.4c-2.6,0.4-2.6,2.9,0,3.3
			c1.8,0.3,1.9,0.6,1.5,4.4c-1.1,9.3-1.2,9.9-3.3,9.9c-1.1,0-2.6,0.4-3.3,0.9c-2.1,1.3-3.4,1.1-4.5-1c-0.9-1.7-1.1-1.8-2.5-0.5
			c-1.5,1.4-8.5,1.1-9.4-0.4c-0.3-0.4-1-0.5-1.7-0.3c-0.6,0.3-1.4,0.1-1.8-0.4s-1.9-1-3.6-1c-3.2,0-4.1-1.1-1.7-2.1
			c0.8-0.3,2.6-0.5,4.1-0.5s3.4-0.7,4.3-1.5c1-0.9,1.6-1.1,1.6-0.4c0,0.6,0.4,1.1,1,1.1c0.5,0,0.7-0.6,0.4-1.3c-0.4-1,0.2-1.5,2-1.8
			c1.6-0.3,2.7-1.2,3.1-2.4c0.5-1.8,0.5-1.8,1.8-0.2c0.7,1,1.4,1.3,1.4,0.9s0.1-2,0.2-3.4c0.1-1.7,0.6-2.6,1.4-2.6
			c2,0,2.1,3.1,0,5.9c-2.2,3-1.9,3.8,0.7,1.9c2.1-1.5,3.8-6.4,3.1-9.2c-0.4-1.4,0-1.8,1.4-1.8c1.1,0,1.8-0.5,1.8-1.3
			s0.3-1.2,0.7-1.3C-369.9,453.5-369.3,453.8-368.5,454.4z M-641.1,459.2c-1,0.4-2,1.3-2.3,2.3c-0.6,1.8-3.1,2.5-3.1,0.8
			c0-1.2,4.8-6.1,6.1-6.1C-638.7,456.2-639.3,458.6-641.1,459.2z M-533.4,457.9c0.3,0.4,1,0.9,1.4,0.9s0.6-0.4,0.4-0.9
			c-0.3-0.4-1-0.9-1.4-0.9S-533.7,457.5-533.4,457.9z M-507.9,457.3c-0.4,0.3-0.4,1.1-0.1,1.7c0.3,0.7,0.5,0.5,0.5-0.5
			c0-0.7-0.1-1.1-0.3-1.2C-507.8,457.1-507.9,457.1-507.9,457.3z M-498.6,459.2c0.4,0.3,0.9,0.1,0.9-0.4s-0.4-0.9-0.9-0.9
			C-499.7,457.9-499.7,458.5-498.6,459.2z M-639.7,464.2c-3,3.5-3.8,4-4.6,2.6c-0.6-1.1,4.7-7.1,6.2-7.1
			C-636.2,459.7-636.4,460.4-639.7,464.2z M-529.4,463.2c0,2.8,2,3.7,3,1.2c1-2.6,0.5-3.9-1.2-3.9
			C-529,460.6-529.4,461.1-529.4,463.2z M-516.9,462.8c5.6,7.9,16.5,17.5,24.2,21.6c2,1.1,3.7,2.3,3.7,2.7c0,1-5.1-1.1-10.3-4.1
			c-7.8-4.6-22.1-20.2-20.2-22.2c0.1-0.1,0.1-0.1,0.2-0.1C-518.7,460.6-517.7,461.4-516.9,462.8z M-538.5,464
			c-0.5,1.5-1.7,3.2-2.6,3.7c-0.9,0.5-3.8,2.7-6.3,5c-10.3,9.2-12.1,10.6-14.3,11.1c-2.9,0.8-3.8-0.2-1.8-1.7
			c0.9-0.6,1.1-1.4,0.7-1.7c-1.2-0.8-5.2,2.8-5.5,4.9c-0.2,1.3-1.8,2.5-6,4.2c-7.1,3-7.7,3.1-10.4,0.9c-2.8-2.3-3.4-2.3-4.1,0.2
			c-0.6,1.8-0.6,1.8-1.3,0.2c-0.5-1.2-0.3-2.3,1.1-3.8c1.5-1.7,1.7-2.3,0.8-3.7c-1.4-2.3-1.3-3.5,0.3-2.9c0.7,0.3,1.3,1,1.3,1.6
			c0,1,8.2,1.2,16.8,0.6c1.3-0.1,2.7-4.6,4.9-15.3c0.3-1.3,0.8-2.6,1.1-2.8c0.4-0.2,5.6-0.8,12-1.3c6.3-0.5,12.1-1.1,12.9-1.4
			c0.4-0.1,0.6-0.2,0.8-0.2C-537.6,461.6-537.7,462.2-538.5,464z M-636.4,466.7c-2.6,4.9-4,6.2-5.2,4.3c-0.3-0.4,0.4-1.7,1.3-2.8
			c1-1.1,2.3-2.8,3-3.8c0.6-0.8,1.1-1.2,1.4-1.3C-635.2,463-635.2,464.5-636.4,466.7z M-489.8,463.7c-1.1,0.7-1.1,2.2,0,2.2
			c0.4,0,0.9-0.6,0.9-1.4c0-0.6-0.2-1-0.5-1C-489.6,463.5-489.7,463.6-489.8,463.7z M-373.7,465.4c0,0.7,0.4,1.3,0.9,1.3
			s0.9-0.6,0.9-1.3c0-0.7-0.4-1.3-0.9-1.3S-373.7,464.7-373.7,465.4z M-544,465c-0.8,0-1.8,1-2.2,2.2c-0.5,1.2-1.2,2.2-1.6,2.1
			c-1.9-0.4-2.8,0.3-2.8,1.8c0,2.4,0.7,2.2,4.6-1.1c3.3-2.8,4.1-4.8,2.4-5C-543.7,465-543.8,465-544,465z M-552.8,468.5
			c0.9,1.3,1.8,1.1,3.4-0.7c1.9-2.1,1.8-2.8-0.2-2.8C-551.5,465-553.5,467.2-552.8,468.5z M-632.7,469.2c-0.8,0.9-1.8,2.6-2.3,4
			c-1,2.6-3.3,3.4-2.5,0.9c1.7-5.1,3.2-8.6,4-8.9c0.3-0.1,0.4-0.1,0.6-0.1C-631.6,465.3-631.3,467.8-632.7,469.2z M-557.5,466
			c0,0.7,0.5,1.2,1.3,1.2s1.2-0.4,1.1-0.9c-0.3-0.7-0.9-1.1-1.4-1.2C-557.1,465-557.6,465.3-557.5,466z M-561.1,470.2
			c1,1.8,1.9,2.1,2.8,1.2c0.7-0.6-1.8-5.6-2.9-5.6C-562.3,465.8-562.2,468.1-561.1,470.2z M-373.1,469.8c-0.5,1.3,0.4,1.8,1.5,0.7
			c0.9-0.8,0.7-2-0.2-2C-372.3,468.5-372.8,469-373.1,469.8z M-384.9,470.1c-0.2,0.6,0.3,1.1,1.1,1.1s1.4-0.6,1.4-1.4
			c0-0.6-0.3-1-0.6-1.1c-0.1,0-0.2,0-0.3,0C-383.9,468.7-384.6,469.2-384.9,470.1z M-628.6,470.2c-0.1,0.3-0.9,2.1-1.8,4.1
			c-1.4,3.3-2.9,4.9-2.9,3.2c0-1.9,3.1-8.2,3.9-7.9C-628.9,469.8-628.5,470.1-628.6,470.2z M-555.8,473.2c-0.4,1.1-1.4,2.4-2.2,2.6
			s-1.1,0.9-0.9,1.4c0.9,1.4,1.6,1.1,4.2-1.7c2.6-2.9,3.1-4.5,1.1-4.5C-554.3,471.1-555.4,472.1-555.8,473.2z M-392.5,472
			c-0.4,0.4,0,0.9,0.8,0.9s1.4-0.4,1.4-0.9c0-0.6-0.4-0.9-0.9-0.9S-392.2,471.4-392.5,472z M-376.3,473.2c0.4,0.4,1,0.2,1.3-0.4
			s0-0.9-0.8-0.9C-377.4,472-377.5,472.5-376.3,473.2z M-479.3,473.3c1.4,1.7,2.6,1.7,2.6,0c0-0.8-0.8-1.3-1.8-1.3
			C-480.1,472-480.2,472.2-479.3,473.3z M-624.8,473.3c-0.4,0.9-1.3,3.3-2,5.4c-1.4,4-2.8,4.9-2.8,1.7c0-1.1,0.4-2.4,0.8-2.8
			c0.4-0.4,0.9-1.8,1.1-3c0.2-1.2,1-2.3,1.9-2.5c0.4-0.1,0.6-0.1,0.8-0.1C-624.5,472.1-624.5,472.4-624.8,473.3z M-385.1,473.8
			c0,0.4,0.6,0.9,1.3,0.9s1.3-0.4,1.3-0.9s-0.6-0.9-1.3-0.9S-385.1,473.3-385.1,473.8z M-484,474.2c0.5,1.3,1.4,1.7,2.4,0.7
			c0.9-0.8-0.2-2-1.6-2C-483.9,472.9-484.3,473.4-484,474.2z M-564.5,476.6c0,2.1,1.9,2,3.9-0.1c0.8-1,1.2-2.1,1-2.6
			c-0.2-0.3-0.4-0.4-0.8-0.4C-561.9,473.2-564.6,475-564.5,476.6z M-405.5,473.2c4.9,0.9,3.2,5.1-2.5,6c-2.5,0.4-3.2,0.9-2.6,1.5
			c1.7,1.7,1,3.2-2.4,5.1c-4.2,2.4-7.9,7.7-6,8.4c0.7,0.3,1.3,1.5,1.3,2.6c0,1.8,0.3,2,1.6,1.1c1.2-0.7,2.9-0.6,6.8,0.4
			c3.8,1,5.7,1.1,7.2,0.4c2.6-1.1,3.6-0.1,1.8,1.8c-1.1,1.2-1.8,1.3-3.7,0.4c-1.6-0.7-2.7-0.7-4-0.1c-2.1,1.1-2.2,2.6-0.2,2.6
			c1.2,0,1.3,0.1,0.2,0.7c-4,2.3-10.6,1.6-8.1-0.9c1.6-1.6,1.2-3.3-0.7-3.3c-1.2,0-1.8,0.6-1.8,1.8c0,4.4-2.7,6.3-6.1,4.2
			c-1.2-0.8-2-0.7-3.7,0.4c-2,1.4-9.8,2-12.5,1c-1.8-0.6,6.4-8.4,12.7-11.9c4.7-2.6,4.7-2.7,1.6-2.2c-3.9,0.6-7.6-0.6-10.3-3.5
			c-1.1-1.1-2.8-2.1-3.8-2.1c-2.5,0-1.7-2,1-2.6c3.6-0.9,2.8-2.3-1.1-1.9c-2.9,0.3-4.1-0.1-5.4-1.5c-2.5-2.7-1.3-4.5,2.8-4.2
			c1.8,0.1,3.3,0.4,3.1,0.8c-0.8,1.1,1.3,1.7,3,0.6c2.1-1.3,4.8-0.4,4,1.4c-0.4,1.1,0,1.4,1.6,1.4c2.8,0,3.6-0.8,2.3-2.4
			c-0.9-1.1-0.6-1.2,1.3-0.7c1.3,0.4,2.9,0.2,3.5-0.4c0.7-0.6,3.9-0.8,8.7-0.5c7.6,0.4,10-0.4,7-2.1c-1.8-1.1-0.4-2.2,1.9-2.1
			C-406.4,473.4-406.1,473.5-405.5,473.2z M-621.4,478.1c-0.7,1.4-1.3,3.6-1.3,4.8c0,1.5-0.5,2.3-1.4,2.3c-1.2,0-1.3-0.8-0.8-5.1
			c0.7-5.8,1-6.3,2.6-6.3C-620.3,473.8-619.9,475.3-621.4,478.1z M-487.9,474.7c0.3,0.7,1,1.4,1.6,1.6c0.7,0.2,1-0.1,0.8-0.8
			c-0.3-0.7-1-1.4-1.6-1.6c-0.2-0.1-0.4-0.1-0.4-0.1C-487.9,473.8-488.1,474.2-487.9,474.7z M-473.1,476.3c0,0.5,0.4,1,0.9,1
			s0.9-0.3,0.9-0.4c0-0.2-0.4-0.6-0.9-0.9c-0.1-0.1-0.3-0.2-0.4-0.2C-472.9,475.8-473.1,476-473.1,476.3z M-616.7,476.8
			c1,1.1,1,1.8,0.2,3.6c-0.5,1.2-1,3.1-1,4.2c0,2.3-0.8,3.3-2.1,2.9c-0.5-0.3-0.8-2.3-0.6-5.1c0.3-4.1,1.1-6.5,2.4-6.5
			C-617.4,476-617,476.2-616.7,476.8z M-611.9,484.6c-0.6,7.6-2.4,7.4-2.7-0.3c-0.1-3.1,0.2-6,0.7-6.5c0.3-0.4,0.6-0.5,0.9-0.5
			c0.1,0,0.1,0,0.2,0C-611.9,477.5-611.5,480-611.9,484.6z M-369.8,478.6c-0.4,1,0.2,1.3,2.2,1.3c1.5,0,2.7,0.4,2.7,0.9
			s1.2,0.9,2.6,0.9s2.6-0.4,2.6-0.9s-1.1-0.9-2.6-0.9s-2.9-0.4-3.2-0.9c-0.9-1.4,4.7-1.1,7.7,0.5c1.6,0.8,3.9,1.4,5.3,1.4
			c2.6-0.1,3.1,1.7,0.6,2.1c-0.7,0.1-1.9,0.4-2.7,0.8s-1.7,0.2-2-0.4s-1.3-1-2.2-1c-1.2,0-1.5,0.4-1.2,1.9c0.2,1.1-0.2,2.8-0.9,3.7
			c-1.2,1.6-1.3,1.6-1.8-0.7c-0.8-3.2-2.3-2-2.3,1.7c0,2.9-0.1,2.9-2.5,1.7c-2.2-1.1-2.5-1.1-3.1,0.5c-0.4,1-1.4,2-2.2,2.3
			c-0.8,0.3-2.5,1.1-3.7,1.7c-2.6,1.4-3.1,1.1-1.8-1.3c0.6-1,0.8-2.6,0.5-3.4c-0.3-1,0.5-2.8,2.2-4.9c1.5-1.8,2.9-4.3,3.2-5.4
			c0.3-1.1,1.1-2.2,1.7-2.5c0.2-0.1,0.4-0.2,0.4-0.2C-369.7,477.6-369.5,478-369.8,478.6z M-480.3,478.6c-0.1,0.4,0.5,1,1.4,1.1
			c1.1,0.2,1.5-0.1,1.2-0.9c-0.3-0.7-0.9-1.1-1.4-1.1C-479.6,477.6-480.2,477.9-480.3,478.6z M-466.9,479c0,0.4,0.7,0.9,1.4,0.9
			c0.7,0,1.1-0.4,0.8-0.9c-0.4-0.6-1-0.9-1.4-0.9C-466.6,478.2-467,478.4-466.9,479z M-445,479.9c0,0.4,0.6,0.9,1.3,0.9
			c0.7,0,1.3-0.4,1.3-0.9s-0.6-0.9-1.3-0.9C-444.3,479-445,479.5-445,479.9z M-592.4,484.5c0.3,3,0.7,6.4,1.1,7.5
			c1,3.3-1.3,2.4-2.7-1.1c-1.8-4-1.8-11.9-0.1-11.9C-593.3,479-592.8,480.6-592.4,484.5z M-607,479.1c1.1,0.2,1.5,1.8,1.9,6.4
			c0.4,3.4,0.4,6.5,0.2,6.9c-0.6,1-1.8,0.8-2.7-0.4c-2.5-3.1-2.1-12.8,0.4-12.8C-607.1,479.1-607.1,479.1-607,479.1z M-597.7,486.8
			c0.4,4.8,0.3,6.3-0.6,6.3c-0.6,0-1.6-1-2.1-2.2c-0.5-1.1-1.2-4-1.6-6.4c-0.4-3.6-0.3-4.4,1.1-4.9c0.4-0.2,0.7-0.3,1.1-0.3
			C-598.6,479.2-598.3,481-597.7,486.8z M-418.5,480.8c-0.9,1.6-0.6,1.8,1.7,1.8c1.4,0,2.8-0.4,3.1-0.8c0.5-0.9,0.2-1.2-2.4-2.1
			c-0.3-0.1-0.4-0.2-0.7-0.2C-417.5,479.5-418.1,479.9-418.5,480.8z M-459.9,480.8c0,0.4,0.4,0.9,0.9,0.9c0.4,0,0.9-0.4,0.9-0.9
			s-0.4-0.9-0.9-0.9S-459.9,480.4-459.9,480.8z M-424.4,482.3c-0.3,0.5,0.3,1.1,1.1,1.1s1.3-0.4,1.1-0.9c-0.3-0.6-0.7-1-1.1-1.1
			C-423.8,481.4-424.3,481.7-424.4,482.3z M-381.9,484c-3,1.2-28.8,9.6-30.5,9.9c-0.4,0.1-0.7-0.4-0.7-1.1c0-1.3,7.3-4,23.6-8.4
			c5-1.4,8.4-2.1,9.9-2.2C-378.3,482-379,482.6-381.9,484z M-471.1,483.2c0.4,1.7,2.9,2.6,3.7,1.3c0.3-0.4-0.5-1.3-1.8-1.8
			c-0.8-0.4-1.2-0.5-1.6-0.6C-471.3,482-471.4,482.3-471.1,483.2z M-464.7,483.4c0.7,1.1,2.2,1.1,2.2,0c0-0.4-0.6-0.9-1.4-0.9
			C-464.7,482.6-465,482.9-464.7,483.4z M-434,483.4c0.6,1,3.1,1.1,3.1,0.1c0-0.4-0.8-0.7-1.8-0.8C-433.6,482.6-434.2,483-434,483.4
			z M-415.4,484.3c-0.4,0.4-0.2,0.9,0.4,0.9c0.5,0,1-0.4,1-0.9c0-0.6-0.2-0.9-0.4-0.9C-414.8,483.4-415.1,483.7-415.4,484.3z
			 M-585.3,484.7c0.3,0.7-0.2,1.5-1,1.8c-1.3,0.5-1.3,0.7-0.2,1.3c2.7,1.6,9.2,1.7,12.1,0.2c1.6-0.9,2.7-1.9,2.6-2.4
			c-0.6-1.8-3.3-1.4-5.4,0.9c-2.1,2.2-4,2.4-4,0.3c0-1.1-2.6-3.3-3.9-3.3C-585.6,483.4-585.7,484-585.3,484.7z M-367.7,483.6
			c-1.3,0.2-2.1,1.1-2.3,2.3c-0.4,2.4,0.9,2.6,2.8,0.4c1.8-1.9,1.8-2.8,0.3-2.7C-367.2,483.5-367.4,483.5-367.7,483.6z
			 M-476.2,483.7c-0.4,0.3-0.4,1.1-0.1,1.7c0.3,0.7,0.5,0.5,0.5-0.5c0-0.7-0.1-1.1-0.3-1.2C-476.1,483.5-476.2,483.5-476.2,483.7z
			 M-419.4,485.2c0,0.4,0.4,0.9,0.9,0.9s0.9-0.4,0.9-0.9s-0.4-0.9-0.9-0.9S-419.4,484.8-419.4,485.2z M-428.2,485.6
			c0,0.8,0.4,1.4,0.9,1.4s0.9-0.4,0.9-0.9s-0.4-1.1-0.9-1.3c-0.1-0.1-0.3-0.1-0.4-0.1C-428,484.7-428.2,485-428.2,485.6z
			 M-481.9,485.6c-0.9,1.1-0.8,1.3,0.8,1.3c1,0,1.8-0.4,1.8-0.9c0-0.8-0.4-1.2-0.9-1.3C-480.7,484.7-481.4,484.9-481.9,485.6z
			 M-374.6,487.8c0,0.4,0.4,0.9,0.9,0.9s0.9-0.4,0.9-0.9c0-0.4-0.4-0.9-0.9-0.9S-374.6,487.4-374.6,487.8z M-423.8,489
			c0,1.1,2.2,1.7,3.1,0.8c0.7-0.7-0.4-1.9-1.8-1.9C-423.2,487.8-423.8,488.4-423.8,489z M-380.9,489.8c0.3,1.1-0.2,1.3-1.5,1
			c-1.1-0.3-1.8-1.1-1.8-1.8c0-0.7,0.4-1.1,1-1.1c0.1,0,0.3,0,0.4,0C-382,488-381.1,488.7-380.9,489.8z M-429.5,491.4
			c-0.4,0.4-0.2,0.9,0.4,0.9s1-0.4,1-0.9c0-0.6-0.2-0.9-0.4-0.9C-428.9,490.5-429.2,490.7-429.5,491.4z M-484.1,492.5
			c-0.4,0.3-0.4,1.1-0.1,1.7c0.3,0.7,0.5,0.5,0.5-0.5c0-0.7-0.1-1.1-0.3-1.2C-484,492.3-484.1,492.3-484.1,492.5z M-470.1,492.8
			c0.9,0.1,2.1,0.3,3.7,0.5c2.9,0.5,11.7,1.1,19.5,1.1c13,0,17.2,0.7,10.4,1.7c-5.5,0.8-25.2,0.6-29.2-0.3c-6.4-1.4-8.3-3.1-5.1-3.1
			C-470.7,492.7-470.4,492.7-470.1,492.8z M-489.2,496.6c0.6,0.7,1.1,0.7,1.5,0.1c0.3-0.5,0.1-1.1-0.4-1.5c-0.4-0.2-0.6-0.3-0.9-0.3
			C-489.7,495-490,495.8-489.2,496.6z M-422.4,495.8c-0.7,0-1.3,0.8-1.3,1.8c0,1.8,0.9,2.3,2,1.1c1-1,0.6-2.7-0.5-2.9
			C-422.3,495.8-422.4,495.8-422.4,495.8z M-482.4,497.3c-0.3,0.5,0.3,1.1,1.1,1.1s1.3-0.4,1.1-0.9c-0.3-0.6-0.7-1-1.1-1.1
			C-481.9,496.4-482.4,496.6-482.4,497.3z M-429.1,500.5c0.4,0.4,1,0.2,1.3-0.4c0.4-0.5,0-0.9-0.8-0.9
			C-430.2,499.3-430.3,499.8-429.1,500.5z M-474.9,500.2c0,0.4,0.4,0.9,0.9,0.9s0.9-0.4,0.9-0.9s-0.4-0.9-0.9-0.9
			S-474.9,499.7-474.9,500.2z M-480.9,500.2c0.3,0.7,1,1.4,1.6,1.6c0.7,0.2,1-0.1,0.8-0.8c-0.3-0.7-1-1.4-1.6-1.6
			c-0.2-0.1-0.4-0.1-0.4-0.1C-480.9,499.4-481,499.7-480.9,500.2z M-433.3,503.2c0.2,2.1,0.7,2.6,1.7,1.7c0.7-0.6-0.2-3.9-1.1-3.9
			C-433,501-433.3,502-433.3,503.2z M-425.9,503.2c-0.5,1.3,2.1,1.8,3.3,0.7c0.4-0.4,0.4-0.9,0.1-1.3s-0.7-0.7-1.2-0.7
			C-424.6,501.8-425.5,502.4-425.9,503.2z"/>
	</g>
</g>
<g id="Layer_2">
	<g>
		<path fill="#707070" stroke="#FFFFFF" stroke-width="2" d="M291.8,549.7c-1.8,0-3,0-4.3,0c-6.4,0.1-12.8,0.1-19.1,0.5
			c-6.2,0.4-11.2,5.5-11.4,11c-0.1,2.2,0.9,3.3,3,3.4c2.4,0.2,4.8,0.2,7.2,0.6c1.1,0.2,2.1,0.8,3.1,1.3c-0.9,0.8-1.7,2.1-2.7,2.2
			c-5.1,0.7-10.2,1.3-15.4,1.4c-2.8,0.1-5.7-0.6-8.4-1.5c-6.1-2-8-6.2-5.7-12.1c0.9-2.3,2.3-4.4,3.4-6.7c0.2-0.4,0-1.1,0-1.6
			c-0.4,0.2-1.1,0.3-1.3,0.7c-2.1,4.1-4.6,8.1-6,12.4c-2.2,6.9,0.6,11.5,7.8,13.8c8.2,2.6,16.6,2.1,24.8-0.7
			c4.8-1.6,7.9-6.5,7.3-11.5c-0.1-1-1.4-2.4-2.4-2.6c-2.9-0.6-5.9-0.7-8.8-1c-0.9-0.1-1.7-0.5-2.6-0.8c0-0.3,0-0.6,0-0.9
			c1.4-0.3,2.7-0.7,4.1-0.7c4.5-0.1,9,0,13.6-0.1c7.8-0.1,15.5-0.3,23.3-0.3c9.2,0,18.2-1.5,27-4.2c1-0.3,2.2-1.1,2.7-2
			c0.9-1.6,1.4-3.5,2.2-5.4c-6,1.3-11.7,2.3-17.3,3.9c-4.9,1.4-7.7-1-10.2-4.5c-2.2-3.2-1.6-5.6,2.2-6.5c3.1-0.8,6.4-1,9.6-1
			c2.7,0,5.5,0.7,8.5,1.1c-4.6-7.7-11.3-8.6-18.5-6.4c-3,0.9-5.1,2.9-6.6,5.7c-2.3,4.4-0.1,8.4,1.2,12.6h-6.3
			c-1.5-10.3-3.1-20.5-4.6-30.8c3-0.5,2.2-2.8,2.6-4.6c0.4-2.1-0.2-3.1-2.3-3.9c-1.7-0.7-3.1-2.1-4.9-3.4c-0.4,1.8-0.9,4-1.2,6.3
			c-0.1,0.8-0.2,2.2,0.2,2.4c2.6,1.3,2,3.8,2.3,5.9C289.1,530.6,290.4,540,291.8,549.7 M398.1,534.9c-0.8,1.8-1.3,3.4-2.1,4.9
			c-1,1.9-0.8,3.3,0.5,5.1c1.1,1.6,1.9,3.6,2.5,5.5c1.9,6.8,0.1,10.8-6.3,13.8c-6.3,2.9-13,3.6-19.8,2.1c-5.3-1.1-8.3-5.4-7.3-10.7
			c0.7-3.9,2.3-7.6,3.4-11.4c0.2-0.7,0.3-1.5,0.4-2.2c-0.9,0-1.2,0.2-1.3,0.5c-3,6-5.5,12.1-5.6,19c-0.1,5.3,2.6,9.3,7.6,10.9
			c5.8,1.8,11.7,1.6,17.5,0.2c6.5-1.6,11.4-5.2,13.5-11.9c0.4-1.3,0.6-2.7,0.9-4.1c0.7-0.1,1.2-0.2,1.7-0.2
			c3.7-0.1,7.4,0.4,10.7-2.1c0.4-0.3,1.5,0.2,2.2,0.6c2.8,1.5,5.7,1.7,8.8,1.3c0.8-9.8,0.5-17.3-2.9-19.6c-2,2-2.8,4-0.4,6.3
			c0.4,0.4,0.9,1.1,0.9,1.7c0.1,1.5-0.1,3.1-0.2,4.6c-1.8-0.4-3.9-0.3-5.3-1.3c-1.2-0.8-1.7-2.8-2.3-4.3c-0.5-1.4-0.7-2.8-1-4.4
			c-1.1,1.4-1.1,1.4-1,5.5c0.1,3-0.9,4.5-3.8,4.8c-2.4,0.3-4.9,0.1-7.5,0.1C401.4,544.5,401.5,539.5,398.1,534.9 M544.4,561.8
			c5.5-0.6,10.7-1.1,15.9-1.9c0.8-0.1,1.9-1.4,2.1-2.3c0.6-3.6-0.2-6.9-1.7-10.2c-0.5-1-0.3-2.6,0-3.7c1.4-4.7,3.3-9.2,4.4-13.9
			c0.6-2.6,0.1-5.5,0.1-8.6c2,1,3,0.8,3.1-1.1c0.1-1,0.8-2,0.7-2.9c0-0.9-0.5-2-1.2-2.5c-1.8-1.5-3.8-2.7-5.9-4.1
			c-0.2,3.1-3.6,6.4,0.6,9.5c0.2,0.1,0.2,0.5,0.2,0.8c0.1,7.3-0.7,14.5-4.4,21.6c-0.6-1.1-1.1-1.8-1.5-2.6
			c-5.3-9-10.6-18.1-17.8-25.7c-0.9-0.9-1.9-1.8-3-2.4c-2.1-1.1-3-0.6-3.3,1.8c-0.7,5.2,2.2,11.3,6.8,13.8c0.7,0.4,1.7,0.1,2.6,0.3
			c1.3,0.3,3.1,0.4,3.8,1.3c2.3,2.8,4.3,5.8,6.2,8.9c5.4,8.8,5.3,9.8-3.6,15.3C544.9,554.9,544.2,557.6,544.4,561.8 M499.4,537.6
			c4.1,5.2,5,7.6,4.4,11.9h-16.3c-0.7-10-1.3-20-11.9-25.6c-0.2,2.2-0.5,4-0.5,5.7c0,0.7,0.5,1.8,1.1,2.1c6.4,3.7,9.7,10.4,8.4,17.9
			c-3.7,0-7.5,0-11.3,0c-3,0-6.4,0.8-8.2-3.1c-2.4,7-0.5,9.8,6.1,9.8c11,0,22,0,33,0c0.8,0,1.6-0.1,2.3-0.2
			c0.7-12.7,0.5-20.2-4.4-24.3C501.2,533.8,500.3,535.7,499.4,537.6 M428.2,568.9l-0.3,1.3c3.1,1,6.1,2.1,9.2,2.9
			c5.3,1.3,10.4,1.3,14.9-2.6c9.2-7.8,9.8-20.2,6.7-30.1c-1.2-3.9-5.8-4.5-8.5-1.4c-2.4,2.6-3.2,5.7-3.3,9.2c-0.1,4,1.6,6.5,5.5,7.5
			c1.6,0.4,3.2,0.5,5.2,0.8c-3,4.3-6.1,8-10.2,10.8C441.3,571.6,434.8,570.7,428.2,568.9 M497.4,520.1c2.3,1.2,4.2,2.2,6.2,3.3
			c1-1.9,2-3.6,3-5.5c-2.2-1.1-4.2-2.1-6.3-3.2C499.3,516.5,498.4,518.2,497.4,520.1 M488.5,523.7c2.2,1.1,4.1,2.1,6.2,3.2
			c1-1.9,1.9-3.6,2.9-5.6c-2.1-1.1-4.1-2.1-6.3-3.2C490.3,520.2,489.4,521.9,488.5,523.7 M250.5,578.6c-0.6,0.6-1.2,1.1-1.7,1.6
			c-0.6,0.6-1.1,1.2-1.7,1.8c4.2,3.3,4.2,3.3,7.5-0.6C253.2,580.5,251.9,579.6,250.5,578.6 M258.4,578.5c-1.2,1.3-2.2,2.3-3.2,3.4
			c3.9,3.4,4.6,3.3,7.2-0.6C261.2,580.4,259.9,579.5,258.4,578.5"/>
		<path fill="#707070" stroke="#FFFFFF" stroke-width="2" d="M291.8,549.7c-1.8,0-3,0-4.3,0c-6.4,0.1-12.8,0.1-19.1,0.5
			c-6.2,0.4-11.2,5.5-11.4,11c-0.1,2.2,0.9,3.3,3,3.4c2.4,0.2,4.8,0.2,7.2,0.6c1.1,0.2,2.1,0.8,3.1,1.3c-0.9,0.8-1.7,2.1-2.7,2.2
			c-5.1,0.7-10.2,1.3-15.4,1.4c-2.8,0.1-5.7-0.6-8.4-1.5c-6.1-2-8-6.2-5.7-12.1c0.9-2.3,2.3-4.4,3.4-6.7c0.2-0.4,0-1.1,0-1.6
			c-0.4,0.2-1.1,0.3-1.3,0.7c-2.1,4.1-4.6,8.1-6,12.4c-2.2,6.9,0.6,11.5,7.8,13.8c8.2,2.6,16.6,2.1,24.8-0.7
			c4.8-1.6,7.9-6.5,7.3-11.5c-0.1-1-1.4-2.4-2.4-2.6c-2.9-0.6-5.9-0.7-8.8-1c-0.9-0.1-1.7-0.5-2.6-0.8c0-0.3,0-0.6,0-0.9
			c1.4-0.3,2.7-0.7,4.1-0.7c4.5-0.1,9,0,13.6-0.1c7.8-0.1,15.5-0.3,23.3-0.3c9.2,0,18.2-1.5,27-4.2c1-0.3,2.2-1.1,2.7-2
			c0.9-1.6,1.4-3.5,2.2-5.4c-6,1.3-11.7,2.3-17.3,3.9c-4.9,1.4-7.7-1-10.2-4.5c-2.2-3.2-1.6-5.6,2.2-6.5c3.1-0.8,6.4-1,9.6-1
			c2.7,0,5.5,0.7,8.5,1.1c-4.6-7.7-11.3-8.6-18.5-6.4c-3,0.9-5.1,2.9-6.6,5.7c-2.3,4.4-0.1,8.4,1.2,12.6h-6.3
			c-1.5-10.3-3.1-20.5-4.6-30.8c3-0.5,2.2-2.8,2.6-4.6c0.4-2.1-0.2-3.1-2.3-3.9c-1.7-0.7-3.1-2.1-4.9-3.4c-0.4,1.8-0.9,4-1.2,6.3
			c-0.1,0.8-0.2,2.2,0.2,2.4c2.6,1.3,2,3.8,2.3,5.9C289.1,530.6,290.4,540,291.8,549.7z M398.1,534.9c-0.8,1.8-1.3,3.4-2.1,4.9
			c-1,1.9-0.8,3.3,0.5,5.1c1.1,1.6,1.9,3.6,2.5,5.5c1.9,6.8,0.1,10.8-6.3,13.8c-6.3,2.9-13,3.6-19.8,2.1c-5.3-1.1-8.3-5.4-7.3-10.7
			c0.7-3.9,2.3-7.6,3.4-11.4c0.2-0.7,0.3-1.5,0.4-2.2c-0.9,0-1.2,0.2-1.3,0.5c-3,6-5.5,12.1-5.6,19c-0.1,5.3,2.6,9.3,7.6,10.9
			c5.8,1.8,11.7,1.6,17.5,0.2c6.5-1.6,11.4-5.2,13.5-11.9c0.4-1.3,0.6-2.7,0.9-4.1c0.7-0.1,1.2-0.2,1.7-0.2
			c3.7-0.1,7.4,0.4,10.7-2.1c0.4-0.3,1.5,0.2,2.2,0.6c2.8,1.5,5.7,1.7,8.8,1.3c0.8-9.8,0.5-17.3-2.9-19.6c-2,2-2.8,4-0.4,6.3
			c0.4,0.4,0.9,1.1,0.9,1.7c0.1,1.5-0.1,3.1-0.2,4.6c-1.8-0.4-3.9-0.3-5.3-1.3c-1.2-0.8-1.7-2.8-2.3-4.3c-0.5-1.4-0.7-2.8-1-4.4
			c-1.1,1.4-1.1,1.4-1,5.5c0.1,3-0.9,4.5-3.8,4.8c-2.4,0.3-4.9,0.1-7.5,0.1C401.4,544.5,401.5,539.5,398.1,534.9z M544.4,561.8
			c5.5-0.6,10.7-1.1,15.9-1.9c0.8-0.1,1.9-1.4,2.1-2.3c0.6-3.6-0.2-6.9-1.7-10.2c-0.5-1-0.3-2.6,0-3.7c1.4-4.7,3.3-9.2,4.4-13.9
			c0.6-2.6,0.1-5.5,0.1-8.6c2,1,3,0.8,3.1-1.1c0.1-1,0.8-2,0.7-2.9c0-0.9-0.5-2-1.2-2.5c-1.8-1.5-3.8-2.7-5.9-4.1
			c-0.2,3.1-3.6,6.4,0.6,9.5c0.2,0.1,0.2,0.5,0.2,0.8c0.1,7.3-0.7,14.5-4.4,21.6c-0.6-1.1-1.1-1.8-1.5-2.6
			c-5.3-9-10.6-18.1-17.8-25.7c-0.9-0.9-1.9-1.8-3-2.4c-2.1-1.1-3-0.6-3.3,1.8c-0.7,5.2,2.2,11.3,6.8,13.8c0.7,0.4,1.7,0.1,2.6,0.3
			c1.3,0.3,3.1,0.4,3.8,1.3c2.3,2.8,4.3,5.8,6.2,8.9c5.4,8.8,5.3,9.8-3.6,15.3C544.9,554.9,544.2,557.6,544.4,561.8z M499.4,537.6
			c4.1,5.2,5,7.6,4.4,11.9h-16.3c-0.7-10-1.3-20-11.9-25.6c-0.2,2.2-0.5,4-0.5,5.7c0,0.7,0.5,1.8,1.1,2.1c6.4,3.7,9.7,10.4,8.4,17.9
			c-3.7,0-7.5,0-11.3,0c-3,0-6.4,0.8-8.2-3.1c-2.4,7-0.5,9.8,6.1,9.8c11,0,22,0,33,0c0.8,0,1.6-0.1,2.3-0.2
			c0.7-12.7,0.5-20.2-4.4-24.3C501.2,533.8,500.3,535.7,499.4,537.6z M428.2,568.9l-0.3,1.3c3.1,1,6.1,2.1,9.2,2.9
			c5.3,1.3,10.4,1.3,14.9-2.6c9.2-7.8,9.8-20.2,6.7-30.1c-1.2-3.9-5.8-4.5-8.5-1.4c-2.4,2.6-3.2,5.7-3.3,9.2c-0.1,4,1.6,6.5,5.5,7.5
			c1.6,0.4,3.2,0.5,5.2,0.8c-3,4.3-6.1,8-10.2,10.8C441.3,571.6,434.8,570.7,428.2,568.9z M497.4,520.1c2.3,1.2,4.2,2.2,6.2,3.3
			c1-1.9,2-3.6,3-5.5c-2.2-1.1-4.2-2.1-6.3-3.2C499.3,516.5,498.4,518.2,497.4,520.1z M488.5,523.7c2.2,1.1,4.1,2.1,6.2,3.2
			c1-1.9,1.9-3.6,2.9-5.6c-2.1-1.1-4.1-2.1-6.3-3.2C490.3,520.2,489.4,521.9,488.5,523.7z M250.5,578.6c-0.6,0.6-1.2,1.1-1.7,1.6
			c-0.6,0.6-1.1,1.2-1.7,1.8c4.2,3.3,4.2,3.3,7.5-0.6C253.2,580.5,251.9,579.6,250.5,578.6z M258.4,578.5c-1.2,1.3-2.2,2.3-3.2,3.4
			c3.9,3.4,4.6,3.3,7.2-0.6C261.2,580.4,259.9,579.5,258.4,578.5z"/>
		<path fill="#707070" stroke="#FFFFFF" stroke-width="2" d="M291.8,549.7c-1.4-9.7-2.6-19.1-4-28.4c-0.3-2.1,0.3-4.5-2.3-5.9
			c-0.4-0.2-0.3-1.6-0.2-2.4c0.4-2.2,0.9-4.4,1.2-6.3c1.8,1.3,3.2,2.7,4.9,3.4c2,0.8,2.7,1.8,2.3,3.9c-0.4,1.8,0.4,4.2-2.6,4.6
			c1.6,10.3,3.1,20.5,4.6,30.8h6.3c-1.4-4.2-3.5-8.3-1.2-12.6c1.4-2.7,3.6-4.8,6.6-5.7c7.2-2.2,13.9-1.3,18.5,6.4
			c-3-0.4-5.8-1.1-8.5-1.1c-3.2,0-6.5,0.2-9.6,1c-3.7,1-4.4,3.4-2.2,6.5c2.4,3.5,5.3,5.9,10.2,4.5c5.6-1.6,11.3-2.6,17.3-3.9
			c-0.7,1.9-1.2,3.8-2.2,5.4c-0.5,0.9-1.7,1.7-2.7,2c-8.8,2.8-17.8,4.2-27,4.2c-7.8,0-15.5,0.2-23.3,0.3c-4.5,0-9.1,0-13.6,0.1
			c-1.4,0-2.7,0.5-4.1,0.7c0,0.3,0,0.6,0,0.9c0.9,0.3,1.7,0.7,2.6,0.8c2.9,0.4,5.9,0.4,8.8,1c1,0.2,2.3,1.6,2.4,2.6
			c0.5,5.1-2.5,9.9-7.3,11.5c-8.2,2.8-16.6,3.3-24.8,0.7c-7.2-2.3-10-6.9-7.8-13.8c1.4-4.3,3.9-8.3,6-12.4c0.2-0.4,0.8-0.5,1.3-0.7
			c0,0.5,0.3,1.2,0,1.6c-1.1,2.2-2.5,4.3-3.4,6.7c-2.3,5.9-0.4,10.1,5.7,12.1c2.7,0.9,5.6,1.6,8.4,1.5c5.1-0.1,10.3-0.8,15.4-1.4
			c1-0.1,1.8-1.4,2.7-2.2c-1-0.4-2-1.1-3.1-1.3c-2.4-0.3-4.8-0.4-7.2-0.6c-2.1-0.1-3.1-1.2-3-3.4c0.2-5.4,5.2-10.5,11.4-11
			c6.4-0.4,12.8-0.4,19.1-0.5C288.7,549.7,290,549.7,291.8,549.7"/>
		<path fill="#707070" stroke="#FFFFFF" stroke-width="2" d="M291.8,549.7c-1.4-9.7-2.6-19.1-4-28.4c-0.3-2.1,0.3-4.5-2.3-5.9
			c-0.4-0.2-0.3-1.6-0.2-2.4c0.4-2.2,0.9-4.4,1.2-6.3c1.8,1.3,3.2,2.7,4.9,3.4c2,0.8,2.7,1.8,2.3,3.9c-0.4,1.8,0.4,4.2-2.6,4.6
			c1.6,10.3,3.1,20.5,4.6,30.8h6.3c-1.4-4.2-3.5-8.3-1.2-12.6c1.4-2.7,3.6-4.8,6.6-5.7c7.2-2.2,13.9-1.3,18.5,6.4
			c-3-0.4-5.8-1.1-8.5-1.1c-3.2,0-6.5,0.2-9.6,1c-3.7,1-4.4,3.4-2.2,6.5c2.4,3.5,5.3,5.9,10.2,4.5c5.6-1.6,11.3-2.6,17.3-3.9
			c-0.7,1.9-1.2,3.8-2.2,5.4c-0.5,0.9-1.7,1.7-2.7,2c-8.8,2.8-17.8,4.2-27,4.2c-7.8,0-15.5,0.2-23.3,0.3c-4.5,0-9.1,0-13.6,0.1
			c-1.4,0-2.7,0.5-4.1,0.7c0,0.3,0,0.6,0,0.9c0.9,0.3,1.7,0.7,2.6,0.8c2.9,0.4,5.9,0.4,8.8,1c1,0.2,2.3,1.6,2.4,2.6
			c0.5,5.1-2.5,9.9-7.3,11.5c-8.2,2.8-16.6,3.3-24.8,0.7c-7.2-2.3-10-6.9-7.8-13.8c1.4-4.3,3.9-8.3,6-12.4c0.2-0.4,0.8-0.5,1.3-0.7
			c0,0.5,0.3,1.2,0,1.6c-1.1,2.2-2.5,4.3-3.4,6.7c-2.3,5.9-0.4,10.1,5.7,12.1c2.7,0.9,5.6,1.6,8.4,1.5c5.1-0.1,10.3-0.8,15.4-1.4
			c1-0.1,1.8-1.4,2.7-2.2c-1-0.4-2-1.1-3.1-1.3c-2.4-0.3-4.8-0.4-7.2-0.6c-2.1-0.1-3.1-1.2-3-3.4c0.2-5.4,5.2-10.5,11.4-11
			c6.4-0.4,12.8-0.4,19.1-0.5C288.7,549.7,290,549.7,291.8,549.7z"/>
		<path fill="#707070" stroke="#FFFFFF" stroke-width="2" d="M398.1,534.9c3.4,4.7,3.3,9.7,3.8,14.6c2.6,0,5.1,0.2,7.5-0.1
			c2.8-0.3,3.8-1.9,3.8-4.8c-0.1-4.1-0.1-4.1,1-5.5c0.3,1.6,0.5,3,1,4.4c0.6,1.5,1.1,3.5,2.3,4.3c1.4,1,3.5,0.9,5.3,1.3
			c0.1-1.5,0.2-3.1,0.2-4.6c0-0.6-0.4-1.3-0.9-1.7c-2.4-2.3-1.6-4.3,0.4-6.3c3.4,2.4,3.7,9.8,2.9,19.6c-3.1,0.5-6,0.3-8.8-1.3
			c-0.7-0.4-1.8-0.9-2.2-0.6c-3.2,2.5-7,1.9-10.7,2.1c-0.5,0-1.1,0.1-1.7,0.2c-0.3,1.4-0.5,2.8-0.9,4.1c-2,6.7-7,10.3-13.4,11.9
			c-5.8,1.4-11.7,1.6-17.5-0.2c-5.1-1.6-7.7-5.6-7.6-10.9c0.1-6.9,2.6-13,5.6-19c0.1-0.3,0.5-0.5,1.3-0.5c-0.1,0.7-0.2,1.5-0.4,2.2
			c-1.1,3.8-2.7,7.5-3.4,11.4c-1,5.3,2,9.6,7.3,10.7c6.8,1.5,13.5,0.8,19.8-2.1c6.4-3,8.2-7,6.3-13.8c-0.5-1.9-1.3-3.9-2.5-5.5
			c-1.2-1.7-1.4-3.2-0.5-5.1C396.8,538.3,397.4,536.7,398.1,534.9"/>
		<path fill="#707070" stroke="#FFFFFF" stroke-width="2" d="M398.1,534.9c3.4,4.7,3.3,9.7,3.8,14.6c2.6,0,5.1,0.2,7.5-0.1
			c2.8-0.3,3.8-1.9,3.8-4.8c-0.1-4.1-0.1-4.1,1-5.5c0.3,1.6,0.5,3,1,4.4c0.6,1.5,1.1,3.5,2.3,4.3c1.4,1,3.5,0.9,5.3,1.3
			c0.1-1.5,0.2-3.1,0.2-4.6c0-0.6-0.4-1.3-0.9-1.7c-2.4-2.3-1.6-4.3,0.4-6.3c3.4,2.4,3.7,9.8,2.9,19.6c-3.1,0.5-6,0.3-8.8-1.3
			c-0.7-0.4-1.8-0.9-2.2-0.6c-3.2,2.5-7,1.9-10.7,2.1c-0.5,0-1.1,0.1-1.7,0.2c-0.3,1.4-0.5,2.8-0.9,4.1c-2,6.7-7,10.3-13.4,11.9
			c-5.8,1.4-11.7,1.6-17.5-0.2c-5.1-1.6-7.7-5.6-7.6-10.9c0.1-6.9,2.6-13,5.6-19c0.1-0.3,0.5-0.5,1.3-0.5c-0.1,0.7-0.2,1.5-0.4,2.2
			c-1.1,3.8-2.7,7.5-3.4,11.4c-1,5.3,2,9.6,7.3,10.7c6.8,1.5,13.5,0.8,19.8-2.1c6.4-3,8.2-7,6.3-13.8c-0.5-1.9-1.3-3.9-2.5-5.5
			c-1.2-1.7-1.4-3.2-0.5-5.1C396.8,538.3,397.4,536.7,398.1,534.9z"/>
		<path fill="#707070" stroke="#FFFFFF" stroke-width="2" d="M544.4,561.8c-0.2-4.2,0.5-6.9,3.9-9c8.9-5.5,9-6.5,3.6-15.3
			c-1.9-3.1-3.9-6.1-6.2-8.9c-0.7-0.9-2.5-0.9-3.8-1.3c-0.8-0.2-1.9,0.1-2.6-0.3c-4.6-2.5-7.6-8.6-6.8-13.8c0.3-2.3,1.3-2.9,3.3-1.8
			c1.1,0.6,2.1,1.5,3,2.4c7.2,7.7,12.5,16.7,17.8,25.7c0.4,0.8,0.9,1.5,1.5,2.6c3.7-7,4.5-14.2,4.4-21.6c0-0.3,0-0.7-0.2-0.8
			c-4.2-3.1-0.8-6.4-0.6-9.5c2.1,1.5,4.1,2.7,5.9,4.1c0.7,0.5,1.1,1.6,1.2,2.5c0.1,1-0.6,1.9-0.7,2.9c-0.2,1.9-1.2,2.1-3.1,1.1
			c0,3.2,0.5,6-0.1,8.6c-1.1,4.7-3,9.3-4.4,13.9c-0.3,1.2-0.5,2.7,0,3.7c1.5,3.3,2.4,6.7,1.7,10.2c-0.2,0.9-1.3,2.2-2.1,2.3
			C555.1,560.7,549.9,561.2,544.4,561.8 M550.7,554.8c0,0.2,0.1,0.4,0.1,0.6c2.1-0.2,4.1-0.2,6.2-0.5c2.5-0.3,3-1.8,2-3.9
			c-0.4-0.8-0.8-1.5-1.2-2.3C555.2,550.8,553,552.8,550.7,554.8"/>
		<path fill="#707070" stroke="#FFFFFF" stroke-width="2" d="M544.4,561.8c-0.2-4.2,0.5-6.9,3.9-9c8.9-5.5,9-6.5,3.6-15.3
			c-1.9-3.1-3.9-6.1-6.2-8.9c-0.7-0.9-2.5-0.9-3.8-1.3c-0.8-0.2-1.9,0.1-2.6-0.3c-4.6-2.5-7.6-8.6-6.8-13.8c0.3-2.3,1.3-2.9,3.3-1.8
			c1.1,0.6,2.1,1.5,3,2.4c7.2,7.7,12.5,16.7,17.8,25.7c0.4,0.8,0.9,1.5,1.5,2.6c3.7-7,4.5-14.2,4.4-21.6c0-0.3,0-0.7-0.2-0.8
			c-4.2-3.1-0.8-6.4-0.6-9.5c2.1,1.5,4.1,2.7,5.9,4.1c0.7,0.5,1.1,1.6,1.2,2.5c0.1,1-0.6,1.9-0.7,2.9c-0.2,1.9-1.2,2.1-3.1,1.1
			c0,3.2,0.5,6-0.1,8.6c-1.1,4.7-3,9.3-4.4,13.9c-0.3,1.2-0.5,2.7,0,3.7c1.5,3.3,2.4,6.7,1.7,10.2c-0.2,0.9-1.3,2.2-2.1,2.3
			C555.1,560.7,549.9,561.2,544.4,561.8z M550.7,554.8c0,0.2,0.1,0.4,0.1,0.6c2.1-0.2,4.1-0.2,6.2-0.5c2.5-0.3,3-1.8,2-3.9
			c-0.4-0.8-0.8-1.5-1.2-2.3C555.2,550.8,553,552.8,550.7,554.8z"/>
		<path fill="#707070" stroke="#FFFFFF" stroke-width="2" d="M499.4,537.6c0.9-1.9,1.9-3.8,2.8-5.8c5,4,5.1,11.5,4.4,24.3
			c-0.7,0.1-1.5,0.2-2.3,0.2c-11,0-22,0-33,0c-6.6,0-8.5-2.9-6.1-9.8c1.8,3.9,5.1,3.1,8.2,3.1c3.8,0,7.5,0,11.3,0
			c1.3-7.6-1.9-14.2-8.4-18c-0.6-0.3-1.1-1.4-1.1-2.1c0-1.7,0.3-3.5,0.5-5.7c10.5,5.6,11.2,15.6,11.9,25.6h16.3
			C504.3,545.2,503.5,542.9,499.4,537.6"/>
		<path fill="#707070" stroke="#FFFFFF" stroke-width="2" d="M499.4,537.6c0.9-1.9,1.9-3.8,2.8-5.8c5,4,5.1,11.5,4.4,24.3
			c-0.7,0.1-1.5,0.2-2.3,0.2c-11,0-22,0-33,0c-6.6,0-8.5-2.9-6.1-9.8c1.8,3.9,5.1,3.1,8.2,3.1c3.8,0,7.5,0,11.3,0
			c1.3-7.6-1.9-14.2-8.4-18c-0.6-0.3-1.1-1.4-1.1-2.1c0-1.7,0.3-3.5,0.5-5.7c10.5,5.6,11.2,15.6,11.9,25.6h16.3
			C504.3,545.2,503.5,542.9,499.4,537.6z"/>
		<path fill="#707070" stroke="#FFFFFF" stroke-width="2" d="M428.2,568.9c6.6,1.7,13.1,2.7,19.2-1.5c4.1-2.8,7.2-6.5,10.2-10.8
			c-2-0.3-3.6-0.4-5.2-0.8c-3.9-1.1-5.6-3.6-5.5-7.5c0.1-3.4,1-6.6,3.3-9.2c2.8-3,7.3-2.4,8.5,1.4c3.1,9.9,2.5,22.3-6.7,30.1
			c-4.6,3.8-9.6,3.8-14.9,2.6c-3.1-0.7-6.1-1.9-9.2-2.9L428.2,568.9z M457.3,550c0.2-0.2,0.4-0.5,0.6-0.7c-0.7-1.5-1.1-3.2-2-4.3
			c-0.7-0.8-2.2-1.4-3.3-1.3c-0.8,0.1-2,1.4-2,2.1c0.1,1.1,0.9,2.6,1.8,3C453.8,549.6,455.6,549.7,457.3,550"/>
		<path fill="#707070" stroke="#FFFFFF" stroke-width="2" d="M428.2,568.9c6.6,1.7,13.1,2.7,19.2-1.5c4.1-2.8,7.2-6.5,10.2-10.8
			c-2-0.3-3.6-0.4-5.2-0.8c-3.9-1.1-5.6-3.6-5.5-7.5c0.1-3.4,1-6.6,3.3-9.2c2.8-3,7.3-2.4,8.5,1.4c3.1,9.9,2.5,22.3-6.7,30.1
			c-4.6,3.8-9.6,3.8-14.9,2.6c-3.1-0.7-6.1-1.9-9.2-2.9L428.2,568.9z M457.3,550c0.2-0.2,0.4-0.5,0.6-0.7c-0.7-1.5-1.1-3.2-2-4.3
			c-0.7-0.8-2.2-1.4-3.3-1.3c-0.8,0.1-2,1.4-2,2.1c0.1,1.1,0.9,2.6,1.8,3C453.8,549.6,455.6,549.7,457.3,550z"/>
		<path fill="#707070" stroke="#FFFFFF" stroke-width="2" d="M497.4,520.1c1-2,1.9-3.6,2.9-5.5c2.2,1.1,4.1,2.1,6.3,3.2
			c-1,1.8-1.9,3.6-3,5.5C501.5,522.3,499.6,521.3,497.4,520.1"/>
		<path fill="#707070" stroke="#FFFFFF" stroke-width="2" d="M497.4,520.1c1-2,1.9-3.6,2.9-5.5c2.2,1.1,4.1,2.1,6.3,3.2
			c-1,1.8-1.9,3.6-3,5.5C501.5,522.3,499.6,521.3,497.4,520.1z"/>
		<path fill="#707070" stroke="#FFFFFF" stroke-width="2" d="M488.5,523.7c1-1.9,1.8-3.6,2.8-5.5c2.2,1.1,4.2,2.1,6.3,3.2
			c-1,1.9-1.9,3.6-2.9,5.6C492.5,525.9,490.6,524.9,488.5,523.7"/>
		<path fill="#707070" stroke="#FFFFFF" stroke-width="2" d="M488.5,523.7c1-1.9,1.8-3.6,2.8-5.5c2.2,1.1,4.2,2.1,6.3,3.2
			c-1,1.9-1.9,3.6-2.9,5.6C492.5,525.9,490.6,524.9,488.5,523.7z"/>
		<path fill="#707070" stroke="#FFFFFF" stroke-width="2" d="M250.5,578.6c1.4,1,2.7,1.9,4.1,2.8c-3.3,3.9-3.3,3.9-7.5,0.6
			c0.6-0.6,1.1-1.2,1.7-1.8C249.3,579.7,249.8,579.2,250.5,578.6"/>
		<path fill="#707070" stroke="#FFFFFF" stroke-width="2" d="M250.5,578.6c1.4,1,2.7,1.9,4.1,2.8c-3.3,3.9-3.3,3.9-7.5,0.6
			c0.6-0.6,1.1-1.2,1.7-1.8C249.3,579.7,249.8,579.2,250.5,578.6z"/>
		<path fill="#707070" stroke="#FFFFFF" stroke-width="2" d="M258.4,578.5c1.5,1,2.8,1.9,4,2.8c-2.6,3.9-3.4,4-7.2,0.6
			C256.2,580.8,257.2,579.8,258.4,578.5"/>
		<path fill="#707070" stroke="#FFFFFF" stroke-width="2" d="M258.4,578.5c1.5,1,2.8,1.9,4,2.8c-2.6,3.9-3.4,4-7.2,0.6
			C256.2,580.8,257.2,579.8,258.4,578.5z"/>
		<path fill="#707070" stroke="#FFFFFF" stroke-width="2" d="M550.7,554.8c2.3-2,4.6-3.9,7.1-6.1c0.4,0.8,0.9,1.5,1.2,2.3
			c1,2.1,0.5,3.6-2,3.9c-2.1,0.2-4.1,0.3-6.2,0.5C550.7,555.2,550.7,555,550.7,554.8"/>
		<path fill="#707070" stroke="#FFFFFF" stroke-width="2" d="M550.7,554.8c2.3-2,4.6-3.9,7.1-6.1c0.4,0.8,0.9,1.5,1.2,2.3
			c1,2.1,0.5,3.6-2,3.9c-2.1,0.2-4.1,0.3-6.2,0.5C550.7,555.2,550.7,555,550.7,554.8z"/>
		<path fill="#707070" stroke="#FFFFFF" stroke-width="2" d="M457.3,550c-1.7-0.4-3.5-0.4-4.9-1.2c-0.9-0.5-1.7-2-1.8-3
			c-0.1-0.7,1.2-2.1,2-2.1c1.1-0.1,2.6,0.4,3.3,1.3c1,1.2,1.4,2.9,2,4.3C457.7,549.5,457.5,549.8,457.3,550"/>
		<path fill="#707070" stroke="#FFFFFF" stroke-width="2" d="M457.3,550c-1.7-0.4-3.5-0.4-4.9-1.2c-0.9-0.5-1.7-2-1.8-3
			c-0.1-0.7,1.2-2.1,2-2.1c1.1-0.1,2.6,0.4,3.3,1.3c1,1.2,1.4,2.9,2,4.3C457.7,549.5,457.5,549.8,457.3,550z"/>
	</g>
</g>
</svg>
